<svg width="49" height="64" viewBox="0 0 49 64" fill="none" xmlns="http://www.w3.org/2000/svg">
<path d="M24.48 0C10.9816 0 0 10.9817 0 24.48C0 37.9782 10.9817 48.96 24.48 48.96C37.9782 48.96 48.96 37.9782 48.96 24.48C48.96 10.9817 37.9784 0 24.48 0ZM35.9674 40.291L24.48 34.8549L12.9926 40.291L14.6129 27.6861L5.89313 18.441L18.3818 16.0869L24.48 4.93663L30.5781 16.0866L43.0669 18.4408L34.3471 27.686L35.9674 40.291Z" fill="#FF4F38"/>
<path d="M28.1402 19.443L24.4805 12.7517L20.8209 19.443L13.3262 20.8557L18.5592 26.404L17.5868 33.9685L24.4805 30.7061L31.3743 33.9685L30.4019 26.404L35.6349 20.8557L28.1402 19.443Z" fill="#FF4F38"/>
<path d="M7.37891 55.4314C9.03453 55.1909 10.62 54.6308 12.0625 53.776V49.8466C10.4189 49.0403 8.85103 48.0703 7.37891 46.9448V55.4314Z" fill="#FF4F38"/>
<path d="M36.8965 53.776C38.339 54.6308 39.9245 55.1909 41.5801 55.4314V46.9448C40.108 48.0703 38.5401 49.0402 36.8965 49.8466V53.776Z" fill="#FF4F38"/>
<path d="M15.8125 51.3596V64.0001C18.5886 63.5994 21.1412 62.31 23.1405 60.2704L24.4795 58.9044L25.8185 60.2704C27.8178 62.3099 30.3704 63.5994 33.1465 64.0001V51.3596C30.3823 52.2476 27.4666 52.7101 24.4795 52.7101C21.4924 52.7101 18.5768 52.2476 15.8125 51.3596Z" fill="#FF4F38"/>
</svg>
