<svg width="56" height="56" viewBox="0 0 56 56" fill="none" xmlns="http://www.w3.org/2000/svg">
<path d="M54.2654 33.1562C53.457 38.0265 51.3437 42.5867 48.1505 46.3519C44.9572 50.117 40.8032 52.9464 36.1303 54.5392C31.4573 56.132 26.4401 56.4286 21.612 55.3975C16.7839 54.3664 12.3255 52.0462 8.7108 48.6836C5.09612 45.3209 2.46029 41.0415 1.08359 36.3004C-0.293107 31.5593 -0.359218 26.5337 0.89229 21.758C2.1438 16.9823 4.66614 12.635 8.19111 9.17845C11.7161 5.72186 16.1119 3.28516 20.9112 2.12744L27.3171 28.6828L54.2654 33.1562Z" fill="#FFEC40"/>
<path d="M24.9473 0.25661C28.9615 -0.297514 33.0487 0.0483661 36.9126 1.26918C40.7766 2.49 44.3206 4.55517 47.2877 7.31503C50.2548 10.0749 52.5708 13.4603 54.0677 17.2259C55.5646 20.9915 56.205 25.043 55.9425 29.0867L28.6828 27.3171L24.9473 0.25661Z" fill="white"/>
</svg>
