<svg width="54" height="64" viewBox="0 0 54 64" fill="none" xmlns="http://www.w3.org/2000/svg">
<path d="M14.7216 57.3141V61.1552H1.46991C0.662461 61.1552 0 60.4965 0 59.6877V54.4718C0 50.6383 2.56485 47.3747 6.06214 46.3123L9.54819 52.3494C9.65443 52.5369 9.83817 52.6432 10.0544 52.6432C10.2669 52.6432 10.4506 52.5369 10.5606 52.3494L14.0467 46.3123C15.7866 46.8398 17.299 47.9172 18.3764 49.3384C16.1428 51.2807 14.7216 54.1393 14.7216 57.3141ZM47.5522 46.3135L44.0662 52.3507C43.9599 52.5382 43.7762 52.6444 43.5599 52.6444C43.3475 52.6444 43.1637 52.5382 43.0537 52.3507L39.5677 46.3135C37.8278 46.841 36.3154 47.9184 35.2379 49.3396C37.4741 51.2807 38.894 54.1406 38.894 57.3154V61.1564H52.1457C52.9531 61.1564 53.6156 60.4977 53.6156 59.689V54.4731C53.6144 50.6395 51.0495 47.376 47.5522 46.3135ZM37.869 37.4266C37.869 40.5589 40.4276 43.1162 43.5587 43.1162C46.6948 43.1162 49.2484 40.5576 49.2484 37.4266C49.2484 34.2905 46.6935 31.7369 43.5587 31.7369C40.4264 31.7369 37.869 34.2917 37.869 37.4266ZM10.0557 43.1175C13.188 43.1175 15.7453 40.5589 15.7453 37.4278C15.7453 34.2917 13.1867 31.7381 10.0557 31.7381C6.91959 31.7381 4.36599 34.293 4.36599 37.4278C4.36474 40.5589 6.91959 43.1175 10.0557 43.1175ZM30.8007 49.1546L27.3146 55.1955C27.2084 55.3792 27.0247 55.4855 26.8084 55.4855C26.5922 55.4855 26.4085 55.3792 26.3022 55.1955L22.8162 49.1546C19.3189 50.2208 16.7578 53.4844 16.7578 57.3141V62.5301C16.7578 63.3375 17.4165 64 18.2252 64H35.3954C36.2029 64 36.8628 63.3375 36.8628 62.5301V57.3141C36.8591 53.4844 34.2967 50.2208 30.8007 49.1546ZM26.8072 34.578C23.6749 34.578 21.1175 37.1366 21.1175 40.2676C21.1175 43.4037 23.6761 45.9573 26.8072 45.9573C29.9432 45.9573 32.4968 43.4025 32.4968 40.2676C32.4968 37.1366 29.9432 34.578 26.8072 34.578ZM16.0541 18.4002L21.085 22.0387C21.4637 22.3149 21.6125 22.7824 21.4675 23.2261L19.5401 29.1258C19.3951 29.572 19.5476 30.0357 19.9226 30.3132C20.3013 30.5857 20.79 30.5857 21.17 30.3095L26.1835 26.6534C26.5622 26.3772 27.0509 26.3772 27.4309 26.6534L32.4443 30.3095C32.8231 30.5857 33.3118 30.5857 33.6918 30.3132C34.0705 30.037 34.2192 29.5733 34.0743 29.1258L32.1469 23.2261C32.0019 22.7837 32.1544 22.3149 32.5331 22.0387L37.5603 18.4002C37.939 18.1277 38.0878 17.6627 37.9465 17.2165C37.8015 16.774 37.4041 16.4865 36.9366 16.4865L30.7294 16.4965C30.262 16.4965 29.8645 16.209 29.7195 15.7628L27.8134 9.85692C27.6721 9.41445 27.2747 9.12321 26.8072 9.12321C26.3397 9.12321 25.9422 9.4132 25.801 9.85692L23.8948 15.7641C23.7499 16.2103 23.3524 16.4978 22.8849 16.4978L16.6778 16.4878C16.2103 16.4878 15.8128 16.7753 15.6678 17.2177C15.5253 17.664 15.6778 18.1277 16.0541 18.4002ZM26.8072 6.05964C27.3671 6.05964 27.8246 5.60217 27.8246 5.0422V1.01744C27.8246 0.457473 27.3671 0 26.8072 0C26.2472 0 25.7897 0.457473 25.7897 1.01744V5.0422C25.7897 5.60217 26.2472 6.05964 26.8072 6.05964ZM33.6918 7.89829C34.1767 8.17827 34.7967 8.01203 35.0742 7.52581L37.0866 4.03976C37.3666 3.55729 37.1966 2.93733 36.7141 2.66109C36.2291 2.38111 35.6117 2.54735 35.3317 3.03357L33.3193 6.51587C33.0431 7.00209 33.2093 7.62205 33.6918 7.89829ZM40.1114 13.3092L43.5937 11.2968C44.0787 11.0169 44.2462 10.4006 43.9687 9.91442C43.6887 9.4332 43.0687 9.26196 42.5863 9.54194L39.1002 11.5543C38.6152 11.8306 38.4477 12.4505 38.7277 12.9367C39.0065 13.4192 39.6264 13.5892 40.1114 13.3092ZM18.5414 7.53081C18.8214 8.01578 19.4414 8.17952 19.9263 7.89954C20.4088 7.61955 20.575 6.99959 20.2951 6.51462L18.2827 3.03232C18.0027 2.54735 17.3827 2.37986 16.8978 2.66359C16.4128 2.94358 16.249 3.56354 16.529 4.04601L18.5414 7.53081ZM10.0194 11.2968L13.5017 13.3092C13.9867 13.5892 14.6066 13.4192 14.8841 12.9367C15.1641 12.4518 14.9979 11.8318 14.5116 11.5543L11.0256 9.54194C10.5431 9.26196 9.92317 9.43195 9.64318 9.91442C9.3682 10.4006 9.53444 11.0169 10.0194 11.2968Z" fill="#FF4F38"/>
</svg>
