<svg width="66" height="64" viewBox="0 0 66 64" fill="none" xmlns="http://www.w3.org/2000/svg">
<path fill-rule="evenodd" clip-rule="evenodd" d="M34.0392 4.70414C36.5455 5.30058 38.9393 6.29431 41.1331 7.6451L45.7429 5.59777L51.1759 11.0308L49.1291 15.6391C50.4805 17.8333 51.4742 20.2279 52.0706 22.7349L56.7737 24.5451V32.2285L55.1824 32.841C54.2896 31.969 53.0701 31.4302 51.7284 31.4302H45.2743C45.4512 30.4425 45.5436 29.4255 45.5436 28.3868C45.5436 18.9114 37.8622 11.23 28.3867 11.23C18.9112 11.23 11.2298 18.9114 11.2298 28.3868C11.2298 37.6378 18.5519 45.1773 27.7166 45.5295V46.7925C27.7166 48.3262 28.3116 49.63 29.2939 50.6991V56.7736H24.545L22.7344 52.0694C20.228 51.473 17.8343 50.4792 15.6404 49.1285L11.0307 51.1759L5.59764 45.7429L7.64442 41.1345C6.29309 38.9404 5.29949 36.5455 4.70292 34.0386L0 32.2286V24.5452L4.70373 22.7347C5.30017 20.2282 6.29391 17.834 7.64496 15.6402L5.59777 11.031L11.0307 5.59777L15.6404 7.6451C17.8343 6.29431 20.228 5.30058 22.7344 4.70414L24.5452 0H32.2284L34.0392 4.70414ZM38.3489 39.1507V43.4666C38.3489 44.3819 39.0976 45.1307 40.0129 45.1307H55.168C56.0833 45.1307 56.832 44.3817 56.832 43.4666V39.1507H38.3489ZM44.3286 53.3106C44.3286 55.1121 45.789 56.5725 47.5905 56.5725C49.3921 56.5725 50.8525 55.1121 50.8525 53.3106C50.8525 51.5147 49.3978 50.0486 47.5905 50.0486C45.7833 50.0488 44.3286 51.5147 44.3286 53.3106ZM63.7104 49.7665C64.6423 49.0016 65.2881 48.0465 65.2881 46.7925V40.4779C65.2881 39.747 64.6918 39.1507 63.9608 39.1507H59.0084V43.4666C59.0084 45.5829 57.2844 47.3069 55.1681 47.3069H40.0129C37.8966 47.3069 36.1726 45.583 36.1726 43.4666V39.1507H31.2201C30.4891 39.1507 29.893 39.747 29.893 40.4779V46.7926C29.893 48.0463 30.5388 49.0016 31.4703 49.7664C34.0008 51.8432 39.0474 52.422 42.189 52.6788C42.5023 49.9739 44.8012 47.8725 47.5905 47.8725C50.3789 47.8725 52.6771 49.9726 52.9916 52.6761C56.1275 52.4187 61.1843 51.84 63.7104 49.7665ZM31.4703 52.3941V61.4097C31.4703 62.8343 32.636 64 34.0607 64H61.12C62.5447 64 63.7103 62.8343 63.7103 61.4097V52.3942C61.3837 53.6974 57.3259 54.526 52.7979 54.8806C52.124 57.1182 50.0472 58.7488 47.5904 58.7488C45.1335 58.7488 43.0568 57.1182 42.3827 54.8807C37.8552 54.5263 33.7975 53.6977 31.4703 52.3941ZM54.5003 36.9744V36.3785C54.5003 34.8539 53.253 33.6065 51.7284 33.6065H43.4529C41.9283 33.6065 40.6809 34.8539 40.6809 36.3785V36.9744H43.1349V36.3785C43.1349 36.2085 43.283 36.0605 43.453 36.0605H51.7286C51.8986 36.0605 52.0466 36.2085 52.0466 36.3785V36.9744H54.5003ZM18.4242 26.2911C17.2471 27.4682 17.2469 29.3945 18.4242 30.5716L23.132 35.2794C24.4628 36.6102 26.4702 37.2201 27.9709 35.7194L38.3498 25.3405C39.5269 24.1633 39.5269 22.2371 38.3498 21.06V21.0599C37.1727 19.8828 35.2464 19.8828 34.0692 21.0599L25.7715 29.3577L22.7047 26.291C21.5274 25.1137 19.6012 25.1139 18.4242 26.2911Z" fill="#FF4F38"/>
</svg>
