<svg width="48" height="40" viewBox="0 0 48 40" fill="none" xmlns="http://www.w3.org/2000/svg">
<path d="M35.6828 26.9628C35.3117 24.4414 34.0491 22.1364 32.1241 20.4662C30.199 18.7959 27.7391 17.871 25.1905 17.8591H22.8152C20.2666 17.871 17.8067 18.7959 15.8817 20.4662C13.9566 22.1364 12.694 24.4414 12.323 26.9628L11.1844 34.9236C11.1481 35.1809 11.1721 35.4431 11.2546 35.6896C11.3372 35.936 11.4759 36.1598 11.6599 36.3434C12.1064 36.7898 14.8456 39.0669 24.0051 39.0669C33.1646 39.0669 35.8971 36.7988 36.3502 36.3434C36.5343 36.1598 36.673 35.936 36.7555 35.6896C36.8381 35.4431 36.8621 35.1809 36.8257 34.9236L35.6828 26.9628Z" fill="#FF4F38"/>
<path d="M14.0883 19.0871C11.9307 21.0761 10.5269 23.7496 10.1146 26.6549L9.28862 32.3699C2.6584 32.3252 0.649246 29.9142 0.314387 29.4231C0.184948 29.2447 0.0925784 29.0421 0.0427329 28.8274C-0.00711253 28.6127 -0.0134226 28.3902 0.0241754 28.173L0.515302 25.4048C0.771185 23.9581 1.37214 22.5944 2.26723 21.4294C3.16231 20.2644 4.32512 19.3324 5.65706 18.7124C6.98901 18.0924 8.4508 17.8028 9.91852 17.868C11.3862 17.9332 12.8166 18.3514 14.0883 19.0871Z" fill="#FF4F38"/>
<path d="M47.9752 28.173C48.0128 28.3902 48.0065 28.6127 47.9567 28.8274C47.9068 29.0421 47.8145 29.2447 47.685 29.4231C47.3502 29.9142 45.341 32.3252 38.7108 32.3699L37.8848 26.6549C37.4725 23.7496 36.0687 21.0761 33.9111 19.0871C35.1828 18.3514 36.6132 17.9332 38.0809 17.868C39.5486 17.8028 41.0104 18.0924 42.3423 18.7124C43.6743 19.3324 44.8371 20.2644 45.7322 21.4294C46.6273 22.5944 47.2282 23.9581 47.4841 25.4048L47.9752 28.173Z" fill="#FF4F38"/>
<path d="M14.4689 14.1758C13.907 14.9727 13.1609 15.6223 12.2943 16.0692C11.4276 16.5162 10.4658 16.7473 9.49065 16.743C8.5179 16.743 7.55907 16.5119 6.69319 16.0686C5.8273 15.6253 5.07914 14.9827 4.51036 14.1935C3.94159 13.4044 3.56848 12.4914 3.42178 11.5298C3.27508 10.5681 3.35899 9.58541 3.6666 8.66258C3.97421 7.73975 4.49671 6.90323 5.19105 6.22195C5.88538 5.54067 6.73167 5.03413 7.66017 4.74409C8.58868 4.45405 9.57281 4.3888 10.5315 4.55372C11.4901 4.71864 12.3959 5.10901 13.1741 5.69266C12.9503 6.56799 12.8378 7.46805 12.8392 8.37154C12.8409 10.419 13.4046 12.4267 14.4689 14.1758Z" fill="#FF4F38"/>
<path d="M44.6486 10.6039C44.6492 11.4103 44.4908 12.2089 44.1825 12.954C43.8742 13.699 43.422 14.3761 42.8518 14.9462C42.2816 15.5164 41.6046 15.9686 40.8595 16.2769C40.1144 16.5852 39.3159 16.7436 38.5095 16.743C37.5343 16.7473 36.5726 16.5162 35.7059 16.0692C34.8392 15.6223 34.0932 14.9727 33.5312 14.1758C34.5955 12.4267 35.1592 10.419 35.1609 8.37154C35.1624 7.46805 35.0499 6.56799 34.826 5.69266C35.7381 5.0086 36.8227 4.59204 37.9582 4.48965C39.0937 4.38727 40.2352 4.6031 41.255 5.11297C42.2747 5.62284 43.1323 6.4066 43.7317 7.37642C44.3311 8.34625 44.6486 9.46383 44.6486 10.6039Z" fill="#FF4F38"/>
<path d="M24.0004 16.743C28.6238 16.743 32.3719 12.9949 32.3719 8.37148C32.3719 3.74804 28.6238 0 24.0004 0C19.3769 0 15.6289 3.74804 15.6289 8.37148C15.6289 12.9949 19.3769 16.743 24.0004 16.743Z" fill="#FF4F38"/>
</svg>
