<svg width="56" height="57" viewBox="0 0 56 57" fill="none" xmlns="http://www.w3.org/2000/svg">
<path d="M9.84375 20.4062C6.22442 20.4062 3.28125 17.4631 3.28125 13.8438C3.28125 10.2244 6.22442 7.28125 9.84375 7.28125C13.4631 7.28125 16.4062 10.2244 16.4062 13.8438C16.4062 17.4631 13.4631 20.4062 9.84375 20.4062Z" fill="#FFEC40"/>
<path d="M46.1562 20.4062C42.5369 20.4062 39.5938 17.4631 39.5938 13.8438C39.5938 10.2244 42.5369 7.28125 46.1562 7.28125C49.7756 7.28125 52.7188 10.2244 52.7188 13.8438C52.7188 17.4631 49.7756 20.4062 46.1562 20.4062Z" fill="#FFEC40"/>
<path d="M28 16.9062C23.477 16.9062 19.7969 13.2261 19.7969 8.70312C19.7969 4.18014 23.477 0.5 28 0.5C32.523 0.5 36.2031 4.18014 36.2031 8.70312C36.2031 13.2261 32.523 16.9062 28 16.9062Z" fill="#FFEC40"/>
<path d="M29.6406 17.072V28.3906C29.6406 29.2974 28.9068 30.0312 28 30.0312C27.0932 30.0312 26.3594 29.2974 26.3594 28.3906V17.072C20.8086 17.8767 16.5156 22.6205 16.5156 28.3906V38.2343C16.5156 39.1412 17.2494 39.875 18.1562 39.875H21.8317L23.0846 54.9972C23.155 55.8462 23.8664 56.5 24.7188 56.5H31.2812C32.1336 56.5 32.845 55.8462 32.9154 54.9972L34.1683 39.875H37.8438C38.7506 39.875 39.4844 39.1412 39.4844 38.2343V28.3906C39.4844 22.6205 35.1914 17.8767 29.6406 17.072Z" fill="#FFEC40"/>
<path d="M13.125 38.4531V28.6094C13.125 26.1502 13.7867 23.8649 14.8543 21.8235C13.3812 20.9442 11.6806 20.4062 9.84375 20.4062C4.41558 20.4062 0 24.8218 0 30.25V38.4531C0 39.36 0.733797 40.0938 1.64062 40.0938H3.43667L4.92986 55.0228C5.0132 55.8607 5.71977 56.5 6.5625 56.5H13.125C13.9677 56.5 14.6743 55.8607 14.7576 55.0228L15.9703 42.8993C14.2952 42.1133 13.125 40.4226 13.125 38.4531Z" fill="#FFEC40"/>
<path d="M55.9996 30.25C55.9996 24.8218 51.584 20.4062 46.1558 20.4062C44.319 20.4062 42.6184 20.9442 41.1453 21.8235C42.2129 23.8649 42.8746 26.1502 42.8746 28.6094V38.4531C42.8746 40.4226 41.7044 42.1133 40.0293 42.8993L41.2419 55.0228C41.3253 55.8607 42.0318 56.5 42.8746 56.5H49.4371C50.2798 56.5 50.9864 55.8607 51.0697 55.0228L52.5629 40.0938H54.359C55.2658 40.0938 55.9996 39.36 55.9996 38.4531V30.25Z" fill="#FFEC40"/>
</svg>
