<svg width="32" height="48" viewBox="0 0 32 48" fill="none" xmlns="http://www.w3.org/2000/svg">
<path d="M11.4177 13.2451L9.07576 20.453L15.209 15.997C15.5172 15.7756 15.9324 15.7756 16.2402 15.997L22.3735 20.453L20.0319 13.2451C19.9137 12.885 20.0405 12.49 20.3463 12.2665L26.4795 7.81059H18.8961C18.5193 7.8082 18.1854 7.56595 18.0662 7.20786L15.725 0L13.3834 7.20786C13.2638 7.56595 12.9303 7.8082 12.5531 7.81059H4.96973L11.103 12.2665C11.4091 12.49 11.5356 12.885 11.4177 13.2451Z" fill="#FF4F38"/>
<path d="M-0.000976562 45.3789H31.4515V48H-0.000976562V45.3789Z" fill="#FF4F38"/>
<path d="M24.0343 23.6152C23.8491 23.6169 23.6683 23.5585 23.519 23.4495L18.3554 19.6927L6.11523 28.3595V43.6315H25.3364V14.7389L22.9163 16.46L24.8645 22.4712C24.951 22.7371 24.9049 23.0282 24.7409 23.2547C24.5769 23.4813 24.3141 23.6152 24.0343 23.6152Z" fill="#FF4F38"/>
</svg>
