<svg width="37" height="40" viewBox="0 0 37 40" fill="none" xmlns="http://www.w3.org/2000/svg">
<path d="M6.8859 35.0391L4.92932 38.0497C4.55062 38.6367 4.71473 39.4193 5.30171 39.798C5.51631 39.9369 5.74988 40 5.98967 40C6.40621 40 6.81022 39.798 7.05001 39.4257L8.96242 36.4844C11.7016 38.1128 14.8953 39.0533 18.3035 39.0533C21.7181 39.0533 24.9117 38.1129 27.6447 36.4782L29.5508 39.4194C29.7905 39.7918 30.2009 39.9938 30.6111 39.9938C30.8447 39.9938 31.0845 39.9306 31.2991 39.7918C31.886 39.4131 32.0502 38.6305 31.6714 38.0435L29.7212 35.0329C33.9121 31.6815 36.6071 26.5249 36.6071 20.7498C36.6071 10.6576 28.3958 2.44629 18.3035 2.44629C8.21133 2.44629 0 10.6575 0 20.7497C0 26.5248 2.69502 31.6814 6.8859 35.0391ZM18.3035 4.97077C27.0072 4.97077 34.0825 12.0461 34.0825 20.7497C34.0825 29.4534 27.0072 36.5287 18.3035 36.5287C9.59989 36.5287 2.52458 29.4534 2.52458 20.7497C2.52458 12.0461 9.59989 4.97077 18.3035 4.97077Z" fill="#FF4F38"/>
<path d="M22.5195 26.121C22.7593 26.3292 23.056 26.4302 23.3526 26.4302C23.706 26.4302 24.0532 26.2851 24.3056 26.001C24.7663 25.4772 24.7095 24.6819 24.1857 24.2212L19.5656 20.1755V10.0201C19.5656 9.32582 18.9976 8.75781 18.3033 8.75781C17.609 8.75781 17.041 9.32582 17.041 10.0201V20.7498C17.041 21.1159 17.1988 21.463 17.4702 21.7028L22.5195 26.121Z" fill="#FF4F38"/>
<path d="M2.52446 6.56761C2.85268 6.56761 3.1809 6.44134 3.42701 6.1889C4.9292 4.6552 6.63333 3.37394 8.48261 2.37673C9.09478 2.04851 9.32835 1.28487 9.00013 0.66627C8.67191 0.0540969 7.90827 -0.179473 7.28967 0.148748C5.20693 1.2659 3.30085 2.69863 1.61568 4.42174C1.12968 4.92039 1.136 5.72187 1.63466 6.20787C1.88699 6.44777 2.20888 6.56761 2.52446 6.56761Z" fill="#FF4F38"/>
<path d="M28.1247 2.37663C29.9803 3.36751 31.6781 4.6551 33.1803 6.1888C33.4264 6.44123 33.7546 6.56751 34.0828 6.56751C34.3984 6.56751 34.7203 6.44756 34.9664 6.20777C35.4651 5.72176 35.4713 4.92018 34.9854 4.42163C33.3066 2.70485 31.3942 1.2658 29.3113 0.148748C28.6928 -0.179473 27.9291 0.0540969 27.6008 0.66627C27.2789 1.28477 27.5062 2.0484 28.1247 2.37663Z" fill="#FF4F38"/>
</svg>
