<svg width="41" height="48" viewBox="0 0 41 48" fill="none" xmlns="http://www.w3.org/2000/svg">
<path d="M11.0419 42.9881V45.8691H1.1025C0.496875 45.8691 0 45.375 0 44.7684V40.8562C0 37.9809 1.92375 35.5331 4.54688 34.7362L7.16156 39.2644C7.24125 39.405 7.37906 39.4847 7.54125 39.4847C7.70063 39.4847 7.83844 39.405 7.92094 39.2644L10.5356 34.7362C11.8406 35.1319 12.975 35.94 13.7831 37.0059C12.1078 38.4628 11.0419 40.6069 11.0419 42.9881ZM35.6663 34.7372L33.0516 39.2653C32.9719 39.4059 32.8341 39.4856 32.6719 39.4856C32.5125 39.4856 32.3747 39.4059 32.2922 39.2653L29.6775 34.7372C28.3725 35.1328 27.2381 35.9409 26.43 37.0069C28.1072 38.4628 29.1722 40.6078 29.1722 42.9891V45.87H39.1116C39.7172 45.87 40.2141 45.3759 40.2141 44.7694V40.8572C40.2131 37.9819 38.2894 35.5341 35.6663 34.7372ZM28.4034 28.0716C28.4034 30.4209 30.3225 32.3391 32.6709 32.3391C35.0231 32.3391 36.9384 30.42 36.9384 28.0716C36.9384 25.7194 35.0222 23.8041 32.6709 23.8041C30.3216 23.8041 28.4034 25.7203 28.4034 28.0716ZM7.54219 32.34C9.89156 32.34 11.8097 30.4209 11.8097 28.0725C11.8097 25.7203 9.89063 23.805 7.54219 23.805C5.19 23.805 3.27469 25.7213 3.27469 28.0725C3.27375 30.4209 5.19 32.34 7.54219 32.34ZM23.1019 36.8681L20.4872 41.3991C20.4075 41.5369 20.2697 41.6166 20.1075 41.6166C19.9453 41.6166 19.8075 41.5369 19.7278 41.3991L17.1131 36.8681C14.49 37.6678 12.5691 40.1156 12.5691 42.9881V46.9003C12.5691 47.5059 13.0631 48.0028 13.6697 48.0028H26.5481C27.1538 48.0028 27.6488 47.5059 27.6488 46.9003V42.9881C27.6459 40.1156 25.7241 37.6678 23.1019 36.8681ZM20.1066 25.935C17.7572 25.935 15.8391 27.8541 15.8391 30.2025C15.8391 32.5547 17.7581 34.47 20.1066 34.47C22.4588 34.47 24.3741 32.5537 24.3741 30.2025C24.3741 27.8541 22.4588 25.935 20.1066 25.935ZM12.0413 13.8009L15.8147 16.53C16.0988 16.7372 16.2103 17.0878 16.1016 17.4206L14.6559 21.8456C14.5472 22.1803 14.6616 22.5281 14.9428 22.7362C15.2269 22.9406 15.5934 22.9406 15.8784 22.7334L19.6388 19.9913C19.9228 19.7841 20.2894 19.7841 20.5744 19.9913L24.3347 22.7334C24.6188 22.9406 24.9853 22.9406 25.2703 22.7362C25.5544 22.5291 25.6659 22.1812 25.5572 21.8456L24.1116 17.4206C24.0028 17.0888 24.1172 16.7372 24.4013 16.53L28.1719 13.8009C28.4559 13.5966 28.5675 13.2478 28.4616 12.9131C28.3528 12.5813 28.0547 12.3656 27.7041 12.3656L23.0484 12.3731C22.6978 12.3731 22.3997 12.1575 22.2909 11.8228L20.8612 7.39312C20.7553 7.06125 20.4572 6.84281 20.1066 6.84281C19.7559 6.84281 19.4578 7.06031 19.3519 7.39312L17.9222 11.8237C17.8134 12.1584 17.5153 12.3741 17.1647 12.3741L12.5091 12.3666C12.1584 12.3666 11.8603 12.5822 11.7516 12.9141C11.6447 13.2487 11.7591 13.5966 12.0413 13.8009ZM20.1066 4.545C20.5266 4.545 20.8697 4.20188 20.8697 3.78188V0.763125C20.8697 0.343125 20.5266 0 20.1066 0C19.6866 0 19.3434 0.343125 19.3434 0.763125V3.78188C19.3434 4.20188 19.6866 4.545 20.1066 4.545ZM25.2703 5.92406C25.6341 6.13406 26.0991 6.00938 26.3072 5.64469L27.8166 3.03C28.0266 2.66812 27.8991 2.20312 27.5372 1.99594C27.1734 1.78594 26.7103 1.91062 26.5003 2.27531L24.9909 4.88719C24.7838 5.25187 24.9084 5.71688 25.2703 5.92406ZM30.0853 9.9825L32.6972 8.47312C33.0609 8.26312 33.1866 7.80094 32.9784 7.43625C32.7684 7.07531 32.3034 6.94687 31.9416 7.15687L29.3269 8.66625C28.9631 8.87344 28.8375 9.33844 29.0475 9.70312C29.2566 10.065 29.7216 10.1925 30.0853 9.9825ZM13.9069 5.64844C14.1169 6.01219 14.5819 6.135 14.9456 5.925C15.3075 5.715 15.4322 5.25 15.2222 4.88625L13.7128 2.27437C13.5028 1.91062 13.0378 1.785 12.6741 1.99781C12.3103 2.20781 12.1875 2.67281 12.3975 3.03469L13.9069 5.64844ZM7.515 8.47312L10.1269 9.9825C10.4906 10.1925 10.9556 10.065 11.1638 9.70312C11.3738 9.33937 11.2491 8.87437 10.8844 8.66625L8.26969 7.15687C7.90781 6.94687 7.44281 7.07438 7.23281 7.43625C7.02656 7.80094 7.15125 8.26312 7.515 8.47312Z" fill="#13182B"/>
</svg>
