<svg width="57" height="48" viewBox="0 0 57 48" fill="none" xmlns="http://www.w3.org/2000/svg">
<path d="M25.9745 13.6058C26.4245 14.2912 27.0683 15.2193 28 15.2193H28.479C29.3572 15.2193 30.0408 14.3202 30.4836 13.6601C31.0268 12.8489 31.3781 11.909 31.5003 10.9402C31.6534 9.72878 31.6733 8.32084 30.9381 7.28232C30.3233 6.41402 29.3065 5.88525 28.2417 5.88525C27.1625 5.88525 26.1638 6.43304 25.5481 7.31311C24.7993 8.38241 24.8346 9.69528 24.984 10.9393C25.0972 11.8801 25.4485 12.8054 25.9745 13.6058Z" fill="#13182B"/>
<path d="M27.0562 22.7545C27.0562 22.7545 27.4989 19.1971 27.4998 19.1907C27.5759 18.5796 26.637 18.0906 27.0046 17.4559C27.2074 17.1046 27.3966 16.5351 27.8828 16.5351H28.599C29.078 16.5351 29.2754 17.1064 29.4773 17.4559C29.8476 18.0979 28.9059 18.5786 28.982 19.1907L29.4257 22.7572L31.2193 16.2734C33.6549 17.398 35.3462 19.8653 35.3462 22.7282V26.3436C35.3462 27.9244 34.2959 28.9946 33.3443 30.121V46.0483C33.3443 48.4078 29.8367 48.7447 29.5271 46.3896L28.2405 35.0474C28.2405 35.0474 26.9539 46.3779 26.9529 46.3896C26.6913 48.6976 23.1357 48.4459 23.1357 46.1416V30.121C22.1714 28.9792 21.1338 27.9389 21.1338 26.3436V22.9681C21.1338 20.0826 22.8016 17.4677 25.2689 16.2888L27.0562 22.7545Z" fill="#13182B"/>
<path d="M49.2286 5.97489C49.5772 6.50547 50.0752 7.22347 50.7968 7.22347H51.1671C51.8462 7.22347 52.3759 6.5281 52.7181 6.01654C53.1392 5.38908 53.4108 4.66112 53.505 3.91143C53.6236 2.97341 53.639 1.88419 53.0694 1.08108C52.5941 0.409251 51.8064 0 50.9833 0C50.1476 0 49.3753 0.423738 48.8991 1.10552C48.3196 1.93308 48.3468 2.94896 48.4626 3.91143C48.5496 4.63939 48.8221 5.35558 49.2286 5.97489Z" fill="#13182B"/>
<path d="M56.4808 13.0299V15.8277C56.4808 17.059 55.6659 17.883 54.9325 18.7522V31.0841C54.9325 32.904 52.2162 33.1665 51.9808 31.3466L50.9848 22.564C50.9848 22.564 49.9889 31.3376 49.9889 31.3466C49.7806 33.1303 47.0281 32.9402 47.0281 31.1565V26.6203C47.8883 25.6062 48.839 24.3296 48.839 22.5006V19.1415C48.839 16.4886 47.5804 14.0259 45.5342 12.4504C45.7877 10.5309 47.001 8.8559 48.6851 8.05007L50.0613 13.0571C50.0613 13.0571 50.4054 10.3046 50.4054 10.2955C50.4687 9.8247 49.7444 9.44442 50.0251 8.95549C50.179 8.68387 50.3239 8.24021 50.7042 8.24021H51.2565C51.6277 8.24021 51.7816 8.68387 51.9355 8.95549C52.2253 9.45348 51.5009 9.8247 51.5552 10.2955L51.8993 13.0571L53.2846 8.04102C55.1769 8.91022 56.4808 10.8207 56.4808 13.0299Z" fill="#13182B"/>
<path d="M3.74524 5.97489C4.09382 6.50547 4.59181 7.22347 5.31343 7.22347H5.68375C6.36282 7.22347 6.89249 6.5281 7.23474 6.01654C7.65576 5.38908 7.92739 4.66112 8.02155 3.91143C8.14016 2.97432 8.15555 1.88509 7.58604 1.08108C7.1107 0.409251 6.32388 0 5.49995 0C4.66424 0 3.89191 0.423738 3.41566 1.10552C2.83619 1.93308 2.86335 2.94896 2.97925 3.91143C3.06617 4.63939 3.3387 5.35558 3.74524 5.97489Z" fill="#13182B"/>
<path d="M7.64178 19.3598V22.5016C7.64178 24.3487 8.59247 25.6163 9.45262 26.6213V31.085C9.45262 32.9049 6.73635 33.1675 6.49189 31.3476L5.49592 22.565C5.49592 22.565 4.49996 31.3385 4.49996 31.3476C4.30076 33.1313 1.54827 32.9411 1.54827 31.1575V18.7532C0.805827 17.8749 0 17.0691 0 15.8286V13.221C0 10.9846 1.2857 8.96552 3.19615 8.05105L4.58144 13.058C4.58144 13.058 4.92551 10.3056 4.92551 10.2965C4.97983 9.82568 4.25549 9.4454 4.54523 8.95647C4.69915 8.68484 4.84402 8.24119 5.2243 8.24119H5.7766C6.14783 8.24119 6.30175 8.68484 6.45567 8.95647C6.74541 9.45445 6.01201 9.82568 6.07539 10.2965L6.41946 13.058L7.80475 8.04199C9.52506 8.83877 10.7745 10.5047 10.9647 12.4786C8.90032 14.0984 7.64178 16.6345 7.64178 19.3598Z" fill="#13182B"/>
<path d="M13.9496 10.6568C14.3679 11.2942 14.9664 12.1562 15.8329 12.1562H16.2775C17.0933 12.1562 17.7298 11.3205 18.1409 10.7066C18.6461 9.95237 18.9729 9.07863 19.0861 8.17774C19.2283 7.05139 19.2464 5.74305 18.5637 4.77787C17.9924 3.97023 17.0471 3.47949 16.0575 3.47949C15.0543 3.47949 14.1262 3.98925 13.5531 4.80684C12.8577 5.801 12.8894 7.0206 13.0288 8.17774C13.1348 9.05238 13.4616 9.91343 13.9496 10.6568Z" fill="#13182B"/>
<path d="M19.0025 26.3405C19.0025 28.2618 19.9206 29.6 20.8034 30.6748V40.8164C20.8034 43.0085 17.5439 43.3217 17.2523 41.1297L16.0562 30.5888C16.0562 30.5888 14.8602 41.1225 14.8602 41.1297C14.6184 43.2792 11.3091 43.0447 11.3091 40.9015V26.0127C10.4127 24.9453 9.45117 23.9846 9.45117 22.497V19.3579C9.45117 16.6751 11.0031 14.2477 13.2947 13.1512L14.9534 19.1578C14.9534 19.1578 15.3663 15.8557 15.3663 15.8485C15.4378 15.279 14.5695 14.8235 14.9109 14.2332C15.0956 13.9054 15.274 13.3794 15.7221 13.3794H16.3912C16.8322 13.3794 17.0178 13.9136 17.2097 14.2332C17.5511 14.8308 16.6755 15.279 16.7471 15.8485L17.1599 19.165L18.825 13.1367C20.1488 13.7488 21.2307 14.781 21.9071 16.0694C20.0926 17.8341 19.0034 20.3258 19.0034 22.966L19.0025 26.3405Z" fill="#13182B"/>
<path d="M38.3168 10.6568C38.7351 11.2942 39.3336 12.1562 40.2001 12.1562H40.6447C41.4605 12.1562 42.097 11.3205 42.508 10.7066C43.0133 9.95237 43.3401 9.07863 43.4533 8.17774C43.5955 7.05139 43.6136 5.74305 42.9309 4.77787C42.3595 3.97023 41.4143 3.47949 40.4247 3.47949C39.4214 3.47949 38.4934 3.98925 37.9203 4.80684C37.2249 5.801 37.2566 7.0206 37.396 8.17774C37.501 9.05238 37.8288 9.91343 38.3168 10.6568Z" fill="#13182B"/>
<path d="M47.0294 19.1379V22.4971C47.0294 23.9702 46.0543 24.9598 45.1715 26.0128V40.8165C45.1715 43.0085 41.9047 43.3218 41.6204 41.1298L40.4243 30.5888C40.4243 30.5888 39.2283 41.1225 39.2283 41.1298C38.9793 43.2793 35.6772 43.0447 35.6772 40.9016V30.6749C36.5672 29.5929 37.4781 28.2483 37.4781 26.3406V22.7252C37.4781 20.1774 36.4178 17.7789 34.6387 16.0704C35.3223 14.8037 36.3753 13.7715 37.6637 13.1522L39.3224 19.1588C39.3224 19.1588 39.7353 15.8567 39.7353 15.8494C39.8068 15.2799 38.9313 14.8245 39.2726 14.2342C39.4646 13.9064 39.6429 13.3803 40.0911 13.3803H40.7602C41.2012 13.3803 41.3868 13.9145 41.5715 14.2342C41.9201 14.8317 41.0445 15.2799 41.1161 15.8494L41.5289 19.166L43.194 13.1377C45.4567 14.1844 47.0294 16.476 47.0294 19.1379Z" fill="#13182B"/>
</svg>
