<svg width="48" height="48" viewBox="0 0 48 48" fill="none" xmlns="http://www.w3.org/2000/svg">
<path d="M35.2044 45.6C35.2037 46.2363 34.9506 46.8464 34.5007 47.2963C34.0508 47.7462 33.4407 47.9993 32.8044 48H15.2044C14.5679 48 13.9575 47.7471 13.5074 47.2971C13.0573 46.847 12.8044 46.2365 12.8044 45.6C12.8044 44.9635 13.0573 44.353 13.5074 43.9029C13.9575 43.4529 14.5679 43.2 15.2044 43.2H32.8044C33.4407 43.2007 34.0508 43.4538 34.5007 43.9037C34.9506 44.3536 35.2037 44.9637 35.2044 45.6ZM37.6044 4.65257V18.7691C37.6044 22.3761 36.1716 25.8353 33.6211 28.3858C31.0706 30.9363 27.6114 32.3691 24.0044 32.3691C20.3975 32.3691 16.9383 30.9363 14.3878 28.3858C11.8373 25.8353 10.4044 22.3761 10.4044 18.7691V4.65257C9.87087 4.46493 9.42097 4.09444 9.13448 3.60679C8.84798 3.11913 8.74339 2.54578 8.83923 1.98838C8.93508 1.43097 9.22517 0.925491 9.6581 0.561536C10.091 0.197581 10.6388 -0.0013481 11.2044 6.87652e-06H36.8044C37.37 -0.0013481 37.9178 0.197581 38.3507 0.561536C38.7837 0.925491 39.0738 1.43097 39.1696 1.98838C39.2655 2.54578 39.1609 3.11913 38.8744 3.60679C38.5879 4.09444 38.138 4.46493 37.6044 4.65257ZM32.1521 14.1527C32.0999 13.992 31.9981 13.852 31.8614 13.7527C31.7247 13.6534 31.5601 13.6 31.3911 13.6H26.3295L24.7654 8.78633C24.7132 8.62557 24.6115 8.48545 24.4748 8.38608C24.3381 8.28671 24.1734 8.23319 24.0044 8.23319C23.8354 8.23319 23.6707 8.28671 23.534 8.38608C23.3973 8.48545 23.2956 8.62557 23.2435 8.78633L21.6795 13.6H16.6181C16.4491 13.6 16.2845 13.6534 16.1478 13.7527C16.0111 13.852 15.9093 13.9921 15.8571 14.1528C15.8049 14.3135 15.8049 14.4866 15.8571 14.6473C15.9093 14.808 16.0111 14.948 16.1478 15.0473L20.2423 18.0222L18.6783 22.8359C18.626 22.9966 18.6259 23.1698 18.6781 23.3305C18.7303 23.4912 18.8321 23.6313 18.9688 23.7306C19.1055 23.83 19.2701 23.8835 19.4391 23.8834C19.6081 23.8834 19.7728 23.8299 19.9095 23.7305L24.0044 20.755L28.099 23.7305C28.2357 23.8299 28.4003 23.8834 28.5693 23.8834C28.7383 23.8835 28.903 23.83 29.0397 23.7306C29.1764 23.6313 29.2781 23.4912 29.3303 23.3305C29.3825 23.1698 29.3825 22.9966 29.3302 22.8359L27.7661 18.0222L31.8615 15.0473C31.9982 14.948 32.0999 14.8079 32.1521 14.6472C32.2043 14.4865 32.2043 14.3134 32.1521 14.1527ZM24.0044 33.9691C22.9285 33.9676 21.8558 33.8518 20.8044 33.6235V35.2H27.2044V33.6235C26.153 33.8518 25.0803 33.9676 24.0044 33.9691ZM32.8044 39.2V41.6H15.2044V39.2C15.2044 38.5635 15.4573 37.953 15.9074 37.5029C16.3575 37.0529 16.9679 36.8 17.6044 36.8H30.4044C31.0409 36.8 31.6514 37.0529 32.1015 37.5029C32.5516 37.953 32.8044 38.5635 32.8044 39.2ZM28.8044 39.2C28.8044 38.9878 28.7201 38.7843 28.5701 38.6343C28.4201 38.4843 28.2166 38.4 28.0044 38.4H20.0044C19.7922 38.4 19.5888 38.4843 19.4387 38.6343C19.2887 38.7843 19.2044 38.9878 19.2044 39.2C19.2044 39.4122 19.2887 39.6157 19.4387 39.7657C19.5888 39.9157 19.7922 40 20.0044 40H28.0044C28.2166 40 28.4201 39.9157 28.5701 39.7657C28.7201 39.6157 28.8044 39.4122 28.8044 39.2ZM46.0005 5.60001H39.2044V8.80001H42.454C42.6793 8.81242 42.8995 8.87199 43.1003 8.97487C43.3011 9.07775 43.4781 9.22165 43.6198 9.39724C43.7615 9.57284 43.8647 9.77623 43.9228 9.99425C43.9809 10.2123 43.9926 10.4401 43.9571 10.6629C43.1467 16.0745 41.0086 18.6309 39.1502 19.8397C39.0408 21.4595 38.6707 23.0511 38.0542 24.553C39.0866 24.2417 40.0651 23.7737 40.9556 23.1656C44.6505 20.5984 47.0154 15.5238 47.9849 8.08321C48.0295 7.78805 48.0127 7.48686 47.9353 7.19855C47.858 6.91023 47.7219 6.64102 47.5355 6.40783C47.3492 6.17463 47.1166 5.98249 46.8524 5.84348C46.5883 5.70446 46.2982 5.62157 46.0005 5.60001ZM8.85866 19.84C7.00026 18.6314 4.86218 16.0748 4.0517 10.6632C4.01617 10.4404 4.02783 10.2125 4.08592 9.99447C4.14401 9.77642 4.24725 9.57299 4.38894 9.39735C4.53063 9.22172 4.70762 9.07779 4.90846 8.97489C5.1093 8.87199 5.3295 8.81241 5.55482 8.80001H8.80442V5.60001H2.00834C1.71065 5.62162 1.42064 5.70455 1.15653 5.84359C0.892417 5.98263 0.659905 6.17478 0.473595 6.40797C0.287285 6.64115 0.151202 6.91035 0.0738909 7.19864C-0.00342011 7.48692 -0.0202889 7.78809 0.0243441 8.08321C0.993864 15.5238 3.35874 20.5984 7.05362 23.1656C7.94401 23.7737 8.9224 24.2416 9.95466 24.553C9.33815 23.0512 8.96805 21.4598 8.85866 19.84Z" fill="#13182B"/>
</svg>
