<svg width="48" height="48" viewBox="0 0 48 48" fill="none" xmlns="http://www.w3.org/2000/svg">
<g clip-path="url(#clip0_262_1520)">
<path d="M28.6139 16.1356L28.2856 19.0524C28.2664 19.2312 28.3295 19.4091 28.457 19.5359C28.5836 19.6682 28.7658 19.732 28.9473 19.7073L31.8701 19.3747C31.9284 19.3678 31.979 19.3404 32.0347 19.3284L28.6584 15.9521C28.64 16.0124 28.6251 16.0736 28.6139 16.1356Z" fill="#13182B"/>
<path d="M29.6934 14.5713L39.0317 5.233L42.7809 8.98226L33.4426 18.3206L29.6934 14.5713Z" fill="#13182B"/>
<path d="M40.2393 4.01025L41.5094 2.74012L45.2568 6.48755L43.9867 7.75768L40.2393 4.01025Z" fill="#13182B"/>
<path d="M47.7306 4.01653C47.9016 3.8515 47.9985 3.62419 47.9989 3.38657C47.9993 3.14524 47.9026 2.91392 47.7306 2.74456L45.256 0.269118C45.0874 0.0970807 44.8567 0.000157471 44.6158 0C44.3797 0.000866089 44.1539 0.0966083 43.9892 0.265732L42.7275 1.52487L46.4749 5.2722L47.7306 4.01653Z" fill="#13182B"/>
<path d="M5.14276 35.9994H6.85699C7.33034 35.9994 7.7141 35.6156 7.7141 35.1423V0.857113C7.71418 0.383756 7.33042 0 6.85699 0H5.14276C2.30364 0.00283447 0.00283447 2.30364 0 5.14276V38.3256C1.29976 36.8465 3.17367 35.9988 5.14276 35.9994Z" fill="#13182B"/>
<path d="M5.39133 47.9994H47.1421C47.6155 47.9994 47.9992 47.6156 47.9992 47.1423V12.8571C47.9992 12.3838 47.6155 12 47.1421 12H42.1707L34.0331 20.1427C33.499 20.6666 32.8051 20.9969 32.0618 21.0813C29.1689 21.4061 29.1424 21.4284 28.8921 21.4284H16.2855V30.8568H36.8566V26.5712C36.8566 26.0978 37.2403 25.714 37.7137 25.714C38.1871 25.714 38.5708 26.0978 38.5708 26.5712V39.4281C38.5708 40.3749 37.8033 41.1423 36.8566 41.1423H19.7139C19.2406 41.1423 18.8568 40.7586 18.8568 40.2852C18.8568 39.8119 19.2406 39.4281 19.7139 39.4281H25.7138V32.571H16.2855V44.5709C16.2855 45.0442 15.9017 45.428 15.4284 45.428C14.955 45.428 14.5712 45.0442 14.5712 44.5709V21.4284H11.9998C11.5265 21.4284 11.1427 21.0446 11.1427 20.5713C11.1427 20.0979 11.5265 19.7142 11.9998 19.7142H26.6644C26.5851 19.4394 26.558 19.1521 26.5848 18.8673L26.9096 15.9471C26.9932 15.1881 27.3366 14.4813 27.8816 13.9466L29.8282 12H9.4284V35.1425C9.4284 36.5626 8.27714 37.7139 6.85699 37.7139H5.14276C2.30364 37.7167 0.00283447 40.0175 0 42.8566V43.0452C0.191327 45.8687 2.56173 48.0469 5.39133 47.9994Z" fill="#13182B"/>
<path d="M27.4277 32.5708H36.8561V39.4279H27.4277V32.5708Z" fill="#13182B"/>
</g>
<defs>
<clipPath id="clip0_262_1520">
<rect width="48" height="48" fill="white"/>
</clipPath>
</defs>
</svg>
