<svg width="73" height="64" viewBox="0 0 73 64" fill="none" xmlns="http://www.w3.org/2000/svg">
<path d="M66.6013 17.0791H62.1337C58.334 8.05697 49.9671 1.50042 40.3349 0.248201C30.7894 -1.02435 21.4107 2.6497 15.2749 10.0456C13.4711 12.22 12.0403 14.5839 10.9927 17.0791H6.59947C3.07131 17.0791 0.201172 19.9493 0.201172 23.4774V32.0085C0.201172 35.5367 3.07131 38.4068 6.59947 38.4068H15.3582L14.4418 35.6096C11.7737 27.4617 13.2755 19.1368 18.5595 12.7698C23.7519 6.511 31.6809 3.41394 39.7809 4.4762C48.3471 5.59206 55.7826 11.6501 58.7287 19.9137L58.7466 19.9616C59.2215 21.2238 59.5548 22.5214 59.7463 23.8565C60.3857 27.8451 60.0213 31.8876 58.6946 35.5472L58.6852 35.5726C55.392 44.9226 46.5348 51.2034 36.642 51.2034C33.0908 51.2034 30.2021 54.0735 30.2021 57.6017C30.2021 61.1299 33.0722 64 36.6004 64C40.1285 64 42.9987 61.1299 42.9987 57.6017V54.7253C51.5147 52.7012 58.6677 46.6644 62.1059 38.4067H66.6013C70.1295 38.4067 72.9996 35.5365 72.9996 32.0084V23.4773C72.9996 19.9491 70.1295 17.0791 66.6013 17.0791Z" fill="#FFEC40"/>
<path d="M17.4053 42.6721V46.9376H36.6002C47.1848 46.9376 55.7951 38.3274 55.7951 27.7428C55.7951 17.1581 47.1848 8.54785 36.6002 8.54785C26.0155 8.54785 17.4053 17.1581 17.4053 27.7428C17.4053 32.0583 18.8548 36.228 21.5042 39.6001C20.9897 41.3974 19.3485 42.6721 17.4053 42.6721ZM42.9985 25.61H47.264V29.8755H42.9985V25.61ZM34.4674 25.61H38.7329V29.8755H34.4674V25.61ZM25.9363 25.61H30.2019V29.8755H25.9363V25.61Z" fill="#FFEC40"/>
</svg>
