<svg width="73" height="64" viewBox="0 0 73 64" fill="none" xmlns="http://www.w3.org/2000/svg">
<path d="M66.6018 17.0791H62.1342C58.3345 8.05697 49.9676 1.50042 40.3353 0.248201C30.7899 -1.02435 21.4112 2.6497 15.2753 10.0456C13.4716 12.22 12.0408 14.5839 10.9932 17.0791H6.59996C3.07179 17.0791 0.20166 19.9493 0.20166 23.4774V32.0085C0.20166 35.5367 3.07179 38.4068 6.59996 38.4068H15.3587L14.4423 35.6096C11.7742 27.4617 13.2759 19.1368 18.5599 12.7698C23.7524 6.511 31.6814 3.41394 39.7814 4.4762C48.3476 5.59206 55.7831 11.6501 58.7292 19.9137L58.7471 19.9616C59.222 21.2238 59.5553 22.5214 59.7468 23.8565C60.3862 27.8451 60.0218 31.8876 58.695 35.5472L58.6857 35.5726C55.3925 44.9226 46.5353 51.2034 36.6425 51.2034C33.0913 51.2034 30.2026 54.0735 30.2026 57.6017C30.2026 61.1299 33.0727 64 36.6009 64C40.129 64 42.9992 61.1299 42.9992 57.6017V54.7253C51.5152 52.7012 58.6682 46.6644 62.1063 38.4067H66.6018C70.13 38.4067 73.0001 35.5365 73.0001 32.0084V23.4773C73.0001 19.9491 70.13 17.0791 66.6018 17.0791Z" fill="#FF4F38"/>
<path d="M17.4062 42.6721V46.9376H36.6011C47.1858 46.9376 55.796 38.3274 55.796 27.7428C55.796 17.1581 47.1858 8.54785 36.6011 8.54785C26.0165 8.54785 17.4062 17.1581 17.4062 27.7428C17.4062 32.0583 18.8558 36.228 21.5051 39.6001C20.9907 41.3974 19.3495 42.6721 17.4062 42.6721ZM42.9994 25.61H47.265V29.8755H42.9994V25.61ZM34.4684 25.61H38.7339V29.8755H34.4684V25.61ZM25.9373 25.61H30.2028V29.8755H25.9373V25.61Z" fill="#FF4F38"/>
</svg>
