<svg width="47" height="40" viewBox="0 0 47 40" fill="none" xmlns="http://www.w3.org/2000/svg">
<path d="M46.0144 0.160097C45.8114 -0.00362539 45.5357 -0.04508 45.2935 0.0510396L36.0739 3.71516C24.4005 8.35405 12.3297 13.151 0.456379 17.865C0.182597 17.9738 0.00201975 18.2377 1.53561e-05 18.5323C-0.00189793 18.827 0.175126 19.0933 0.447359 19.2056C3.93463 20.644 7.42273 22.0802 10.9108 23.5165L12.4585 24.1538L18.9911 39.5591C19.1054 39.8286 19.3691 40 19.6565 40C19.684 40 19.7116 39.9984 19.7394 39.9952C19.9473 39.9713 20.1275 39.8591 20.2437 39.6968C20.2497 39.6892 20.2566 39.6824 20.2624 39.6746L27.2686 30.2528C31.4335 31.9683 35.5983 33.6842 39.764 35.3978C39.8525 35.4342 39.9459 35.4522 40.0392 35.4522C40.1614 35.4522 40.2832 35.4212 40.3925 35.36C40.5852 35.2521 40.7181 35.0622 40.7532 34.844L41.5027 30.1904C43.0525 20.5682 44.6549 10.6184 46.2739 0.841225C46.3167 0.584116 46.2176 0.323819 46.0144 0.160097ZM2.651 18.5498C13.9878 14.0483 25.4782 9.48215 36.6078 5.05919L42.8536 2.57712C38.5146 5.43784 32.8549 9.29429 27.3581 13.0396C21.9189 16.7458 16.7737 20.2517 12.9303 22.7838L11.4616 22.1791C8.5246 20.9698 5.58762 19.7604 2.651 18.5498ZM28.1726 14.2349C32.3983 11.3556 36.7203 8.41072 40.4606 5.90568L21.2264 26.709C21.1318 26.8113 21.0689 26.9388 21.0449 27.0761L19.365 36.7357L13.9096 23.8708C17.7417 21.3424 22.815 17.8855 28.1726 14.2349ZM20.8903 36.4064L22.3153 28.2133C23.5063 28.704 24.6977 29.194 25.8888 29.6847L20.8903 36.4064ZM40.075 29.9606L39.4704 33.713C33.9774 31.453 28.4854 29.1908 22.9934 26.9283L44.3073 3.87569C42.8717 12.596 41.4525 21.4078 40.075 29.9606Z" fill="#FF4F38"/>
</svg>
