<svg width="40" height="40" viewBox="0 0 40 40" fill="none" xmlns="http://www.w3.org/2000/svg">
<path d="M31.5835 24.7784C30.7646 23.9257 29.7769 23.4698 28.73 23.4698C27.6916 23.4698 26.6955 23.9173 25.8428 24.7699L23.175 27.4293C22.9555 27.3111 22.736 27.2013 22.525 27.0916C22.221 26.9396 21.934 26.7961 21.6892 26.6441C19.1903 25.057 16.9193 22.9886 14.7412 20.3124C13.6859 18.9785 12.9767 17.8557 12.4618 16.716C13.154 16.0828 13.7957 15.4243 14.4204 14.7912C14.6568 14.5548 14.8931 14.31 15.1295 14.0736C16.9024 12.3007 16.9024 10.0044 15.1295 8.23151L12.8248 5.92677C12.5631 5.66506 12.2929 5.39491 12.0397 5.12476C11.5331 4.60133 11.0013 4.06103 10.4525 3.55449C9.63361 2.74403 8.6543 2.31348 7.62435 2.31348C6.59439 2.31348 5.5982 2.74403 4.75397 3.55449C4.74553 3.56293 4.74553 3.56293 4.73709 3.57138L1.86671 6.46708C0.786101 7.54769 0.169815 8.86468 0.0347387 10.3927C-0.167876 12.8579 0.55816 15.1542 1.11535 16.6569C2.483 20.3462 4.52603 23.7653 7.57369 27.4293C11.2714 31.8446 15.7205 35.3312 20.8027 37.7879C22.7445 38.7081 25.3362 39.7972 28.2319 39.9829C28.4092 39.9914 28.595 39.9998 28.7638 39.9998C30.714 39.9998 32.3518 39.2991 33.635 37.9061C33.6434 37.8892 33.6603 37.8808 33.6688 37.8639C34.1078 37.332 34.6143 36.8508 35.1462 36.3359C35.5092 35.9897 35.8806 35.6267 36.2437 35.2468C37.0795 34.3772 37.5185 33.3642 37.5185 32.3258C37.5185 31.2789 37.071 30.2743 36.2183 29.4301L31.5835 24.7784ZM34.6059 33.6681C34.5974 33.6765 34.5974 33.6681 34.6059 33.6681C34.2766 34.0227 33.9389 34.3435 33.5759 34.6981C33.0272 35.2215 32.47 35.7702 31.9465 36.3865C31.0939 37.2983 30.0892 37.7288 28.7723 37.7288C28.6456 37.7288 28.5105 37.7288 28.3839 37.7204C25.8766 37.56 23.5465 36.5807 21.7989 35.7449C17.0206 33.4317 12.8248 30.1477 9.33813 25.9856C6.45931 22.5158 4.53447 19.3078 3.25969 15.8633C2.47456 13.7612 2.18752 12.1234 2.31415 10.5785C2.39858 9.59072 2.77848 8.77182 3.47919 8.07111L6.358 5.19229C6.77168 4.80395 7.21067 4.59289 7.64123 4.59289C8.17309 4.59289 8.60365 4.9137 8.8738 5.18385C8.88225 5.19229 8.89069 5.20074 8.89913 5.20918C9.41411 5.69039 9.90376 6.18848 10.4187 6.72035C10.6805 6.9905 10.9506 7.26065 11.2208 7.53925L13.5255 9.84399C14.4204 10.7389 14.4204 11.5662 13.5255 12.4611C13.2807 12.7059 13.0443 12.9507 12.7995 13.1871C12.0903 13.9132 11.4149 14.5885 10.6805 15.247C10.6636 15.2639 10.6467 15.2724 10.6382 15.2893C9.9122 16.0153 10.0473 16.7244 10.1992 17.2057C10.2077 17.231 10.2161 17.2563 10.2246 17.2816C10.824 18.7337 11.6682 20.1014 12.9514 21.7307L12.9599 21.7392C15.2899 24.6095 17.7466 26.8467 20.4566 28.5605C20.8027 28.78 21.1573 28.9573 21.495 29.1262C21.7989 29.2781 22.086 29.4216 22.3308 29.5736C22.3646 29.5905 22.3983 29.6158 22.4321 29.6327C22.7191 29.7762 22.9893 29.8437 23.2679 29.8437C23.9686 29.8437 24.4076 29.4047 24.5511 29.2612L27.4384 26.374C27.7254 26.0869 28.1813 25.7408 28.7132 25.7408C29.2366 25.7408 29.6671 26.07 29.9288 26.3571C29.9373 26.3655 29.9373 26.3655 29.9457 26.374L34.5974 31.0257C35.467 31.8868 35.467 32.7732 34.6059 33.6681Z" fill="#FF4F38"/>
<path d="M21.588 9.51481C23.7999 9.88627 25.8092 10.9331 27.4132 12.5371C29.0172 14.1412 30.0556 16.1504 30.4355 18.3623C30.5284 18.9195 31.0096 19.3079 31.5584 19.3079C31.6259 19.3079 31.685 19.2994 31.7525 19.291C32.3773 19.1897 32.7909 18.5987 32.6896 17.974C32.2337 15.2978 30.9674 12.858 29.0341 10.9247C27.1008 8.99139 24.661 7.72505 21.9848 7.26916C21.3601 7.16786 20.7776 7.58153 20.6678 8.19782C20.5581 8.8141 20.9633 9.4135 21.588 9.51481Z" fill="#FF4F38"/>
<path d="M39.9244 17.6448C39.1731 13.238 37.0963 9.2279 33.9051 6.03672C30.7139 2.84554 26.7038 0.768738 22.2969 0.0173755C21.6807 -0.0923741 21.0981 0.32974 20.9884 0.946026C20.8871 1.57075 21.3008 2.15327 21.9255 2.26302C25.8596 2.92996 29.4476 4.7957 32.301 7.64075C35.1545 10.4942 37.0118 14.0822 37.6788 18.0163C37.7716 18.5735 38.2529 18.9618 38.8016 18.9618C38.8691 18.9618 38.9282 18.9534 38.9958 18.945C39.6121 18.8521 40.0342 18.2611 39.9244 17.6448Z" fill="#FF4F38"/>
</svg>
