<svg width="38" height="49" viewBox="0 0 38 49" fill="none" xmlns="http://www.w3.org/2000/svg">
<path fill-rule="evenodd" clip-rule="evenodd" d="M27.9227 28.7872H26.8124C26.5552 28.7872 26.3469 28.5788 26.3469 28.3216V26.9311C26.3469 26.6739 26.5552 26.4654 26.8124 26.4654H31.384C31.6399 26.4654 31.8482 26.6739 31.8482 26.9311V28.3216C31.8482 28.5788 31.6399 28.7872 31.384 28.7872H30.2725V30.3642C29.8872 30.3174 29.4951 30.2933 29.0976 30.2933C28.7 30.2933 28.308 30.3174 27.9227 30.3642V28.7872ZM29.5824 8.61836V25.1079H26.8124C25.8054 25.1079 24.9893 25.9241 24.9893 26.9311V28.3216C24.9893 29.2448 25.6752 30.0075 26.5651 30.1282V30.3642C26.5651 30.4516 26.5736 30.538 26.5899 30.6224C25.7572 30.8457 24.968 31.1774 24.2385 31.6012C24.1906 31.5308 24.1359 31.4643 24.0746 31.403L23.1863 30.5155C22.4753 29.8045 21.32 29.8045 20.6087 30.5159L19.6056 31.5189C18.8943 32.2303 18.8943 33.3856 19.6056 34.097L19.606 34.0973L20.4944 34.985C20.5554 35.046 20.6217 35.1005 20.692 35.1482C19.8608 36.579 19.3842 38.2395 19.3842 40.0078C19.3842 40.8879 19.5024 41.7415 19.7236 42.5532H0.845091C0.620994 42.5532 0.406012 42.4642 0.247564 42.3056C0.0891153 42.1472 0 41.9322 0 41.7081V2.55368C0 2.08697 0.378375 1.70859 0.845091 1.70859H22.6747L22.6448 7.50854V7.51165C22.6443 8.14049 23.1499 8.65269 23.7787 8.66054C23.7832 8.66064 23.7876 8.66064 23.7921 8.66064L29.5824 8.61836ZM23.1179 21.7009C24.194 21.7009 25.0607 20.8308 25.0607 19.7581V17.976C25.0607 16.9033 24.194 16.0332 23.1179 16.0332C22.5709 16.0332 22.2962 15.3704 22.6831 14.9835C23.4416 14.2251 23.4416 12.9947 22.6831 12.2362L21.4235 10.9756L21.4231 10.9752C20.6653 10.2174 19.4326 10.2174 18.6748 10.9752C18.2879 11.3621 17.6251 11.0878 17.6251 10.5405C17.6251 9.46772 16.755 8.59761 15.6822 8.59761H13.9002C12.8274 8.59761 11.9573 9.46772 11.9573 10.5405C11.9573 11.0878 11.2945 11.3621 10.9076 10.9752C10.1491 10.2167 8.91889 10.2167 8.16039 10.9752L6.89939 12.2362C6.1409 12.9947 6.1409 14.2251 6.89939 14.9835C7.28621 15.3704 7.01198 16.0332 6.46458 16.0332C5.3919 16.0332 4.52179 16.9033 4.52179 17.976V19.7581C4.52179 20.8308 5.3919 21.7009 6.46458 21.7009C7.01198 21.7009 7.28621 22.3638 6.89939 22.7506C6.14158 23.5084 6.14158 24.7412 6.89939 25.4989L6.89978 25.4993L8.16078 26.7594C8.91889 27.5174 10.1491 27.5174 10.9076 26.759C11.2948 26.3718 11.9573 26.646 11.9573 27.1937C11.9573 28.2699 12.8274 29.1365 13.9002 29.1365H15.6822C16.755 29.1365 17.6251 28.2699 17.6251 27.1937C17.6251 26.6467 18.2879 26.3721 18.6748 26.759C19.4326 27.5167 20.6653 27.5167 21.4231 26.759L22.6831 25.4989C23.4409 24.7412 23.4409 23.5084 22.6831 22.7506C22.2962 22.3638 22.5709 21.7009 23.1179 21.7009ZM23.1179 20.3434C21.3631 20.3434 20.4821 22.4696 21.7232 23.7106C21.9515 23.939 21.9515 24.3106 21.7232 24.539L20.4631 25.799C20.2348 26.0274 19.8632 26.0274 19.6348 25.799C18.3938 24.5579 16.2675 25.439 16.2675 27.1937C16.2675 27.5179 16.0054 27.7789 15.6822 27.7789H13.9002C13.577 27.7789 13.3149 27.5179 13.3149 27.1937C13.3149 25.4369 11.1897 24.5569 9.94764 25.799C9.71927 26.0274 9.34875 26.0274 9.12029 25.799L7.8593 24.539C7.63093 24.3106 7.63093 23.939 7.8593 23.7106C9.10032 22.4696 8.22041 20.3434 6.46458 20.3434C6.14148 20.3434 5.87937 20.0812 5.87937 19.7581V17.976C5.87937 17.6529 6.14148 17.3908 6.46458 17.3908C8.22041 17.3908 9.10032 15.2646 7.8593 14.0235C7.63093 13.7951 7.63093 13.4246 7.8593 13.1962L9.12029 11.9352C9.34875 11.7067 9.71927 11.7067 9.94764 11.9352C11.1887 13.1762 13.3149 12.2962 13.3149 10.5405C13.3149 10.2173 13.577 9.95519 13.9002 9.95519H15.6822C16.0054 9.95519 16.2675 10.2173 16.2675 10.5405C16.2675 12.2962 18.3938 13.1762 19.6348 11.9352C19.8632 11.7067 20.2348 11.7067 20.4631 11.9352L21.7232 13.1962C21.9515 13.4246 21.9515 13.7951 21.7232 14.0235C20.4821 15.2646 21.3631 17.3908 23.1179 17.3908C23.442 17.3908 23.7031 17.6529 23.7031 17.976V19.7581C23.7031 20.0812 23.442 20.3434 23.1179 20.3434ZM14.7918 23.2554C17.2079 23.2554 19.1794 21.2837 19.1794 18.8676C19.1794 16.4505 17.2079 14.4799 14.7918 14.4799C12.3747 14.4799 10.4041 16.4505 10.4041 18.8676C10.4041 21.2837 12.3747 23.2554 14.7918 23.2554ZM24.0318 1.80013L29.4931 7.26146L24.0034 7.30142C24.0077 6.47659 24.0234 3.43572 24.0318 1.80013ZM34.1415 2.61332V0.974337C34.1415 0.63698 34.4149 0.363525 34.7523 0.363525H36.4146C36.752 0.363525 37.0255 0.63698 37.0255 0.974337V2.61332H34.1415ZM33.6334 22.5211V3.9709H37.5336V22.5211H33.6334ZM35.5834 27.7789L33.6334 23.8787H37.5336L35.5834 27.7789ZM35.081 32.3632L35.9684 31.4759C36.15 31.2942 36.4449 31.2942 36.6265 31.4759L37.6296 32.4788C37.8111 32.6604 37.8111 32.9554 37.6296 33.137L36.7422 34.0243C36.2572 33.4063 35.699 32.8483 35.081 32.3632ZM21.454 34.0246L20.5656 33.137C20.384 32.9554 20.384 32.6604 20.5656 32.4788L21.5686 31.4759C21.7502 31.2942 22.0452 31.2942 22.2267 31.4759L23.115 32.3633C22.4971 32.8485 21.9389 33.4066 21.454 34.0246ZM29.0976 48.3635C24.4956 48.3635 20.7418 44.6098 20.7418 40.0078C20.7418 35.4046 24.4956 31.6509 29.0976 31.6509C33.7008 31.6509 37.4545 35.4046 37.4545 40.0078C37.4545 44.6098 33.7008 48.3635 29.0976 48.3635ZM30.4436 39.6217L32.9443 37.121C33.2092 36.8561 33.2092 36.426 32.9443 36.161C32.6795 35.8961 32.2493 35.8961 31.9844 36.161L29.4836 38.6618C29.3612 38.6267 29.2319 38.6079 29.0982 38.6079C28.3259 38.6079 27.6989 39.2349 27.6989 40.0072C27.6989 40.7795 28.3259 41.4065 29.0982 41.4065C29.8705 41.4065 30.4975 40.7795 30.4975 40.0072C30.4975 39.8735 30.4787 39.7442 30.4436 39.6217Z" fill="#FF4F38"/>
</svg>
