<svg width="48" height="41" viewBox="0 0 48 41" fill="none" xmlns="http://www.w3.org/2000/svg">
<path d="M7.6392 3.24546H40.5257C41.1312 3.24546 41.7214 3.32945 42.2941 3.46909C41.6581 1.46509 39.8036 0 37.5912 0H10.4101C8.18465 0 6.32029 1.48364 5.69629 3.50618C6.32138 3.33818 6.97265 3.24546 7.6392 3.24546Z" fill="#FF4F38"/>
<path d="M4.36375 8.72738H43.6365C44.2932 8.72738 44.9259 8.82665 45.5238 9.00774C45.4288 8.72956 45.3187 8.45574 45.179 8.19719C44.2507 6.48883 42.4681 5.42847 40.5252 5.42847H7.63866C5.6903 5.42847 3.90448 6.49429 2.9783 8.21029C2.84848 8.45138 2.74484 8.70447 2.6543 8.96301C3.19975 8.81465 3.77139 8.72847 4.36375 8.72847V8.72738Z" fill="#FF4F38"/>
<path d="M43.6364 10.9092H4.36364C1.95382 10.9092 0 12.863 0 15.2728V36.0001C0 38.4099 1.95382 40.3637 4.36364 40.3637H43.6364C46.0462 40.3637 48 38.4099 48 36.0001V15.2728C48 12.863 46.0462 10.9092 43.6364 10.9092ZM31.5425 28.4706L21.7244 34.139C21.2116 34.4346 20.6498 34.583 20.088 34.583C19.5262 34.583 18.9633 34.4357 18.4516 34.139C17.4273 33.5477 16.8153 32.4885 16.8153 31.3048V19.9681C16.8153 18.7845 17.4273 17.7252 18.4516 17.1339C19.476 16.5426 20.7 16.5426 21.7244 17.1339L31.5425 22.8023C32.5669 23.3935 33.1789 24.4539 33.1789 25.6365C33.1789 26.819 32.5669 27.8794 31.5425 28.4706Z" fill="#FF4F38"/>
</svg>
