<svg width="49" height="48" viewBox="0 0 49 48" fill="none" xmlns="http://www.w3.org/2000/svg">
<path d="M24.0468 30.3406C26.2256 30.3406 27.992 28.5743 27.992 26.3954C27.992 24.2165 26.2256 22.4502 24.0468 22.4502C21.8679 22.4502 20.1016 24.2165 20.1016 26.3954C20.1016 28.5743 21.8679 30.3406 24.0468 30.3406Z" fill="#FF4F38"/>
<path d="M10.7089 32.2193C12.8878 32.2193 14.6541 30.4529 14.6541 28.2741C14.6541 26.0952 12.8878 24.3289 10.7089 24.3289C8.53 24.3289 6.76367 26.0952 6.76367 28.2741C6.76367 30.4529 8.53 32.2193 10.7089 32.2193Z" fill="#FF4F38"/>
<path d="M37.3856 32.2193C39.5645 32.2193 41.3308 30.4529 41.3308 28.2741C41.3308 26.0952 39.5645 24.3289 37.3856 24.3289C35.2068 24.3289 33.4404 26.0952 33.4404 28.2741C33.4404 30.4529 35.2068 32.2193 37.3856 32.2193Z" fill="#FF4F38"/>
<path d="M29.9012 20.5864C29.7906 20.6486 29.704 20.7461 29.6555 20.8633C29.6069 20.9805 29.5991 21.1107 29.6333 21.2329C29.6675 21.355 29.7418 21.4622 29.8442 21.5371C29.9466 21.612 30.0712 21.6504 30.1981 21.646C30.7521 21.6169 31.304 21.5566 31.8513 21.4657L36.7959 22.8145C38.1031 23.2278 39.4193 21.7351 38.7873 20.4925C38.4725 19.8393 38.2681 19.1385 38.1824 18.4185C38.9299 17.7346 39.5308 16.9061 39.9486 15.9832C40.3665 15.0603 40.5926 14.0621 40.6134 13.0492C40.6134 10.528 39.1931 8.14213 36.7133 6.50393C36.6127 6.44054 36.4947 6.41033 36.3761 6.41755C36.2574 6.42478 36.144 6.46909 36.0518 6.54422C35.9597 6.61935 35.8934 6.72152 35.8624 6.83631C35.8315 6.9511 35.8373 7.07272 35.8791 7.18401C36.3396 8.31517 36.5769 9.5247 36.578 10.746C36.578 14.6874 34.0831 18.3659 29.9012 20.5864Z" fill="#FF4F38"/>
<path d="M21.4653 0C13.7552 0 7.48047 4.82067 7.48047 10.746C7.48047 13.1958 8.5701 15.5742 10.5577 17.4754C10.4544 18.4266 10.1888 19.353 9.77245 20.2145C9.04427 21.6926 10.5615 23.4187 12.117 22.9423L18.3993 21.229C19.4121 21.4027 20.4377 21.4907 21.4653 21.492C29.1791 21.492 35.4501 16.6713 35.4501 10.746C35.4501 4.82067 29.1791 0 21.4653 0ZM14.6532 12.4932C14.3188 12.4932 13.9919 12.394 13.7139 12.2082C13.4358 12.0224 13.2191 11.7583 13.0911 11.4494C12.9632 11.1404 12.9297 10.8005 12.9949 10.4725C13.0602 10.1445 13.2212 9.84323 13.4577 9.60677C13.6941 9.37031 13.9954 9.20928 14.3234 9.14403C14.6514 9.07879 14.9913 9.11228 15.3003 9.24025C15.6092 9.36822 15.8733 9.58494 16.0591 9.86299C16.2449 10.141 16.344 10.4679 16.344 10.8023C16.344 11.2508 16.1659 11.6808 15.8488 11.9979C15.5317 12.315 15.1017 12.4932 14.6532 12.4932ZM21.4164 12.4932C21.082 12.4932 20.7551 12.394 20.4771 12.2082C20.199 12.0224 19.9823 11.7583 19.8543 11.4494C19.7264 11.1404 19.6929 10.8005 19.7581 10.4725C19.8234 10.1445 19.9844 9.84323 20.2209 9.60677C20.4573 9.37031 20.7586 9.20928 21.0866 9.14403C21.4146 9.07879 21.7545 9.11228 22.0635 9.24025C22.3724 9.36822 22.6365 9.58494 22.8223 9.86299C23.0081 10.141 23.1072 10.4679 23.1072 10.8023C23.1072 11.2508 22.9291 11.6808 22.612 11.9979C22.2949 12.315 21.8649 12.4932 21.4164 12.4932ZM28.1796 12.4932C27.8452 12.4932 27.5183 12.394 27.2403 12.2082C26.9622 12.0224 26.7455 11.7583 26.6175 11.4494C26.4896 11.1404 26.4561 10.8005 26.5213 10.4725C26.5866 10.1445 26.7476 9.84323 26.9841 9.60677C27.2205 9.37031 27.5218 9.20928 27.8498 9.14403C28.1778 9.07879 28.5177 9.11228 28.8267 9.24025C29.1356 9.36822 29.3997 9.58494 29.5855 9.86299C29.7713 10.141 29.8704 10.4679 29.8704 10.8023C29.8704 11.2508 29.6923 11.6808 29.3752 11.9979C29.0581 12.315 28.6281 12.4932 28.1796 12.4932Z" fill="#FF4F38"/>
<path d="M46.9671 30.7163H45.4641C45.1652 30.7163 44.8785 30.8351 44.6671 31.0465C44.4557 31.2578 44.3369 31.5446 44.3369 31.8435V47.4365C44.3369 47.5859 44.3963 47.7293 44.502 47.835C44.6077 47.9407 44.751 48.0001 44.9005 48.0001H47.5307C47.6801 48.0001 47.8235 47.9407 47.9292 47.835C48.0349 47.7293 48.0943 47.5859 48.0943 47.4365V31.8435C48.0943 31.5446 47.9755 31.2578 47.7641 31.0465C47.5527 30.8351 47.266 30.7163 46.9671 30.7163Z" fill="#FF4F38"/>
<path d="M1.1272 48.0001H3.19374C3.34321 48.0001 3.48657 47.9407 3.59226 47.835C3.69796 47.7293 3.75734 47.5859 3.75734 47.4365V31.8435C3.75734 31.5446 3.63858 31.2578 3.42719 31.0465C3.2158 30.8351 2.92909 30.7163 2.63014 30.7163H1.1272C0.828249 30.7163 0.541541 30.8351 0.33015 31.0465C0.118758 31.2578 0 31.5446 0 31.8435L0 46.8729C0 47.1718 0.118758 47.4585 0.33015 47.6699C0.541541 47.8813 0.828249 48.0001 1.1272 48.0001Z" fill="#FF4F38"/>
<path d="M16.5322 38.6943V38.9791C16.532 39.1233 16.5871 39.2621 16.6861 39.367C16.7852 39.4718 16.9206 39.5347 17.0646 39.5427L19.5069 39.6787C20.2258 39.7187 20.9022 40.0324 21.3971 40.5554C21.892 41.0784 22.1679 41.771 22.1682 42.4911C22.1607 42.5698 22.1697 42.6493 22.1945 42.7244C22.2194 42.7995 22.2596 42.8686 22.3126 42.9273C22.3656 42.9861 22.4303 43.0331 22.5024 43.0655C22.5746 43.0979 22.6527 43.1149 22.7318 43.1155H25.362C25.4411 43.1149 25.5192 43.0979 25.5914 43.0655C25.6636 43.0331 25.7282 42.9861 25.7812 42.9273C25.8342 42.8686 25.8744 42.7995 25.8993 42.7244C25.9241 42.6493 25.9331 42.5698 25.9256 42.4911C25.9256 41.7706 26.2016 41.0776 26.6968 40.5543C27.1919 40.0311 27.8687 39.7173 28.588 39.6776L31.0303 39.5415C31.1743 39.5336 31.3098 39.4707 31.4088 39.3658C31.5078 39.261 31.5629 39.1222 31.5627 38.9779V38.6931C31.5627 36.7001 30.771 34.7887 29.3617 33.3795C27.9524 31.9702 26.041 31.1785 24.048 31.1785C22.055 31.1785 20.1436 31.9702 18.7344 33.3795C17.3251 34.7887 16.5334 36.7001 16.5334 38.6931L16.5322 38.6943Z" fill="#FF4F38"/>
<path d="M43.2092 34.8492C43.2093 34.7658 43.1909 34.6833 43.1551 34.6079C43.1194 34.5325 43.0672 34.4661 43.0026 34.4133C41.8419 33.4664 40.3862 32.9559 38.8883 32.9705C34.3524 32.9705 33.8426 38.3458 33.7945 39.993C33.7921 40.1355 33.7359 40.2717 33.6371 40.3744C33.5383 40.4771 33.4043 40.5386 33.2621 40.5464L28.6499 40.8027C28.2207 40.8332 27.8186 41.0235 27.5229 41.3361C27.2272 41.6486 27.0594 42.0607 27.0527 42.4909C27.0463 42.5694 27.0561 42.6484 27.0813 42.723C27.1066 42.7976 27.1469 42.8663 27.1997 42.9248C27.2524 42.9833 27.3166 43.0303 27.3883 43.0631C27.4599 43.0959 27.5375 43.1136 27.6163 43.1153H35.3188C35.9165 43.1159 36.4896 43.3536 36.9123 43.7763C37.3349 44.1989 37.5726 44.772 37.5732 45.3697V47.4363C37.5732 47.5858 37.6326 47.7291 37.7383 47.8348C37.844 47.9405 37.9873 47.9999 38.1368 47.9999H42.6456C42.7951 47.9999 42.9385 47.9405 43.0442 47.8348C43.1499 47.7291 43.2092 47.5858 43.2092 47.4363V34.8492Z" fill="#FF4F38"/>
<path d="M4.88477 34.8494V47.4365C4.88477 47.586 4.94414 47.7293 5.04984 47.835C5.15554 47.9407 5.29889 48.0001 5.44837 48.0001H9.95717C10.1066 48.0001 10.25 47.9407 10.3557 47.835C10.4614 47.7293 10.5208 47.586 10.5208 47.4365V45.37C10.5214 44.7722 10.7591 44.1992 11.1817 43.7765C11.6044 43.3539 12.1775 43.1162 12.7752 43.1156H20.4777C20.5565 43.1139 20.6341 43.0961 20.7057 43.0633C20.7774 43.0306 20.8415 42.9835 20.8943 42.925C20.9471 42.8665 20.9874 42.7979 21.0127 42.7232C21.0379 42.6486 21.0477 42.5696 21.0413 42.4911C21.0345 42.061 20.8668 41.649 20.5712 41.3365C20.2755 41.024 19.8735 40.8336 19.4445 40.8029L14.8319 40.5467C14.6897 40.5388 14.5557 40.4774 14.4569 40.3747C14.3581 40.272 14.3019 40.1357 14.2995 39.9932C14.2514 38.346 13.7419 32.9708 9.2057 32.9708C7.70761 32.9564 6.25179 33.4671 5.09104 34.4143C5.02666 34.4671 4.97477 34.5335 4.9391 34.6087C4.90343 34.684 4.88488 34.7662 4.88477 34.8494Z" fill="#FF4F38"/>
<path d="M36.4459 47.4364V45.3699C36.4459 45.0709 36.3271 44.7842 36.1157 44.5728C35.9044 44.3614 35.6176 44.2427 35.3187 44.2427H12.7747C12.4757 44.2427 12.189 44.3614 11.9776 44.5728C11.7662 44.7842 11.6475 45.0709 11.6475 45.3699V47.4364C11.6475 47.5859 11.7068 47.7292 11.8125 47.8349C11.9182 47.9406 12.0616 48 12.2111 48H35.8823C36.0318 48 36.1751 47.9406 36.2808 47.8349C36.3865 47.7292 36.4459 47.5859 36.4459 47.4364Z" fill="#FF4F38"/>
</svg>
