<svg width="40" height="40" viewBox="0 0 40 40" fill="none" xmlns="http://www.w3.org/2000/svg">
<path d="M7.24239 15.3967L7.58654 15.5957V17.7799L6.01832 18.1718L9.65551 20.2937L9.62924 21.5689L9.57334 21.7642L11.7245 21.2854V20.7745C11.7245 19.8475 12.0989 18.9985 12.7122 18.3712L10.3458 17.7799L10.3431 15.5974L10.688 15.3981C11.7528 14.7815 12.4141 13.6379 12.4141 12.4138V11.2083C12.4141 9.2676 10.9149 7.64348 9.07193 7.58825C8.13813 7.55188 7.2397 7.90479 6.56452 8.55943C5.88935 9.2144 5.51758 10.094 5.51758 11.0345V12.4138C5.51758 13.6379 6.17827 14.7815 7.24239 15.3967Z" fill="#FFEC40"/>
<path d="M12.3815 7.69531C14.0023 5.08621 16.8828 3.44828 20 3.44828C23.0951 3.44828 25.9675 5.07105 27.593 7.65457C27.6206 7.62695 27.6448 7.59665 27.6731 7.56903C28.1028 7.15181 28.5965 6.83021 29.1289 6.60123L29.9111 4.76967L27.7105 2.56836L25.7712 3.83048L25.4001 3.60284C24.4703 3.03307 23.4655 2.61584 22.4138 2.36429L21.9889 2.26192L21.5097 0H18.4897L18.0112 2.26192L17.5869 2.36328C16.5353 2.61517 15.5304 3.03239 14.6007 3.60217L14.2296 3.82981L12.2902 2.56769L10.0869 4.77101L10.8608 6.61571C11.4319 6.87298 11.9478 7.24138 12.3815 7.69531Z" fill="#FFEC40"/>
<path d="M0 15.8621V28.4681L2.95999 29.4551L5.46269 19.4447L0 15.8621Z" fill="#FFEC40"/>
<path d="M28.276 16.3709C26.9907 15.4732 26.2071 13.9925 26.2071 12.4138V11.0345C26.2071 10.2745 26.3855 9.54544 26.7139 8.88711C25.409 6.41169 22.8133 4.82764 20.0002 4.82764C17.1601 4.82764 14.5533 6.43324 13.2582 8.94267C13.598 9.62626 13.7933 10.3967 13.7933 11.2083V12.4138C13.7933 13.9925 13.009 15.4745 11.7236 16.3716V16.702L14.4829 17.3926L17.2415 16.702V16.3709C15.9562 15.4732 15.1726 13.9925 15.1726 12.4138V11.0345C15.1726 9.71718 15.6932 8.48705 16.6388 7.56976C17.5837 6.65246 18.8283 6.17125 20.1483 6.20897C22.7285 6.28709 24.8278 8.52915 24.8278 11.2083V12.4138C24.8278 13.9925 24.0435 15.4745 22.7581 16.3716V16.702L25.5174 17.3926L28.276 16.702V16.3709Z" fill="#FFEC40"/>
<path d="M8.27573 21.0858L6.70279 20.1685L4.27148 29.8927L5.62891 30.3449H5.68683L8.27573 21.2827V21.0858Z" fill="#FFEC40"/>
<path d="M14.6704 18.7669C13.7484 18.9979 13.1035 19.8236 13.1035 20.7745V20.9786L13.4989 20.8911C14.9553 20.5684 16.4952 20.6365 17.918 21.0924L21.0399 22.0902C21.3854 22.1033 21.7296 22.1414 22.063 22.2367L26.3036 23.4483H26.7262L26.8966 23.3587V20.7745C26.8966 19.8236 26.2518 18.9979 25.3297 18.7669L21.3801 17.7799L21.3774 15.5974L21.7222 15.3981C22.787 14.7815 23.4483 13.6379 23.4483 12.4138V11.2083C23.4483 9.2676 21.9492 7.64348 20.1061 7.58825C19.1754 7.55188 18.2739 7.90479 17.5987 8.55943C16.9236 9.2144 16.5518 10.094 16.5518 11.0345V12.4138C16.5518 13.6379 17.2125 14.7815 18.2766 15.3967L18.6208 15.5957V17.7799L14.6704 18.7669Z" fill="#FFEC40"/>
<path d="M27.5861 11.0345V12.4138C27.5861 13.6379 28.2468 14.7815 29.3109 15.3967L29.6551 15.5957V17.7799L27.2881 18.3712C27.9006 18.9985 28.2758 19.8468 28.2758 20.7745V22.6324L35.8599 18.6406L32.4144 17.7799L32.4117 15.5974L32.7565 15.3981C33.8213 14.7815 34.4827 13.6379 34.4827 12.4138V11.2083C34.4827 9.2676 32.9835 7.64348 31.1405 7.58825C30.2046 7.55188 29.3089 7.90479 28.633 8.55943C27.9579 9.2144 27.5861 10.094 27.5861 11.0345Z" fill="#FFEC40"/>
<path d="M21.5127 27.256C21.0671 26.8552 20.3748 26.7869 19.8589 27.0967L17.2905 28.6366C16.9336 28.8518 16.5218 28.9656 16.1032 28.9656C14.8293 28.9656 13.7928 27.9291 13.7928 26.6552V26.5188C13.7928 25.6386 14.2817 24.8469 15.07 24.4526L18.5143 22.7304L17.4983 22.4055C16.3066 22.0243 15.0189 21.965 13.7982 22.2381L9.14231 23.2733L7.28516 29.7731L9.40396 31.0444C9.46457 30.9629 9.52451 30.8807 9.59692 30.8083L10.8092 29.596C11.2086 29.1953 11.7632 28.9656 12.3299 28.9656C13.4907 28.9656 14.4343 29.891 14.4747 31.0423C15.5997 31.0821 16.5039 31.9862 16.5436 33.1113C17.6687 33.151 18.5729 34.0552 18.6126 35.1803C19.4285 35.2092 20.1253 35.6925 20.4644 36.3855L22.0036 37.6685C22.206 37.8372 22.464 37.9311 22.7286 37.9311C23.1253 37.9311 23.4479 37.6085 23.4479 37.2119C23.4479 36.9973 23.3533 36.796 23.1893 36.6593L19.5575 33.6333L20.4411 32.5732L24.1871 35.6945C24.3161 35.8029 24.4797 35.8622 24.6471 35.8622H24.7976C25.1943 35.8622 25.5169 35.5396 25.5169 35.1429C25.5169 34.9284 25.4223 34.727 25.2583 34.5903L21.6265 31.5643L22.5101 30.5042L26.25 33.6208C26.3823 33.7319 26.5521 33.7932 26.7245 33.7932H26.8437C27.2535 33.7932 27.5859 33.4608 27.5859 33.0517C27.5859 32.8416 27.4963 32.6409 27.3404 32.5001L21.5127 27.256Z" fill="#FFEC40"/>
<path d="M27.0674 24.8275L26.0184 24.8012L21.6845 23.5633C20.975 23.3593 20.1934 23.4337 19.5351 23.7627L15.6881 25.6862C15.3702 25.8455 15.1729 26.164 15.1729 26.5186V26.655C15.1729 27.1682 15.5901 27.5861 16.104 27.5861C16.2723 27.5861 16.437 27.5406 16.5811 27.4544L19.1502 25.9138C19.5825 25.6539 20.0755 25.5171 20.579 25.5171C21.2666 25.5171 21.9266 25.7704 22.4371 26.2304L28.2632 31.4745C28.3046 31.5115 28.344 31.5496 28.3817 31.5897L40.0004 25.7805V18.0205L27.0674 24.8275Z" fill="#FFEC40"/>
<path d="M20.4933 38.2061C20.3873 38.4428 20.2438 38.662 20.0589 38.8469L19.541 39.3648L20.0569 39.8197C20.1879 39.9359 20.357 39.9999 20.5321 39.9999H20.6597C21.0564 39.9999 21.379 39.6773 21.379 39.2806C21.379 39.0661 21.2843 38.8647 21.1204 38.728L20.4933 38.2061Z" fill="#FFEC40"/>
<path d="M18.5372 36.5518C18.3338 36.5518 18.1345 36.6339 17.9903 36.7781L16.7781 37.9903C16.6339 38.1345 16.5518 38.3338 16.5518 38.5372C16.5518 38.9635 16.8986 39.3104 17.3249 39.3104C17.5283 39.3104 17.7277 39.2282 17.8718 39.0841L19.0841 37.8718C19.2282 37.7277 19.3104 37.5283 19.3104 37.3249C19.3104 36.8986 18.9635 36.5518 18.5372 36.5518Z" fill="#FFEC40"/>
<path d="M15.1727 33.187C15.1727 32.7607 14.8258 32.4138 14.3995 32.4138C14.1961 32.4138 13.9968 32.496 13.8526 32.6401L12.6404 33.8524C12.4962 33.9965 12.4141 34.1959 12.4141 34.3993C12.4141 34.8256 12.7609 35.1724 13.1872 35.1724C13.3906 35.1724 13.59 35.0903 13.7341 34.9461L14.9464 33.7339C15.0905 33.5897 15.1727 33.3904 15.1727 33.187Z" fill="#FFEC40"/>
<path d="M17.241 35.2558C17.241 34.8295 16.8942 34.4827 16.4679 34.4827C16.2645 34.4827 16.0651 34.5648 15.921 34.709L14.7087 35.9212C14.5646 36.0654 14.4824 36.2647 14.4824 36.4681C14.4824 36.8944 14.8293 37.2413 15.2556 37.2413C15.459 37.2413 15.6583 37.1591 15.8025 37.015L17.0147 35.8027C17.1589 35.6586 17.241 35.4592 17.241 35.2558Z" fill="#FFEC40"/>
<path d="M13.1033 31.1179C13.1033 30.6916 12.7565 30.3447 12.3302 30.3447C12.1268 30.3447 11.9274 30.4269 11.7833 30.571L10.571 31.7833C10.4269 31.9274 10.3447 32.1268 10.3447 32.3302C10.3447 32.7565 10.6916 33.1033 11.1179 33.1033C11.3213 33.1033 11.5206 33.0212 11.6648 32.8771L12.8771 31.6648C13.0212 31.5206 13.1033 31.3213 13.1033 31.1179Z" fill="#FFEC40"/>
</svg>
