<svg width="32" height="32" viewBox="0 0 32 32" fill="none" xmlns="http://www.w3.org/2000/svg">
<path d="M31.0623 30.1249H30.0623V11.625C30.0623 11.1072 29.6426 10.6875 29.1248 10.6875H25.3748C24.8571 10.6875 24.4373 11.1072 24.4373 11.625V30.1249H22.5624V17.875C22.5624 17.3572 22.1426 16.9375 21.6249 16.9375H17.8749C17.3571 16.9375 16.9374 17.3572 16.9374 17.875V30.1249H15.0624V21.3124C15.0624 20.7947 14.6427 20.3749 14.1249 20.3749H10.3749C9.85719 20.3749 9.43744 20.7947 9.43744 21.3124V30.1249H7.56245V23.5624C7.56245 23.0447 7.1427 22.6249 6.62496 22.6249H2.87498C2.35724 22.6249 1.93749 23.0447 1.93749 23.5624V30.1249H0.937494C0.419747 30.1249 0 30.5446 0 31.0624C0 31.5801 0.419747 31.9999 0.937494 31.9999H31.0623C31.5801 31.9999 31.9998 31.5801 31.9998 31.0624C31.9998 30.5446 31.5801 30.1249 31.0623 30.1249Z" fill="#FFEC40"/>
<path d="M0.937494 20.1441C6.78858 20.1441 13.1337 18.0427 18.804 14.227C23.2449 11.2386 26.9468 7.42096 29.2463 3.5118L30.1568 6.90971C30.2691 7.32858 30.811 7.69046 31.305 7.57258C31.8086 7.45246 32.1019 6.92452 31.9679 6.4244L30.4327 0.695065C30.2986 0.195006 29.7848 -0.101867 29.2845 0.0321942L23.5552 1.56737C23.055 1.70137 22.7583 2.21543 22.8923 2.71555C23.0264 3.21567 23.5402 3.51255 24.0405 3.37842L27.7314 2.38943C25.5861 6.11728 22.0406 9.78901 17.7572 12.6714C12.393 16.2812 6.41965 18.2691 0.937494 18.2691C0.419747 18.2691 0 18.6888 0 19.2066C0 19.7243 0.419747 20.1441 0.937494 20.1441Z" fill="#FFEC40"/>
</svg>
