<svg width="225" height="58" viewBox="0 0 225 58" fill="none" xmlns="http://www.w3.org/2000/svg">
<path d="M54.1031 29.7133C52.3695 26.4602 48.3178 25.2331 45.0648 26.9667C43.0195 28.0575 41.7728 30.0639 41.5585 32.2261C41.0131 36.6479 38.4029 40.758 34.1759 43.0176C27.2803 46.6991 18.69 44.0889 15.0084 37.1933C11.3268 30.2976 13.937 21.7073 20.8327 18.0258C25.0596 15.7662 29.91 15.8831 33.8837 17.8894C33.9616 17.9284 34.0396 17.9478 34.098 17.9868C34.1175 18.0063 34.1564 18.0063 34.1759 18.0258C36.0264 18.9023 38.2471 18.9413 40.195 17.8894C43.448 16.1558 44.6752 12.1236 42.9415 8.87054C42.2598 7.6044 41.2274 6.63044 40.0391 6.04606V6.02658C32.3059 2.07231 22.8195 1.83856 14.5604 6.24085C1.15869 13.3897 -3.9059 30.0444 3.24296 43.4461C10.3918 56.8478 27.0465 61.9124 40.4482 54.744C48.5126 50.4391 53.5382 42.7059 54.707 34.2909C55.0576 32.791 54.8823 31.1742 54.1031 29.7133Z" fill="#13182B"/>
<path d="M53.2851 5.32532C50.149 7.00053 48.279 10.0977 47.9868 13.3897C47.6167 16.7986 45.6493 19.9542 42.3963 21.6878C39.3965 23.2851 35.9876 23.3046 33.1047 22.0579C30.1244 20.0905 26.1896 19.7789 22.8197 21.571C17.9109 24.1812 16.0604 30.2976 18.6706 35.2064C21.2808 40.1151 27.3973 41.9657 32.3061 39.3555C35.4617 37.6608 37.3512 34.5246 37.6044 31.1937C38.0329 27.8822 40.0003 24.824 43.156 23.1293C46.409 21.3956 50.149 21.5125 53.1683 23.1098L53.2072 23.0709C56.0901 24.6292 59.6548 24.7655 62.7715 23.1098C67.6803 20.4996 69.5308 14.3831 66.9206 9.47439C64.2909 4.56563 58.1939 2.69563 53.2851 5.32532Z" fill="#3282FB"/>
<path d="M97.8065 3.767C101.415 3.767 104.408 4.69633 106.786 6.555C109.164 8.41367 110.735 10.942 111.501 14.14H105.433C104.804 12.582 103.82 11.352 102.481 10.45C101.169 9.548 99.5832 9.097 97.7245 9.097C96.1938 9.097 94.8135 9.47967 93.5835 10.245C92.3535 11.0103 91.3968 12.1037 90.7135 13.525C90.0302 14.9463 89.6885 16.6137 89.6885 18.527C89.6885 20.413 90.0302 22.0667 90.7135 23.488C91.3968 24.9093 92.3535 26.0027 93.5835 26.768C94.8135 27.5333 96.1938 27.916 97.7245 27.916C99.5832 27.916 101.169 27.465 102.481 26.563C103.82 25.661 104.804 24.431 105.433 22.873H111.501C110.735 26.071 109.164 28.5993 106.786 30.458C104.408 32.3167 101.415 33.246 97.8065 33.246C95.0458 33.246 92.5995 32.631 90.4675 31.401C88.3628 30.1437 86.7228 28.3943 85.5475 26.153C84.3995 23.9117 83.8255 21.3697 83.8255 18.527C83.8255 15.657 84.3995 13.1013 85.5475 10.86C86.7228 8.61867 88.3628 6.883 90.4675 5.653C92.5722 4.39566 95.0185 3.767 97.8065 3.767ZM115.182 3.767C115.182 2.83766 115.51 2.086 116.166 1.512C116.822 0.910666 117.683 0.609999 118.749 0.609999C119.815 0.609999 120.676 0.910666 121.332 1.512C121.988 2.086 122.316 2.83766 122.316 3.767C122.316 4.669 121.988 5.42067 121.332 6.022C120.676 6.596 119.815 6.883 118.749 6.883C117.683 6.883 116.822 6.596 116.166 6.022C115.51 5.42067 115.182 4.669 115.182 3.767ZM121.619 10.286V33H115.838V10.286H121.619ZM135.746 9.999C137.659 9.999 139.299 10.45 140.666 11.352C142.032 12.254 143.003 13.4703 143.577 15.001V10.286H149.317V33.082C149.317 35.1867 148.893 37.0727 148.046 38.74C147.226 40.4347 145.982 41.7603 144.315 42.717C142.675 43.6737 140.679 44.152 138.329 44.152C135.049 44.152 132.397 43.373 130.375 41.815C128.352 40.257 127.122 38.1387 126.685 35.46H132.384C132.712 36.608 133.34 37.4963 134.27 38.125C135.226 38.781 136.443 39.109 137.919 39.109C139.613 39.109 140.98 38.6033 142.019 37.592C143.057 36.608 143.577 35.1047 143.577 33.082V28.244C143.003 29.7747 142.032 31.0047 140.666 31.934C139.299 32.836 137.659 33.287 135.746 33.287C133.832 33.287 132.11 32.8223 130.58 31.893C129.049 30.9637 127.846 29.6243 126.972 27.875C126.124 26.0983 125.701 24.021 125.701 21.643C125.701 19.265 126.124 17.2013 126.972 15.452C127.846 13.6753 129.049 12.3223 130.58 11.393C132.11 10.4637 133.832 9.999 135.746 9.999ZM137.55 15.042C135.746 15.042 134.297 15.6297 133.204 16.805C132.11 17.9803 131.564 19.593 131.564 21.643C131.564 23.693 132.11 25.3057 133.204 26.481C134.297 27.629 135.746 28.203 137.55 28.203C139.299 28.203 140.734 27.6153 141.855 26.44C143.003 25.2373 143.577 23.6383 143.577 21.643C143.577 19.6203 143.003 18.0213 141.855 16.846C140.734 15.6433 139.299 15.042 137.55 15.042ZM183.461 9.958C186.221 9.958 188.394 10.819 189.98 12.541C191.592 14.2357 192.399 16.6547 192.399 19.798V33H186.659V20.454C186.659 18.7047 186.208 17.3653 185.306 16.436C184.431 15.4793 183.215 15.001 181.657 15.001C180.044 15.001 178.759 15.5067 177.803 16.518C176.846 17.5293 176.368 19.0053 176.368 20.946V33H170.628V20.454C170.628 18.7047 170.177 17.3653 169.275 16.436C168.4 15.4793 167.184 15.001 165.626 15.001C164.013 15.001 162.728 15.5067 161.772 16.518C160.815 17.5293 160.337 19.0053 160.337 20.946V33H154.556V10.286H160.337V14.591C160.938 13.115 161.881 11.9807 163.166 11.188C164.478 10.368 165.995 9.958 167.717 9.958C169.548 9.958 171.133 10.3953 172.473 11.27C173.839 12.1447 174.864 13.402 175.548 15.042C176.258 13.484 177.311 12.254 178.705 11.352C180.126 10.4227 181.711 9.958 183.461 9.958ZM206.375 9.999C208.288 9.999 209.928 10.45 211.295 11.352C212.661 12.254 213.632 13.4703 214.206 15.001V10.286H219.946V33H214.206V28.244C213.632 29.7747 212.661 31.0047 211.295 31.934C209.928 32.836 208.288 33.287 206.375 33.287C204.461 33.287 202.739 32.8223 201.209 31.893C199.678 30.9637 198.475 29.6243 197.601 27.875C196.753 26.0983 196.33 24.021 196.33 21.643C196.33 19.265 196.753 17.2013 197.601 15.452C198.475 13.6753 199.678 12.3223 201.209 11.393C202.739 10.4637 204.461 9.999 206.375 9.999ZM208.179 15.042C206.375 15.042 204.926 15.6297 203.833 16.805C202.739 17.9803 202.193 19.593 202.193 21.643C202.193 23.693 202.739 25.3057 203.833 26.481C204.926 27.629 206.375 28.203 208.179 28.203C209.928 28.203 211.363 27.6153 212.484 26.44C213.632 25.2373 214.206 23.6383 214.206 21.643C214.206 19.6203 213.632 18.0213 212.484 16.846C211.363 15.6433 209.928 15.042 208.179 15.042Z" fill="#13182B"/>
<path d="M84.8755 57L82.5355 49.08H83.5315L85.4875 56.124L87.3475 49.08H88.4395L90.2995 56.148L92.2555 49.08H93.2035L90.8755 57H89.6875L88.2835 51.864L87.8755 50.076H87.8635L87.4555 51.864L86.0635 57H84.8755ZM94.9308 57V49.08H100.487V49.98H95.8908V52.536H99.4668V53.436H95.8908V56.1H100.667V57H94.9308ZM112.504 57H111.484L110.644 54.804H107.056L106.216 57H105.208L108.292 49.08H109.432L112.504 57ZM107.404 53.904H110.296L108.844 50.004L107.404 53.904ZM117.114 49.08C117.922 49.08 118.57 49.288 119.058 49.704C119.546 50.12 119.79 50.684 119.79 51.396C119.79 52.108 119.542 52.664 119.046 53.064C118.558 53.456 117.91 53.652 117.102 53.652L117.018 53.712H115.074V57H114.114V49.08H117.114ZM117.102 52.812C117.67 52.812 118.09 52.696 118.362 52.464C118.642 52.224 118.782 51.868 118.782 51.396C118.782 50.924 118.642 50.572 118.362 50.34C118.09 50.1 117.67 49.98 117.102 49.98H115.074V52.812H117.102ZM117.654 53.004L120.27 57H119.13L116.85 53.532L117.654 53.004ZM122.095 57V49.08H127.651V49.98H123.055V52.536H126.631V53.436H123.055V56.1H127.831V57H122.095ZM136.633 49.08C137.169 49.08 137.633 49.18 138.025 49.38C138.425 49.572 138.737 49.848 138.961 50.208C139.185 50.568 139.297 50.996 139.297 51.492C139.297 51.988 139.185 52.416 138.961 52.776C138.737 53.136 138.425 53.416 138.025 53.616C137.633 53.808 137.169 53.904 136.633 53.904H134.797V57H133.837V49.08H136.633ZM136.489 53.004C137.113 53.004 137.569 52.876 137.857 52.62C138.145 52.356 138.289 51.98 138.289 51.492C138.289 50.996 138.145 50.62 137.857 50.364C137.569 50.108 137.113 49.98 136.489 49.98H134.797V53.004H136.489ZM144.161 49.08C144.969 49.08 145.617 49.288 146.105 49.704C146.593 50.12 146.837 50.684 146.837 51.396C146.837 52.108 146.589 52.664 146.093 53.064C145.605 53.456 144.957 53.652 144.149 53.652L144.065 53.712H142.121V57H141.161V49.08H144.161ZM144.149 52.812C144.717 52.812 145.137 52.696 145.409 52.464C145.689 52.224 145.829 51.868 145.829 51.396C145.829 50.924 145.689 50.572 145.409 50.34C145.137 50.1 144.717 49.98 144.149 49.98H142.121V52.812H144.149ZM144.701 53.004L147.317 57H146.177L143.897 53.532L144.701 53.004ZM152.263 48.96C153.015 48.96 153.663 49.128 154.207 49.464C154.759 49.792 155.183 50.26 155.479 50.868C155.783 51.476 155.935 52.2 155.935 53.04C155.935 53.88 155.783 54.604 155.479 55.212C155.183 55.82 154.759 56.292 154.207 56.628C153.663 56.956 153.015 57.12 152.263 57.12C151.511 57.12 150.859 56.956 150.307 56.628C149.763 56.292 149.339 55.82 149.035 55.212C148.739 54.604 148.591 53.88 148.591 53.04C148.591 52.2 148.739 51.476 149.035 50.868C149.339 50.26 149.763 49.792 150.307 49.464C150.859 49.128 151.511 48.96 152.263 48.96ZM152.263 49.86C151.719 49.86 151.247 49.988 150.847 50.244C150.447 50.492 150.139 50.856 149.923 51.336C149.707 51.808 149.599 52.376 149.599 53.04C149.599 53.704 149.707 54.276 149.923 54.756C150.139 55.228 150.447 55.592 150.847 55.848C151.247 56.096 151.719 56.22 152.263 56.22C152.815 56.22 153.287 56.096 153.679 55.848C154.079 55.592 154.387 55.228 154.603 54.756C154.819 54.276 154.927 53.704 154.927 53.04C154.927 52.376 154.819 51.808 154.603 51.336C154.387 50.856 154.079 50.492 153.679 50.244C153.287 49.988 152.815 49.86 152.263 49.86ZM163.592 49.98H159.008V52.536H162.584V53.436H159.008V57H158.048V49.08H163.592V49.98ZM165.372 57V49.08H170.928V49.98H166.332V52.536H169.908V53.436H166.332V56.1H171.108V57H165.372ZM175.569 48.96C176.265 48.96 176.865 49.104 177.369 49.392C177.873 49.672 178.293 50.088 178.629 50.64L177.825 51.264C177.529 50.752 177.193 50.392 176.817 50.184C176.449 49.968 176.001 49.86 175.473 49.86C175.049 49.86 174.697 49.92 174.417 50.04C174.145 50.16 173.945 50.32 173.817 50.52C173.689 50.712 173.625 50.932 173.625 51.18C173.625 51.46 173.713 51.708 173.889 51.924C174.065 52.132 174.417 52.296 174.945 52.416L176.661 52.8C177.421 52.968 177.949 53.224 178.245 53.568C178.549 53.904 178.701 54.324 178.701 54.828C178.701 55.276 178.573 55.676 178.317 56.028C178.069 56.372 177.717 56.64 177.261 56.832C176.805 57.024 176.269 57.12 175.653 57.12C175.077 57.12 174.569 57.044 174.129 56.892C173.697 56.732 173.325 56.52 173.013 56.256C172.701 55.992 172.445 55.696 172.245 55.368L173.085 54.684C173.237 54.988 173.433 55.256 173.673 55.488C173.913 55.72 174.201 55.9 174.537 56.028C174.881 56.156 175.273 56.22 175.713 56.22C176.121 56.22 176.473 56.172 176.769 56.076C177.073 55.972 177.305 55.824 177.465 55.632C177.625 55.432 177.705 55.192 177.705 54.912C177.705 54.656 177.621 54.428 177.453 54.228C177.285 54.02 176.969 53.864 176.505 53.76L174.645 53.34C174.157 53.228 173.761 53.076 173.457 52.884C173.161 52.684 172.945 52.452 172.809 52.188C172.681 51.916 172.617 51.624 172.617 51.312C172.617 50.888 172.733 50.5 172.965 50.148C173.205 49.788 173.545 49.5 173.985 49.284C174.433 49.068 174.961 48.96 175.569 48.96ZM183.256 48.96C183.952 48.96 184.552 49.104 185.056 49.392C185.56 49.672 185.98 50.088 186.316 50.64L185.512 51.264C185.216 50.752 184.88 50.392 184.504 50.184C184.136 49.968 183.688 49.86 183.16 49.86C182.736 49.86 182.384 49.92 182.104 50.04C181.832 50.16 181.632 50.32 181.504 50.52C181.376 50.712 181.312 50.932 181.312 51.18C181.312 51.46 181.4 51.708 181.576 51.924C181.752 52.132 182.104 52.296 182.632 52.416L184.348 52.8C185.108 52.968 185.636 53.224 185.932 53.568C186.236 53.904 186.388 54.324 186.388 54.828C186.388 55.276 186.26 55.676 186.004 56.028C185.756 56.372 185.404 56.64 184.948 56.832C184.492 57.024 183.956 57.12 183.34 57.12C182.764 57.12 182.256 57.044 181.816 56.892C181.384 56.732 181.012 56.52 180.7 56.256C180.388 55.992 180.132 55.696 179.932 55.368L180.772 54.684C180.924 54.988 181.12 55.256 181.36 55.488C181.6 55.72 181.888 55.9 182.224 56.028C182.568 56.156 182.96 56.22 183.4 56.22C183.808 56.22 184.16 56.172 184.456 56.076C184.76 55.972 184.992 55.824 185.152 55.632C185.312 55.432 185.392 55.192 185.392 54.912C185.392 54.656 185.308 54.428 185.14 54.228C184.972 54.02 184.656 53.864 184.192 53.76L182.332 53.34C181.844 53.228 181.448 53.076 181.144 52.884C180.848 52.684 180.632 52.452 180.496 52.188C180.368 51.916 180.304 51.624 180.304 51.312C180.304 50.888 180.42 50.5 180.652 50.148C180.892 49.788 181.232 49.5 181.672 49.284C182.12 49.068 182.648 48.96 183.256 48.96ZM189.36 49.08V57H188.4V49.08H189.36ZM195.142 48.96C195.894 48.96 196.542 49.128 197.086 49.464C197.638 49.792 198.062 50.26 198.358 50.868C198.662 51.476 198.814 52.2 198.814 53.04C198.814 53.88 198.662 54.604 198.358 55.212C198.062 55.82 197.638 56.292 197.086 56.628C196.542 56.956 195.894 57.12 195.142 57.12C194.39 57.12 193.738 56.956 193.186 56.628C192.642 56.292 192.218 55.82 191.914 55.212C191.618 54.604 191.47 53.88 191.47 53.04C191.47 52.2 191.618 51.476 191.914 50.868C192.218 50.26 192.642 49.792 193.186 49.464C193.738 49.128 194.39 48.96 195.142 48.96ZM195.142 49.86C194.598 49.86 194.126 49.988 193.726 50.244C193.326 50.492 193.018 50.856 192.802 51.336C192.586 51.808 192.478 52.376 192.478 53.04C192.478 53.704 192.586 54.276 192.802 54.756C193.018 55.228 193.326 55.592 193.726 55.848C194.126 56.096 194.598 56.22 195.142 56.22C195.694 56.22 196.166 56.096 196.558 55.848C196.958 55.592 197.266 55.228 197.482 54.756C197.698 54.276 197.806 53.704 197.806 53.04C197.806 52.376 197.698 51.808 197.482 51.336C197.266 50.856 196.958 50.492 196.558 50.244C196.166 49.988 195.694 49.86 195.142 49.86ZM207.143 49.08V57H205.955L202.643 51.696L201.803 50.208H201.791L201.839 51.408V57H200.927V49.08H202.115L205.415 54.36L206.267 55.884H206.279L206.231 54.672V49.08H207.143ZM216.051 57H215.031L214.191 54.804H210.603L209.763 57H208.755L211.839 49.08H212.979L216.051 57ZM210.951 53.904H213.843L212.391 50.004L210.951 53.904ZM218.621 56.1H223.157V57H217.661V49.08H218.621V56.1Z" fill="#13182B"/>
</svg>
