<svg width="50" height="41" viewBox="0 0 50 41" fill="none" xmlns="http://www.w3.org/2000/svg">
<path d="M39.4473 19.477C38.1833 17.1052 35.2292 16.2104 32.8573 17.4745C31.3661 18.2698 30.4571 19.7327 30.3009 21.3091C29.9032 24.5331 28.0001 27.5299 24.9181 29.1774C19.8904 31.8616 13.6271 29.9585 10.9428 24.9308C8.25854 19.9031 10.1617 13.6398 15.1894 10.9555C18.2713 9.308 21.8078 9.39321 24.7051 10.8561C24.7619 10.8845 24.8187 10.8987 24.8613 10.9271C24.8755 10.9413 24.9039 10.9413 24.9181 10.9555C26.2674 11.5946 27.8865 11.623 29.3067 10.8561C31.6785 9.59205 32.5733 6.65212 31.3093 4.2803C30.8122 3.35713 30.0595 2.647 29.1931 2.22093V2.20672C23.5547 -0.676393 16.638 -0.846823 10.6162 2.36295C0.844814 7.57529 -2.84785 19.7185 2.36449 29.4898C7.57682 39.2612 19.72 42.9538 29.4913 37.7273C35.3712 34.5885 39.0355 28.9501 39.8876 22.8146C40.1433 21.721 40.0154 20.5422 39.4473 19.477Z" fill="#FFEC40"/>
<path d="M38.8507 1.69548C36.5641 2.9169 35.2006 5.1751 34.9876 7.57533C34.7178 10.0608 33.2833 12.3616 30.9115 13.6256C28.7243 14.7902 26.2388 14.8044 24.1369 13.8955C21.9639 12.461 19.095 12.2338 16.6379 13.5404C13.0589 15.4435 11.7096 19.9031 13.6128 23.4822C15.5159 27.0612 19.9755 28.4105 23.5546 26.5073C25.8554 25.2717 27.233 22.9851 27.4177 20.5565C27.7301 18.142 29.1646 15.9122 31.4654 14.6766C33.8372 13.4126 36.5641 13.4978 38.7655 14.6624L38.7939 14.634C40.8959 15.7702 43.4949 15.8696 45.7673 14.6624C49.3464 12.7593 50.6956 8.29966 48.7925 4.72062C46.8751 1.14158 42.4297 -0.221863 38.8507 1.69548Z" fill="white"/>
</svg>
