<svg width="133" height="32" viewBox="0 0 133 32" fill="none" xmlns="http://www.w3.org/2000/svg">
<g clip-path="url(#clip0_754_2229)">
<path d="M124.455 24.0816C123.093 24.0816 121.899 23.7924 120.873 23.214C119.847 22.6169 119.054 21.7867 118.494 20.7233C117.934 19.6598 117.655 18.4097 117.655 16.9731C117.655 15.5551 117.934 14.3144 118.494 13.2509C119.054 12.1688 119.847 11.3292 120.873 10.7321C121.899 10.1165 123.093 9.80859 124.455 9.80859C125.835 9.80859 127.03 10.1165 128.037 10.7321C129.064 11.3479 129.857 12.1968 130.416 13.2789C130.976 14.3424 131.256 15.5644 131.256 16.9451C131.256 17.1504 131.246 17.3555 131.228 17.5608C131.228 17.7473 131.209 17.9059 131.172 18.0366H120.649V15.2939H128.401L127.841 16.6093C127.841 15.4525 127.561 14.5103 127.001 13.7826C126.461 13.055 125.612 12.6912 124.455 12.6912C123.448 12.6912 122.636 13.0084 122.02 13.6427C121.404 14.2585 121.097 15.0887 121.097 16.1335V17.6168C121.097 18.7176 121.404 19.5851 122.02 20.2195C122.655 20.8352 123.513 21.1431 124.595 21.1431C125.546 21.1431 126.293 20.9472 126.833 20.5553C127.375 20.1635 127.841 19.6785 128.233 19.1001L130.78 20.5553C130.164 21.6934 129.325 22.5704 128.261 23.186C127.217 23.7831 125.947 24.0816 124.455 24.0816Z" fill="#13182B"/>
<path d="M111.833 10.1165L112.756 13.8946V23.8017H109.09V10.1165H111.833ZM112.001 15.7697L111.329 15.4618V12.6632L111.581 12.3553C111.786 12.0195 112.094 11.6557 112.505 11.2639C112.934 10.8721 113.418 10.5362 113.96 10.2564C114.52 9.95784 115.097 9.80859 115.695 9.80859C115.993 9.80859 116.264 9.82726 116.506 9.86459C116.749 9.90193 116.936 9.96717 117.066 10.0605V13.3908H116.17C114.958 13.3908 114.025 13.5867 113.372 13.9785C112.719 14.3517 112.262 14.9488 112.001 15.7697Z" fill="#13182B"/>
<path d="M98.1549 24.1383C97.1292 24.1383 96.3078 23.9798 95.6927 23.6625C95.0767 23.3454 94.6012 22.9255 94.2652 22.4031C93.9478 21.8621 93.7336 21.2464 93.6216 20.5561C93.5096 19.8657 93.4536 19.1474 93.4536 18.4012V10.1172H97.1194V18.4291C97.1194 19.2687 97.2972 19.8285 97.6518 20.1083C98.0243 20.3882 98.4634 20.5281 98.9665 20.5281C99.4332 20.5281 99.8998 20.4441 100.367 20.2762C100.832 20.1083 101.271 19.8657 101.681 19.5486C102.111 19.2127 102.465 18.8303 102.745 18.4012L103.193 20.3322H102.297V10.1172H105.964V23.8025H103.221L102.465 21.1998L103.64 21.2278C103.175 21.7688 102.642 22.2632 102.046 22.7111C101.467 23.1588 100.842 23.5133 100.17 23.7745C99.5176 24.017 98.8456 24.1383 98.1549 24.1383Z" fill="#13182B"/>
<path d="M88.6202 24.054C87.2209 24.054 86.1108 23.6901 85.2899 22.9625C84.4876 22.2162 84.0864 21.0315 84.0864 19.4083V10.2848L84.0305 10.1168L84.7861 6.89844H87.7526V18.8205C87.7526 19.4176 87.8925 19.8561 88.1725 20.1359C88.4709 20.3972 88.8441 20.5277 89.2919 20.5277C89.5903 20.5277 89.8605 20.5091 90.1032 20.4717C90.3459 20.4157 90.561 20.3598 90.7468 20.3038V23.7181C90.449 23.8301 90.1317 23.9141 89.7957 23.9701C89.4598 24.026 89.068 24.054 88.6202 24.054ZM81.9595 13.5032V10.1168H90.7468V13.5032H81.9595Z" fill="#13182B"/>
<path d="M75.6952 9.80859C76.6281 9.80859 77.3744 9.96717 77.9341 10.2844C78.5125 10.6016 78.9416 11.0306 79.2215 11.5717C79.52 12.1128 79.7159 12.7285 79.8092 13.4188C79.9025 14.0905 79.9492 14.7902 79.9492 15.5178V23.8017H76.2829V15.4898C76.2829 14.6502 76.115 14.0905 75.7792 13.8106C75.462 13.5308 75.0516 13.3908 74.5478 13.3908C74.0813 13.3908 73.6056 13.4841 73.1205 13.6707C72.6354 13.8386 72.1783 14.0905 71.7492 14.4264C71.3387 14.7435 70.9842 15.1073 70.6857 15.5178L70.2099 13.6147H71.1335V23.8017H67.4673V10.1165H70.2099L70.9655 12.7472L69.7901 12.6912C70.2752 12.1314 70.8256 11.637 71.4413 11.208C72.0756 10.7788 72.7474 10.443 73.4564 10.2004C74.1653 9.93926 74.9116 9.80859 75.6952 9.80859Z" fill="#13182B"/>
<path d="M58.4262 24.0816C57.0642 24.0816 55.8701 23.7924 54.844 23.214C53.8178 22.6169 53.0249 21.7867 52.4651 20.7233C51.9054 19.6598 51.6255 18.4097 51.6255 16.9731C51.6255 15.5551 51.9054 14.3144 52.4651 13.2509C53.0249 12.1688 53.8178 11.3292 54.844 10.7321C55.8701 10.1165 57.0642 9.80859 58.4262 9.80859C59.8068 9.80859 61.001 10.1165 62.0084 10.7321C63.0346 11.3479 63.8275 12.1968 64.3873 13.2789C64.947 14.3424 65.2268 15.5644 65.2268 16.9451C65.2268 17.1504 65.2175 17.3555 65.1988 17.5608C65.1988 17.7473 65.1802 17.9059 65.1429 18.0366H54.6201V15.2939H62.3722L61.8125 16.6093C61.8125 15.4525 61.5327 14.5103 60.973 13.7826C60.4319 13.055 59.5829 12.6912 58.4262 12.6912C57.4186 12.6912 56.6071 13.0084 55.9914 13.6427C55.3757 14.2585 55.0678 15.0887 55.0678 16.1335V17.6168C55.0678 18.7176 55.3757 19.5851 55.9914 20.2195C56.6258 20.8352 57.484 21.1431 58.5661 21.1431C59.5177 21.1431 60.264 20.9472 60.805 20.5553C61.3461 20.1635 61.8125 19.6785 62.2043 19.1001L64.7511 20.5553C64.1354 21.6934 63.2958 22.5704 62.2323 23.186C61.1874 23.7831 59.9188 24.0816 58.4262 24.0816Z" fill="#13182B"/>
<path d="M51.0634 10.1172L46.0538 23.8025H42.5275L37.2661 10.1172H41.1282L44.7105 20.584H43.8429L47.2852 10.1172H51.0634Z" fill="#13182B"/>
<path fill-rule="evenodd" clip-rule="evenodd" d="M10.9274 2.39844C10.4505 2.39844 10.0638 2.78508 10.0638 3.26201V11.4659C5.05611 11.466 0.996582 15.5256 0.996582 20.5334C0.996582 25.5412 5.05622 29.6009 10.0641 29.6009H18.268C18.7449 29.6009 19.1315 29.2142 19.1315 28.7372V20.5334C24.1393 20.5332 28.1987 16.4737 28.1987 11.4659C28.1987 6.45808 24.1391 2.39844 19.1313 2.39844H10.9274ZM19.1315 20.5334V12.3295C19.1315 11.8525 18.7449 11.4659 18.268 11.4659H10.0638C10.0637 11.4659 10.0639 11.4659 10.0638 11.4659V19.6698C10.0638 20.1467 10.4505 20.5334 10.9274 20.5334H19.1315C19.1316 20.5334 19.1315 20.5334 19.1315 20.5334Z" fill="#13182B"/>
<path d="M10.8312 2.39844C10.408 2.39844 10.0649 2.74151 10.0649 3.1647V11.4659H18.3661C18.7893 11.4659 19.1324 11.809 19.1324 12.2322V20.5334C24.1402 20.5334 28.1999 16.4738 28.1999 11.4659C28.1999 6.45808 24.1402 2.39844 19.1324 2.39844H10.8312Z" fill="#13182B"/>
</g>
<defs>
<clipPath id="clip0_754_2229">
<rect width="131.556" height="32" fill="white" transform="translate(0.600098)"/>
</clipPath>
</defs>
</svg>
