<svg width="154" height="32" viewBox="0 0 154 32" fill="none" xmlns="http://www.w3.org/2000/svg">
<g clip-path="url(#clip0_754_2267)">
<mask id="mask0_754_2267" style="mask-type:luminance" maskUnits="userSpaceOnUse" x="0" y="0" width="154" height="32">
<path d="M153.39 0H0.856934V32H153.39V0Z" fill="white"/>
</mask>
<g mask="url(#mask0_754_2267)">
<mask id="mask1_754_2267" style="mask-type:luminance" maskUnits="userSpaceOnUse" x="1" y="0" width="153" height="32">
<path d="M153.344 0H1.34326V32H153.344V0Z" fill="white"/>
</mask>
<g mask="url(#mask1_754_2267)">
<path d="M1.34326 21.3551L12.1636 16.5391L18.3915 20.151L19.6496 32.0003L11.9749 31.9372L13.1071 23.6997L11.7861 22.9389L5.30649 28.0084L1.34326 21.3551Z" fill="#13182B"/>
<path d="M19.0835 19.6431L28.6457 26.6769L32.4202 19.8967L24.7451 16.7917V15.2708L32.4202 12.1025L28.6457 5.38574L19.0835 12.4193V19.6431Z" fill="#13182B"/>
<path d="M18.3915 11.8495L19.6496 0L11.9749 0.12674L13.1071 8.36433L11.7861 9.12474L5.24359 4.05546L1.34326 10.6455L12.1636 15.4613L18.3915 11.8495Z" fill="#13182B"/>
<path d="M58.025 14.5804V25.6818H62.1556V11.5342H56.1401V14.5804H58.025Z" fill="#13182B"/>
<path d="M57.897 9.54581C58.2756 9.94154 58.8522 10.1395 59.6267 10.1395C60.4015 10.1395 60.9691 9.94154 61.3302 9.54581C61.7094 9.13255 61.8982 8.61621 61.8982 7.99682C61.8982 7.35988 61.7094 6.84355 61.3302 6.44778C60.9691 6.03474 60.4015 5.82812 59.6267 5.82812C58.8522 5.82812 58.2756 6.03474 57.897 6.44778C57.5358 6.84355 57.355 7.35988 57.355 7.99682C57.355 8.61621 57.5358 9.13255 57.897 9.54581Z" fill="#13182B"/>
<path d="M43.6445 25.371C44.8147 25.9045 46.2518 26.1714 47.9554 26.1714C49.5562 26.1714 50.9329 25.9219 52.0863 25.4226C53.2394 24.9237 54.1256 24.2265 54.7451 23.3317C55.3823 22.4192 55.7004 21.3607 55.7004 20.1561C55.7004 18.9857 55.3997 17.9961 54.7973 17.187C54.2117 16.361 53.3946 15.7155 52.3443 15.251C51.2944 14.769 50.0812 14.4677 48.7043 14.3474L47.2586 14.2183C46.398 14.1493 45.7784 13.9171 45.3997 13.5212C45.0211 13.1253 44.8317 12.6606 44.8317 12.1273C44.8317 11.7139 44.9353 11.3355 45.1413 10.9913C45.3481 10.6297 45.6577 10.3457 46.071 10.1392C46.5013 9.93276 47.0262 9.82942 47.6458 9.82942C48.2995 9.82942 48.842 9.94975 49.2723 10.1909C49.3669 10.2418 49.4569 10.2963 49.5413 10.3541L49.5618 10.3684C49.5933 10.3902 49.6245 10.4129 49.6548 10.4358C49.9162 10.6356 50.1243 10.8723 50.2791 11.146C50.5026 11.5248 50.6151 11.9463 50.6151 12.4111H54.7451C54.7451 11.1718 54.4612 10.0961 53.8936 9.18402C53.3256 8.25462 52.5081 7.54035 51.4411 7.04109C50.3908 6.52477 49.126 6.2666 47.6458 6.2666C46.2343 6.2666 45.0125 6.50771 43.9797 6.98956C42.9472 7.45436 42.1383 8.12556 41.5532 9.00316C40.9848 9.88102 40.7007 10.9225 40.7007 12.1273C40.7007 13.7966 41.2607 15.139 42.3793 16.1547C43.4978 17.17 44.9955 17.7552 46.8714 17.91L48.2915 18.039C49.4441 18.1424 50.2791 18.3748 50.7955 18.7361C51.3115 19.0803 51.5699 19.5536 51.5699 20.1561C51.5699 20.4329 51.5247 20.6926 51.4339 20.9351C51.3666 21.1152 51.2744 21.2857 51.1571 21.4469C50.8812 21.8085 50.477 22.0921 49.9434 22.299C49.41 22.5054 48.7473 22.6085 47.9554 22.6085C47.0778 22.6085 46.3635 22.4883 45.813 22.2474C45.2619 21.9889 44.8491 21.6533 44.5733 21.2405C44.3153 20.8272 44.1865 20.3798 44.1865 19.8978H40.0815C40.0815 21.1198 40.3827 22.2043 40.9848 23.1509C41.5874 24.0801 42.4739 24.8205 43.6445 25.371Z" fill="#13182B"/>
<path d="M71.3717 25.8619C69.9431 25.8619 68.7904 25.6899 67.9127 25.3454C67.0346 24.9842 66.3894 24.3906 65.9762 23.5646C65.5804 22.7211 65.3826 21.5851 65.3826 20.1564V14.5542H63.2397V11.5338H65.3826V7.71289H69.2291V11.5338H73.3597V14.5542H69.2291V20.3115C69.2291 20.9827 69.401 21.4989 69.7458 21.8601C70.1064 22.2047 70.6144 22.3765 71.2691 22.3765H73.3597V25.8619H71.3717Z" fill="#13182B"/>
<path fill-rule="evenodd" clip-rule="evenodd" d="M78.332 25.5522C79.2613 25.9653 80.3287 26.1717 81.5333 26.1717C82.7207 26.1717 83.7706 25.9653 84.6833 25.5522C85.5953 25.139 86.3527 24.5623 86.9546 23.8225C87.5573 23.0822 87.962 22.2391 88.1679 21.2925H84.3733C84.2013 21.7227 83.874 22.0839 83.3919 22.3764C82.9107 22.6694 82.2906 22.8157 81.5333 22.8157C81.0647 22.8157 80.6453 22.7602 80.276 22.649C79.9946 22.5645 79.7426 22.4481 79.5199 22.2993C79.0033 21.9552 78.6247 21.4728 78.3839 20.8535C78.3166 20.6771 78.2593 20.4925 78.2113 20.3003C78.1626 20.1054 78.1226 19.9027 78.0926 19.6917H88.4266V18.2976C88.4266 17.0067 88.1506 15.8192 87.6007 14.735C87.0493 13.6333 86.2493 12.747 85.1993 12.0757C84.1667 11.3873 82.8926 11.0431 81.378 11.0431C80.2253 11.0431 79.1919 11.2497 78.2799 11.6627C77.386 12.0585 76.6373 12.6006 76.0346 13.2891C75.4319 13.9775 74.9673 14.7607 74.6399 15.6386C74.3306 16.499 74.1753 17.4025 74.1753 18.3491V18.8655C74.1753 19.7778 74.3306 20.6727 74.6399 21.5504C74.9673 22.411 75.4319 23.1939 76.0346 23.8997C76.654 24.5885 77.4193 25.139 78.332 25.5522ZM78.164 17.139C78.1753 17.0843 78.1873 17.0304 78.2007 16.9774C78.2366 16.8315 78.278 16.6916 78.3246 16.5581C78.3513 16.4819 78.3793 16.4077 78.41 16.3356C78.668 15.6987 79.0467 15.2169 79.5453 14.8898C79.732 14.7677 79.934 14.6683 80.1513 14.5918C80.5166 14.4636 80.926 14.3993 81.378 14.3993C82.0846 14.3993 82.6693 14.5629 83.134 14.8898C83.6159 15.1996 83.9773 15.6557 84.218 16.258C84.238 16.3067 84.2559 16.3562 84.274 16.4062C84.3027 16.4861 84.3293 16.568 84.354 16.6519C84.39 16.7769 84.422 16.9061 84.45 17.0398C84.4707 17.1383 84.4879 17.2391 84.5039 17.3425H78.1246C78.1367 17.2734 78.1493 17.2057 78.164 17.139Z" fill="#13182B"/>
<path d="M90.1323 25.6813V11.5336H93.4117V15.0968C93.4557 14.885 93.5063 14.6816 93.563 14.4867C93.6117 14.3226 93.6636 14.1642 93.721 14.012C94.083 13.048 94.625 12.3253 95.3477 11.8432C96.0703 11.3442 96.9563 11.0947 98.007 11.0947H98.187C99.2544 11.0947 100.141 11.3442 100.846 11.8432C101.569 12.3253 102.112 13.048 102.473 14.012L102.502 14.0847L102.526 14.1512C102.542 14.1042 102.559 14.0578 102.576 14.012C102.955 13.048 103.506 12.3253 104.228 11.8432C104.952 11.3442 105.838 11.0947 106.888 11.0947H107.069C108.135 11.0947 109.031 11.3442 109.753 11.8432C110.494 12.3253 111.053 13.048 111.431 14.012C111.809 14.9758 111.999 16.1807 111.999 17.6264V25.6813H107.869V17.3939C107.869 16.6194 107.662 15.9913 107.249 15.5093C106.854 15.0274 106.285 14.7865 105.546 14.7865C104.805 14.7865 104.22 15.0362 103.79 15.5352C103.36 16.017 103.144 16.6624 103.144 17.4715V25.6813H98.9877V17.3939C98.9877 16.6194 98.7811 15.9913 98.3684 15.5093C97.9723 15.0274 97.4131 14.7865 96.6904 14.7865C95.9323 14.7865 95.339 15.0362 94.9091 15.5352C94.4783 16.017 94.263 16.6624 94.263 17.4715V25.6813H90.1323Z" fill="#13182B"/>
<path fill-rule="evenodd" clip-rule="evenodd" d="M123.034 22.9556V25.6818H126.312V17.0073C126.312 15.6992 126.053 14.6322 125.537 13.806C125.021 12.9626 124.265 12.3344 123.265 11.9214C122.285 11.5084 121.071 11.3018 119.626 11.3018C119.312 11.3018 118.985 11.3051 118.644 11.3119C118.443 11.3161 118.236 11.3213 118.025 11.3276C117.457 11.3447 116.906 11.3706 116.372 11.405L115.965 11.4325C115.756 11.447 115.558 11.4614 115.374 11.4759C115.235 11.4867 115.103 11.4976 114.979 11.5084V14.9937C115.513 14.9591 116.106 14.9247 116.761 14.8903C116.943 14.8807 117.124 14.8719 117.305 14.8636C117.564 14.8515 117.82 14.8411 118.074 14.832C118.275 14.8246 118.474 14.8182 118.67 14.8128C119.29 14.7955 119.789 14.7871 120.168 14.7871C120.925 14.7871 121.475 14.9677 121.82 15.3292C122.164 15.6907 122.336 16.2327 122.336 16.9557V17.0073H119.78C118.524 17.0073 117.414 17.1709 116.449 17.4978C115.486 17.8076 114.737 18.2981 114.204 18.9693C113.67 19.6235 113.404 20.4668 113.404 21.4993C113.404 22.4461 113.619 23.2636 114.049 23.9522C114.479 24.6235 115.073 25.1394 115.83 25.501C116.605 25.8623 117.5 26.0431 118.515 26.0431C119.497 26.0431 120.322 25.8623 120.994 25.501C121.682 25.1394 122.216 24.6235 122.594 23.9522C122.66 23.8388 122.723 23.7215 122.782 23.5996C122.863 23.4273 122.937 23.2461 123.001 23.0559L123.034 22.9556ZM122.336 20.441V19.3051H119.754C119.032 19.3051 118.473 19.4857 118.077 19.8471C117.698 20.1914 117.508 20.6646 117.508 21.2669C117.508 21.5505 117.555 21.8085 117.649 22.0404C117.745 22.2733 117.887 22.4801 118.077 22.6614C118.473 23.0055 119.032 23.1774 119.754 23.1774C119.892 23.1774 120.025 23.1706 120.154 23.1573C120.258 23.1462 120.361 23.1305 120.459 23.1105C120.649 23.0721 120.827 23.0171 120.994 22.945C121.373 22.7731 121.682 22.4892 121.923 22.0929C122.164 21.6972 122.302 21.1467 122.336 20.441Z" fill="#13182B"/>
<path d="M128.785 25.6818V11.5341H132.064V16.2038C132.22 14.8707 132.616 13.7959 133.251 12.9798C134.112 11.8955 135.35 11.3535 136.969 11.3535H137.511V14.9161H136.479C135.343 14.9161 134.465 15.2258 133.845 15.8454C133.225 16.4478 132.915 17.3257 132.915 18.4787V25.6818H128.785Z" fill="#13182B"/>
<path d="M142.747 19.0722H144.115L148.582 25.6814H153.229L147.565 17.5645L152.222 11.5337H147.885L142.747 18.2606V6.83508H138.617V25.6814H142.747V19.0722Z" fill="#13182B"/>
</g>
</g>
</g>
<defs>
<clipPath id="clip0_754_2267">
<rect width="152.533" height="32" fill="white" transform="translate(0.856934)"/>
</clipPath>
</defs>
</svg>
