<svg width="153" height="32" viewBox="0 0 153 32" fill="none" xmlns="http://www.w3.org/2000/svg">
<path d="M150.555 14.8732L146.966 15.0941C146.904 14.7873 146.773 14.5112 146.569 14.2657C146.367 14.014 146.101 13.8146 145.768 13.6673C145.444 13.5139 145.054 13.4372 144.599 13.4372C143.992 13.4372 143.479 13.5661 143.062 13.8238C142.646 14.0754 142.437 14.413 142.437 14.8364C142.437 15.1739 142.571 15.4593 142.841 15.6925C143.111 15.9257 143.574 16.1129 144.231 16.254L146.79 16.7695C148.166 17.0519 149.19 17.506 149.865 18.132C150.54 18.7579 150.878 19.5802 150.878 20.599C150.878 21.5257 150.605 22.3388 150.058 23.0384C149.518 23.738 148.776 24.2841 147.83 24.6769C146.892 25.0635 145.809 25.2569 144.582 25.2569C142.71 25.2569 141.219 24.8672 140.107 24.0878C139.003 23.3023 138.356 22.2345 138.166 20.8843L142.022 20.6818C142.139 21.2525 142.422 21.6883 142.87 21.989C143.318 22.2836 143.891 22.4309 144.591 22.4309C145.278 22.4309 145.83 22.2989 146.247 22.035C146.671 21.765 146.886 21.4183 146.892 20.9948C146.886 20.6389 146.735 20.3474 146.44 20.1203C146.146 19.8871 145.692 19.7091 145.078 19.5864L142.63 19.0984C141.249 18.8223 140.221 18.3436 139.546 17.6625C138.877 16.9813 138.543 16.1129 138.543 15.0573C138.543 14.1491 138.788 13.3666 139.279 12.7099C139.776 12.0534 140.472 11.547 141.368 11.1911C142.271 10.8351 143.326 10.6572 144.535 10.6572C146.321 10.6572 147.727 11.0346 148.751 11.7895C149.782 12.5443 150.384 13.5722 150.555 14.8732Z" fill="#13182B"/>
<path d="M135.999 14.8732L132.409 15.0941C132.348 14.7873 132.216 14.5112 132.014 14.2657C131.81 14.014 131.544 13.8146 131.213 13.6673C130.887 13.5139 130.497 13.4372 130.044 13.4372C129.436 13.4372 128.924 13.5661 128.506 13.8238C128.089 14.0754 127.88 14.413 127.88 14.8364C127.88 15.1739 128.015 15.4593 128.285 15.6925C128.555 15.9257 129.019 16.1129 129.675 16.254L132.234 16.7695C133.609 17.0519 134.634 17.506 135.309 18.132C135.983 18.7579 136.321 19.5802 136.321 20.599C136.321 21.5257 136.048 22.3388 135.502 23.0384C134.962 23.738 134.22 24.2841 133.275 24.6769C132.335 25.0635 131.252 25.2569 130.025 25.2569C128.153 25.2569 126.662 24.8672 125.551 24.0878C124.447 23.3023 123.799 22.2345 123.609 20.8843L127.466 20.6818C127.583 21.2525 127.865 21.6883 128.313 21.989C128.761 22.2836 129.334 22.4309 130.034 22.4309C130.721 22.4309 131.274 22.2989 131.691 22.035C132.114 21.765 132.329 21.4183 132.335 20.9948C132.329 20.6389 132.179 20.3474 131.885 20.1203C131.59 19.8871 131.135 19.7091 130.522 19.5864L128.073 19.0984C126.692 18.8223 125.664 18.3436 124.99 17.6625C124.32 16.9813 123.986 16.1129 123.986 15.0573C123.986 14.1491 124.232 13.3666 124.722 12.7099C125.219 12.0534 125.916 11.547 126.812 11.1911C127.714 10.8351 128.77 10.6572 129.979 10.6572C131.765 10.6572 133.17 11.0346 134.195 11.7895C135.226 12.5443 135.827 13.5722 135.999 14.8732Z" fill="#13182B"/>
<path d="M115.188 25.2569C113.734 25.2569 112.482 24.9623 111.433 24.3732C110.389 23.7779 109.585 22.9371 109.02 21.8509C108.456 20.7585 108.173 19.4667 108.173 17.9754C108.173 16.521 108.456 15.2445 109.02 14.146C109.585 13.0475 110.38 12.1914 111.404 11.5777C112.436 10.964 113.644 10.6572 115.032 10.6572C115.964 10.6572 116.833 10.8075 117.637 11.1082C118.447 11.4028 119.153 11.8477 119.755 12.443C120.362 13.0383 120.834 13.787 121.172 14.6891C121.509 15.5851 121.678 16.6345 121.678 17.8374V18.9144H109.739V16.4841H117.987C117.987 15.9195 117.864 15.4194 117.618 14.9837C117.373 14.548 117.033 14.2073 116.597 13.9619C116.167 13.7103 115.667 13.5845 115.097 13.5845C114.501 13.5845 113.973 13.7225 113.513 13.9987C113.059 14.2687 112.703 14.6339 112.445 15.0941C112.187 15.5483 112.056 16.0546 112.049 16.6131V18.9236C112.049 19.6232 112.178 20.2277 112.436 20.737C112.699 21.2464 113.071 21.6392 113.549 21.9153C114.028 22.1915 114.596 22.3296 115.253 22.3296C115.689 22.3296 116.088 22.2682 116.449 22.1455C116.811 22.0227 117.121 21.8386 117.379 21.5931C117.637 21.3477 117.834 21.047 117.968 20.691L121.595 20.9304C121.411 21.8018 121.034 22.5627 120.463 23.2133C119.899 23.8577 119.168 24.3608 118.272 24.7229C117.382 25.0789 116.354 25.2569 115.188 25.2569Z" fill="#13182B"/>
<path d="M96.5385 16.8064V24.9807H92.6167V10.8413H96.354V13.3359H96.5197C96.8331 12.5136 97.3573 11.8631 98.0943 11.3844C98.8303 10.8996 99.7234 10.6572 100.773 10.6572C101.754 10.6572 102.611 10.872 103.341 11.3016C104.072 11.7311 104.639 12.3449 105.044 13.1426C105.449 13.9343 105.652 14.8793 105.652 15.9779V24.9807H101.73V16.6775C101.736 15.8121 101.515 15.1371 101.067 14.6523C100.619 14.1613 100.002 13.9159 99.2171 13.9159C98.6891 13.9159 98.2232 14.0294 97.8175 14.2565C97.4185 14.4836 97.106 14.815 96.8792 15.2506C96.658 15.6803 96.5441 16.1988 96.5385 16.8064Z" fill="#13182B"/>
<path d="M85.555 24.9813V10.842H89.4764V24.9813H85.555ZM87.5249 9.01927C86.9419 9.01927 86.4418 8.82595 86.0245 8.43932C85.6133 8.04656 85.4077 7.57709 85.4077 7.03091C85.4077 6.49086 85.6133 6.02752 86.0245 5.6409C86.4418 5.24813 86.9419 5.05176 87.5249 5.05176C88.108 5.05176 88.605 5.24813 89.0162 5.6409C89.4335 6.02752 89.6422 6.49086 89.6422 7.03091C89.6422 7.57709 89.4335 8.04656 89.0162 8.43932C88.605 8.82595 88.108 9.01927 87.5249 9.01927Z" fill="#13182B"/>
<path d="M82.763 14.8732L79.1728 15.0941C79.1115 14.7873 78.9795 14.5112 78.777 14.2657C78.5744 14.014 78.3075 13.8146 77.9761 13.6673C77.6509 13.5139 77.2612 13.4372 76.8071 13.4372C76.1995 13.4372 75.6871 13.5661 75.2698 13.8238C74.8525 14.0754 74.6438 14.413 74.6438 14.8364C74.6438 15.1739 74.7788 15.4593 75.0488 15.6925C75.3188 15.9257 75.7822 16.1129 76.4388 16.254L78.998 16.7695C80.3726 17.0519 81.3975 17.506 82.0725 18.132C82.7476 18.7579 83.0851 19.5802 83.0851 20.599C83.0851 21.5257 82.812 22.3388 82.2658 23.0384C81.7258 23.738 80.9832 24.2841 80.0382 24.6769C79.0991 25.0635 78.016 25.2569 76.7887 25.2569C74.9169 25.2569 73.4256 24.8672 72.3149 24.0878C71.2102 23.3023 70.5628 22.2345 70.3726 20.8843L74.2296 20.6818C74.3461 21.2525 74.6285 21.6883 75.0765 21.989C75.5245 22.2836 76.0982 22.4309 76.7979 22.4309C77.4852 22.4309 78.0375 22.2989 78.4548 22.035C78.8783 21.765 79.093 21.4183 79.0991 20.9948C79.093 20.6389 78.9427 20.3474 78.6481 20.1203C78.3535 19.8871 77.8994 19.7091 77.2858 19.5864L74.8371 19.0984C73.4563 18.8223 72.4284 18.3436 71.7534 17.6625C71.0844 16.9813 70.75 16.1129 70.75 15.0573C70.75 14.1491 70.9954 13.3666 71.4863 12.7099C71.9835 12.0534 72.6799 11.547 73.5759 11.1911C74.4781 10.8351 75.5337 10.6572 76.7426 10.6572C78.5284 10.6572 79.9338 11.0346 80.9586 11.7895C81.9897 12.5443 82.5911 13.5722 82.763 14.8732Z" fill="#13182B"/>
<path d="M63.9399 18.9607V10.8417H67.8613V24.9811H64.0963V22.4128H63.949C63.6299 23.2413 63.0991 23.9071 62.3565 24.4103C61.62 24.9136 60.721 25.1652 59.6593 25.1652C58.7143 25.1652 57.8827 24.9504 57.1647 24.5208C56.4467 24.0912 55.8852 23.4806 55.4801 22.6889C55.0812 21.8973 54.8787 20.9492 54.8726 19.8445V10.8417H58.7941V19.1449C58.8002 19.9795 59.0242 20.6392 59.466 21.124C59.9079 21.6088 60.5 21.8513 61.2426 21.8513C61.7152 21.8513 62.1571 21.7439 62.5682 21.5291C62.9794 21.3081 63.3108 20.9829 63.5624 20.5533C63.8201 20.1237 63.946 19.5928 63.9399 18.9607Z" fill="#13182B"/>
<path d="M38.4683 24.9815V6.12891H42.3898V13.217H42.5095C42.6813 12.8365 42.9298 12.4499 43.2551 12.0571C43.5865 11.6583 44.016 11.3269 44.5438 11.063C45.0778 10.7929 45.7405 10.658 46.5322 10.658C47.5632 10.658 48.5144 10.928 49.3858 11.468C50.2572 12.0019 50.9538 12.8089 51.4755 13.889C51.9971 14.963 52.2579 16.31 52.2579 17.9302C52.2579 19.5074 52.0032 20.8391 51.4939 21.9253C50.9906 23.0054 50.3033 23.8247 49.4318 24.3831C48.5666 24.9354 47.5969 25.2116 46.5229 25.2116C45.762 25.2116 45.1146 25.0858 44.5806 24.8342C44.0529 24.5826 43.6203 24.2665 43.2827 23.886C42.9452 23.4994 42.6875 23.1097 42.5095 22.717H42.3345V24.9815H38.4683ZM42.3069 17.9118C42.3069 18.7526 42.4236 19.4858 42.6568 20.1118C42.8899 20.7378 43.2275 21.2257 43.6693 21.5755C44.1112 21.9191 44.6481 22.091 45.2803 22.091C45.9185 22.091 46.4586 21.9161 46.9005 21.5663C47.3422 21.2103 47.6767 20.7194 47.9037 20.0935C48.137 19.4614 48.2536 18.7341 48.2536 17.9118C48.2536 17.0955 48.1401 16.3775 47.913 15.7577C47.686 15.1379 47.3515 14.6531 46.9096 14.3032C46.4678 13.9535 45.9246 13.7785 45.2803 13.7785C44.642 13.7785 44.102 13.9473 43.6601 14.2849C43.2244 14.6224 42.8899 15.1011 42.6568 15.7208C42.4236 16.3407 42.3069 17.071 42.3069 17.9118Z" fill="#13182B"/>
<path fill-rule="evenodd" clip-rule="evenodd" d="M16.0716 11.6388L20.3136 15.8807L16.2745 19.9197L12.0326 15.6777L16.0716 11.6388ZM11.7224 7.28953L9.06284 4.62998C8.91113 4.47828 8.91113 4.23232 9.06284 4.08062L12.8627 0.280771C13.0144 0.129066 13.2603 0.129066 13.4121 0.280771L26.4025 13.2711C27.8437 14.7124 27.8437 17.049 26.4025 18.4903L20.6238 24.2689L23.2833 26.9285C23.435 27.0802 23.435 27.3261 23.2833 27.4778L19.4835 31.2777C19.3318 31.4294 19.0858 31.4294 18.9341 31.2777L5.9437 18.2872C4.50249 16.8461 4.50249 14.5095 5.9437 13.0682L11.7224 7.28953Z" fill="#13182B"/>
</svg>
