<svg width="118" height="32" viewBox="0 0 118 32" fill="none" xmlns="http://www.w3.org/2000/svg">
<path d="M104.674 24.3827C103.573 23.7217 102.691 22.8404 102.03 21.7387C101.369 20.637 101.066 19.4251 101.066 18.1031C101.066 16.8086 101.369 15.5967 102.03 14.495C102.691 13.3933 103.573 12.5119 104.674 11.8509C105.776 11.1899 106.988 10.8594 108.31 10.8594C109.605 10.8594 110.816 11.1899 111.918 11.8509C113.02 12.5119 113.901 13.3933 114.562 14.495C115.223 15.5967 115.554 16.8086 115.554 18.1031C115.554 19.4251 115.223 20.637 114.562 21.7387C113.901 22.8404 113.02 23.7217 111.918 24.3827C110.816 25.0437 109.605 25.3467 108.31 25.3467C106.988 25.3467 105.776 25.0437 104.674 24.3827ZM110.21 21.4357C110.789 21.1052 111.257 20.637 111.615 20.031C111.946 19.4526 112.138 18.8192 112.138 18.1031C112.138 17.4145 111.946 16.781 111.615 16.1751C111.257 15.5967 110.789 15.1285 110.21 14.7704C109.605 14.4399 108.971 14.2471 108.282 14.2471C107.566 14.2471 106.933 14.4399 106.355 14.7704C105.749 15.1285 105.28 15.5967 104.95 16.1751C104.619 16.781 104.454 17.4145 104.454 18.1031C104.454 18.8192 104.619 19.4526 104.95 20.031C105.28 20.637 105.749 21.1052 106.355 21.4357C106.933 21.7662 107.566 21.9315 108.282 21.9315C108.971 21.9315 109.605 21.7662 110.21 21.4357Z" fill="#13182B"/>
<path d="M96.0411 8.38084C95.6555 8.05033 95.4902 7.55457 95.4902 6.94864C95.4902 6.3427 95.6555 5.84694 96.0411 5.48889C96.3991 5.15838 96.8949 4.96558 97.5559 4.96558C98.1894 4.96558 98.6852 5.15838 99.0708 5.48889C99.4288 5.84694 99.6216 6.3427 99.6216 6.94864C99.6216 7.55457 99.4288 8.02279 99.0432 8.38084C98.6576 8.73889 98.1619 8.90415 97.5559 8.90415C96.8949 8.90415 96.3991 8.73889 96.0411 8.38084ZM95.8207 24.9614V11.1902H99.236V24.9614H95.8207Z" fill="#13182B"/>
<path d="M89.1389 5.68176H92.5542V24.9614H89.1389V23.6394C88.5054 24.1902 87.8169 24.6309 87.0457 24.9064C86.2745 25.2093 85.4758 25.347 84.6495 25.347C83.2448 25.347 82.0329 25.0441 80.9863 24.4106C79.9397 23.8047 79.1134 22.9233 78.5626 21.8216C78.0118 20.7199 77.7363 19.4805 77.7363 18.1034C77.7363 16.7262 78.0118 15.4868 78.5626 14.3851C79.1134 13.2834 79.9397 12.4296 80.9863 11.7962C82.0329 11.1627 83.2448 10.8322 84.6495 10.8322C85.4758 10.8322 86.2469 10.9974 87.0181 11.3004C87.7893 11.6034 88.4779 12.0165 89.1389 12.5398V5.68176ZM87.1283 21.5737C87.7342 21.2432 88.23 20.7474 88.588 20.1415C88.9461 19.5356 89.1389 18.847 89.1389 18.0758C89.1389 16.919 88.7258 15.9826 87.9546 15.239C87.1834 14.5229 86.2194 14.1373 85.0902 14.1373C83.9334 14.1373 82.9694 14.5229 82.2257 15.2665C81.4821 16.0101 81.124 16.9466 81.124 18.1034C81.124 19.2602 81.4821 20.2241 82.2257 20.9678C82.9694 21.7114 83.9334 22.0695 85.0902 22.0695C85.8338 22.0695 86.5224 21.9042 87.1283 21.5737Z" fill="#13182B"/>
<path d="M72.2335 11.1902H75.6487V24.9614H72.2335V23.8046C71.7377 24.2729 71.1868 24.6309 70.5809 24.9063C69.975 25.1818 69.314 25.3195 68.6529 25.3195C67.8267 25.3195 67.0004 25.1542 66.1741 24.8237C65.3478 24.4932 64.6317 23.8597 64.0258 22.9784C63.4199 22.097 63.1445 20.9127 63.1445 19.4254V11.1902H66.5597V19.4254C66.5597 20.472 66.8351 21.2157 67.4135 21.6563C67.9919 22.097 68.6805 22.3174 69.4517 22.3174C70.2229 22.3174 70.8563 22.0695 71.4072 21.5186C71.958 20.9678 72.2335 20.114 72.2335 18.9021V11.1902Z" fill="#13182B"/>
<path d="M58.5758 21.5462C58.8512 21.794 59.3195 21.9042 59.9805 21.9042C60.3661 21.9042 60.7792 21.8767 61.2474 21.8216V24.9614C60.3661 25.0716 59.65 25.0991 59.0991 25.0991C57.6118 25.0991 56.5101 24.7686 55.794 24.1076C55.0779 23.4466 54.7199 22.2347 54.7199 20.472V14.2474H52.1309V11.1902H54.7199V7.80253L58.1351 6.64575V11.1902H61.1923V14.2474H58.1351V20.2517C58.1351 20.8851 58.2728 21.3258 58.5758 21.5462Z" fill="#13182B"/>
<path d="M44.1541 15.9275C44.5948 16.1203 45.2833 16.3131 46.2198 16.5059C47.2664 16.7262 48.1753 16.9741 48.8914 17.2495C49.6075 17.525 50.2134 17.9656 50.7367 18.5716C51.26 19.1775 51.5354 19.9762 51.5354 20.9678C51.5354 21.8767 51.26 22.6479 50.7092 23.3089C50.1583 23.9699 49.4422 24.4932 48.5609 24.8237C47.652 25.1542 46.6604 25.3195 45.6138 25.3195C44.1541 25.3195 42.9147 25.044 41.8681 24.4932C40.8214 23.9423 40.0778 23.1712 39.582 22.1245L42.3914 20.6648C42.8871 21.9318 43.9613 22.5652 45.6138 22.5652C46.3299 22.5652 46.9359 22.4275 47.4592 22.1521C47.9549 21.8767 48.2304 21.4911 48.2304 20.9678C48.2304 20.5271 47.9825 20.2241 47.5143 20.0038C47.046 19.7834 46.3024 19.5631 45.2558 19.2877C44.1541 19.0398 43.2727 18.7919 42.6117 18.5165C41.9231 18.2686 41.3447 17.883 40.849 17.3322C40.3532 16.7813 40.1053 16.0652 40.1053 15.1563C40.1053 14.275 40.3532 13.5313 40.849 12.8703C41.3447 12.2093 42.0058 11.7135 42.8596 11.3555C43.6859 11.0249 44.6223 10.8322 45.6414 10.8322C46.8257 10.8322 47.8998 11.08 48.8363 11.5758C49.7727 12.0716 50.5164 12.7877 51.0397 13.6966L48.2579 15.1012C47.7621 14.0822 46.9083 13.5589 45.6414 13.5589C44.9803 13.5589 44.4846 13.6966 44.099 13.972C43.7134 14.2474 43.5206 14.6055 43.5206 15.0461C43.5206 15.4317 43.7134 15.7347 44.1541 15.9275Z" fill="#13182B"/>
<mask id="mask0_754_2197" style="mask-type:alpha" maskUnits="userSpaceOnUse" x="0" y="0" width="32" height="31">
<path d="M15.8853 30.7138C24.336 30.7138 31.1866 23.8632 31.1866 15.4125C31.1866 6.96183 24.336 0.111206 15.8853 0.111206C7.43461 0.111206 0.583984 6.96183 0.583984 15.4125C0.583984 23.8632 7.43461 30.7138 15.8853 30.7138Z" fill="#D9D9D9"/>
</mask>
<g mask="url(#mask0_754_2197)">
<path d="M10.3214 15.6516L-1.86579 18.9171C-2.76295 19.1575 -3.29536 20.0797 -3.05497 20.9769L0.21058 33.164C0.450972 34.0612 1.37314 34.5936 2.2703 34.3532L14.4575 31.0877C15.3546 30.8473 15.887 29.9251 15.6467 29.028L12.3811 16.8408C12.1407 15.9436 11.2186 15.4112 10.3214 15.6516Z" fill="#13182B"/>
<path d="M29.4991 15.6516L17.3119 18.9171C16.4148 19.1575 15.8824 20.0797 16.1228 20.9769L19.3883 33.164C19.6287 34.0612 20.5509 34.5936 21.448 34.3532L33.6352 31.0877C34.5324 30.8473 35.0648 29.9251 34.8244 29.028L31.5588 16.8408C31.3185 15.9436 30.3963 15.4112 29.4991 15.6516Z" fill="#13182B"/>
<path d="M29.4991 -3.52808L17.3119 -0.262539C16.4148 -0.0221469 15.8824 0.900019 16.1228 1.79718L19.3883 13.9844C19.6287 14.8815 20.5509 15.4139 21.448 15.1735L33.6352 11.908C34.5324 11.6676 35.0648 10.7454 34.8244 9.84827L31.5588 -2.33891C31.3185 -3.23607 30.3963 -3.76848 29.4991 -3.52808Z" fill="#13182B"/>
<path d="M10.3214 -3.52809L-1.86579 -0.262539C-2.76295 -0.022147 -3.29536 0.900019 -3.05497 1.79718L0.21058 13.9844C0.450973 14.8815 1.37314 15.4139 2.2703 15.1735L14.4575 11.908C15.3546 11.6676 15.887 10.7454 15.6467 9.84827L12.3811 -2.33891C12.1407 -3.23607 11.2186 -3.76848 10.3214 -3.52809Z" fill="#13182B"/>
</g>
</svg>
