<svg width="178" height="32" viewBox="0 0 178 32" fill="none" xmlns="http://www.w3.org/2000/svg">
<g clip-path="url(#clip0_754_2239)">
<mask id="mask0_754_2239" style="mask-type:luminance" maskUnits="userSpaceOnUse" x="0" y="0" width="178" height="32">
<path d="M177.387 0H0.155762V32H177.387V0Z" fill="white"/>
</mask>
<g mask="url(#mask0_754_2239)">
<mask id="mask1_754_2239" style="mask-type:luminance" maskUnits="userSpaceOnUse" x="0" y="0" width="177" height="32">
<path d="M176.717 0H0.716309V32H176.717V0Z" fill="white"/>
</mask>
<g mask="url(#mask1_754_2239)">
<path d="M57.0562 28.5883C54.5229 28.5883 52.2834 28.0908 50.3378 27.0953C48.3921 26.0771 46.8879 24.641 45.8248 22.7859C44.7615 20.9308 44.23 18.7478 44.23 16.2369C44.23 13.7259 44.7615 11.5429 45.8248 9.68796C46.8879 7.81034 48.3921 6.37391 50.3378 5.37857C52.2834 4.36058 54.5229 3.85156 57.0562 3.85156C58.7756 3.85156 60.2913 4.03257 61.6031 4.39452C62.9382 4.73385 64.1595 5.27674 65.2678 6.02327V10.9435C64.2726 10.1291 63.1304 9.54092 61.8409 9.179C60.5741 8.79436 59.1265 8.60212 57.4977 8.60212C55.982 8.60212 54.613 8.91884 53.3916 9.5522C52.1928 10.163 51.2428 11.0452 50.5415 12.1989C49.8402 13.3526 49.4893 14.6986 49.4893 16.2369C49.4893 17.7978 49.8061 19.1664 50.4393 20.3427C51.0956 21.4965 52.0116 22.3899 53.1879 23.0234C54.3643 23.6567 55.7217 23.9734 57.2599 23.9734C58.6625 23.9734 59.8838 23.7247 60.9245 23.227V18.6462H57.0902V14.8457H65.9124V26.2809C63.6731 27.819 60.7213 28.5883 57.0562 28.5883Z" fill="#13182B"/>
<path d="M67.105 11.7922H72.0588V14.1335C72.7151 13.3419 73.6311 12.7424 74.8074 12.3351C75.9838 11.9053 77.3186 11.6904 78.8113 11.6904V15.5926C77.2506 15.5926 75.8706 15.8302 74.6717 16.3052C73.4955 16.7803 72.6811 17.5041 72.2285 18.4769V28.0798H67.105V11.7922Z" fill="#13182B"/>
<path d="M88.657 28.5888C85.5346 28.5888 83.0802 27.842 81.293 26.3494C79.5062 24.8337 78.6128 22.7184 78.6128 20.0039C78.6128 17.3118 79.4047 15.1854 80.9882 13.6246C82.5938 12.0637 84.8786 11.2832 87.8426 11.2832C89.7874 11.2832 91.4386 11.6452 92.7962 12.3691C94.1538 13.093 95.1834 14.0996 95.8842 15.389C96.5858 16.6558 96.9362 18.0923 96.9362 19.6984V21.7683H83.4994C83.861 23.8496 85.8066 24.8903 89.3354 24.8903C90.3754 24.8903 91.4506 24.7996 92.5586 24.6184C93.6674 24.4377 94.629 24.1888 95.4434 23.8721V27.469C94.6514 27.8084 93.633 28.0797 92.389 28.2834C91.145 28.4867 89.901 28.5888 88.657 28.5888ZM92.0834 18.4429C92.0162 17.3571 91.609 16.5202 90.8626 15.932C90.1162 15.3211 89.0866 15.0157 87.7746 15.0157C86.485 15.0157 85.4666 15.3211 84.7202 15.932C83.9738 16.5427 83.5666 17.3796 83.4994 18.4429H92.0834Z" fill="#13182B"/>
<path d="M107.438 28.5888C104.317 28.5888 101.862 27.842 100.075 26.3494C98.2877 24.8337 97.394 22.7184 97.394 20.0039C97.394 17.3118 98.186 15.1854 99.7693 13.6246C101.376 12.0637 103.661 11.2832 106.624 11.2832C108.569 11.2832 110.221 11.6452 111.578 12.3691C112.935 13.093 113.965 14.0996 114.665 15.389C115.367 16.6558 115.718 18.0923 115.718 19.6984V21.7683H102.28C102.642 23.8496 104.588 24.8903 108.117 24.8903C109.157 24.8903 110.232 24.7996 111.341 24.6184C112.448 24.4377 113.41 24.1888 114.224 23.8721V27.469C113.432 27.8084 112.415 28.0797 111.171 28.2834C109.926 28.4867 108.683 28.5888 107.438 28.5888ZM110.865 18.4429C110.797 17.3571 110.39 16.5202 109.644 15.932C108.897 15.3211 107.868 15.0157 106.557 15.0157C105.267 15.0157 104.248 15.3211 103.502 15.932C102.756 16.5427 102.349 17.3796 102.28 18.4429H110.865Z" fill="#13182B"/>
<path d="M116.855 11.7922H121.809V13.7943C122.556 12.9572 123.438 12.3351 124.456 11.9279C125.497 11.4981 126.582 11.2832 127.714 11.2832C129.93 11.2832 131.582 11.8827 132.669 13.0816C133.776 14.258 134.33 15.8528 134.33 17.866V28.0797H129.206V18.4429C129.206 16.3392 128.234 15.2873 126.288 15.2873C125.429 15.2873 124.626 15.5021 123.88 15.932C123.133 16.3392 122.499 16.9499 121.979 17.7643V28.0797H116.855V11.7922Z" fill="#13182B"/>
<path d="M138.851 9.2812C138.059 9.2812 137.392 9.02104 136.849 8.50072C136.307 7.98047 136.035 7.32445 136.035 6.53267C136.035 5.76358 136.307 5.11886 136.849 4.59853C137.392 4.05563 138.059 3.78418 138.851 3.78418C139.643 3.78418 140.31 4.05563 140.853 4.59853C141.397 5.11886 141.668 5.76358 141.668 6.53267C141.668 7.32445 141.397 7.98047 140.853 8.50072C140.31 9.02104 139.643 9.2812 138.851 9.2812ZM136.272 11.7922H141.43V28.0798H136.272V11.7922Z" fill="#13182B"/>
<path d="M150.168 28.5888C148.946 28.5888 147.634 28.4532 146.232 28.1814C144.852 27.9325 143.767 27.5707 142.974 27.0957V23.0916C143.879 23.6345 144.964 24.0758 146.232 24.4151C147.5 24.7545 148.675 24.9243 149.761 24.9243C150.689 24.9243 151.367 24.8446 151.796 24.6865C152.226 24.5282 152.441 24.234 152.441 23.8043C152.441 23.4649 152.317 23.1936 152.068 22.9899C151.82 22.7636 151.434 22.5714 150.914 22.413C150.417 22.232 149.58 21.9719 148.403 21.6326C147.023 21.2254 145.938 20.8183 145.146 20.411C144.377 19.9812 143.789 19.4496 143.381 18.8162C142.996 18.1828 142.804 17.3684 142.804 16.373C142.804 14.6764 143.471 13.4096 144.807 12.5726C146.164 11.713 147.997 11.2832 150.303 11.2832C151.434 11.2832 152.6 11.4076 153.799 11.6565C155.02 11.8827 155.959 12.1881 156.615 12.5726V16.4749C155.959 16.045 155.1 15.6944 154.036 15.423C152.996 15.1515 151.977 15.0157 150.983 15.0157C150.055 15.0157 149.331 15.1063 148.812 15.2873C148.313 15.4683 148.063 15.8075 148.063 16.3052C148.063 16.7351 148.301 17.0631 148.777 17.2893C149.274 17.5154 150.191 17.7982 151.525 18.1376L152.204 18.3072C153.629 18.6918 154.738 19.1216 155.529 19.5966C156.321 20.0491 156.876 20.6033 157.192 21.2593C157.532 21.8928 157.701 22.6958 157.701 23.6685C157.701 25.1616 157.057 26.3603 155.767 27.2653C154.477 28.1479 152.611 28.5888 150.168 28.5888Z" fill="#13182B"/>
<path d="M158.886 3.00293H164.01V13.6577C164.779 12.866 165.651 12.2778 166.623 11.8932C167.595 11.486 168.636 11.2824 169.744 11.2824C171.962 11.2824 173.612 11.8819 174.699 13.0808C175.807 14.2572 176.362 15.852 176.362 17.8653V28.079H171.237V18.4422C171.237 16.3383 170.265 15.2865 168.32 15.2865C167.46 15.2865 166.656 15.5014 165.91 15.9312C165.164 16.3383 164.531 16.9492 164.01 17.7636V28.079H158.886V3.00293Z" fill="#13182B"/>
<path fill-rule="evenodd" clip-rule="evenodd" d="M26.731 7.80443C26.731 12.1147 23.2371 15.6089 18.9268 15.6089C14.6164 15.6089 11.1223 12.1147 11.1223 7.80443C11.1223 3.49417 14.6164 0 18.9268 0C23.2371 0 26.731 3.49417 26.731 7.80443ZM0.773023 15.0417C9.27575 14.4686 16.6862 20.8346 17.3764 29.3553C17.448 30.2383 17.4446 31.1103 17.3715 31.9642C8.86871 32.5372 1.45833 26.1713 0.768068 17.6506C0.696589 16.7676 0.699992 15.8959 0.773023 15.0417ZM22.8729 31.6658C31.3936 30.9755 37.7597 23.5653 37.1865 15.0625C36.3321 14.9895 35.4606 14.9862 34.5776 15.0577C26.0567 15.7478 19.6909 23.1583 20.264 31.6608C21.1182 31.7339 21.9899 31.7375 22.8729 31.6658Z" fill="#13182B"/>
</g>
</g>
</g>
<defs>
<clipPath id="clip0_754_2239">
<rect width="177.231" height="32" fill="white" transform="translate(0.155762)"/>
</clipPath>
</defs>
</svg>
