<svg width="158" height="32" viewBox="0 0 158 32" fill="none" xmlns="http://www.w3.org/2000/svg">
<path d="M146.551 16.6037H152.255C152.203 15.3331 151.374 14.0885 149.403 14.0885C147.614 14.0885 146.628 15.4368 146.551 16.6037ZM152.592 19.9227L155.471 20.7784C154.823 22.9824 152.799 24.8234 149.662 24.8234C146.162 24.8234 143.076 22.3082 143.076 18.0039C143.076 13.9329 146.084 11.2881 149.351 11.2881C153.292 11.2881 155.652 13.8033 155.652 17.9002C155.652 18.3929 155.6 18.9114 155.6 18.9633H146.473C146.551 20.6487 147.977 21.8674 149.688 21.8674C151.295 21.8674 152.177 21.0636 152.592 19.9227Z" fill="#13182B"/>
<path d="M131.566 20.882L134.522 20.2337C134.6 21.245 135.352 22.1785 136.856 22.1785C137.997 22.1785 138.542 21.5821 138.542 20.908C138.542 20.3375 138.153 19.8708 137.167 19.6633L135.482 19.2744C133.018 18.7298 131.903 17.2518 131.903 15.4627C131.903 13.1808 133.926 11.288 136.674 11.288C140.305 11.288 141.523 13.5957 141.679 14.97L138.801 15.6182C138.697 14.8663 138.153 13.9068 136.701 13.9068C135.793 13.9068 135.067 14.4514 135.067 15.1774C135.067 15.7997 135.534 16.1887 136.234 16.3184L138.049 16.7073C140.564 17.2259 141.834 18.7557 141.834 20.6227C141.834 22.6971 140.227 24.8233 136.882 24.8233C133.045 24.8233 131.722 22.334 131.566 20.882Z" fill="#13182B"/>
<path d="M129.481 24.434H126.032V11.6765H129.481V24.434ZM125.617 7.50179C125.617 6.30902 126.577 5.34961 127.744 5.34961C128.936 5.34961 129.87 6.30902 129.87 7.50179C129.87 8.64273 128.936 9.60209 127.744 9.60209C126.577 9.60209 125.617 8.64273 125.617 7.50179Z" fill="#13182B"/>
<path d="M124.124 11.6251V15.0997C123.735 15.022 123.398 14.996 123.087 14.996C121.324 14.996 119.794 15.8517 119.794 18.6003V24.4344H116.346V11.677H119.691V13.5699C120.468 11.8844 122.231 11.5732 123.321 11.5732C123.606 11.5732 123.865 11.5992 124.124 11.6251Z" fill="#13182B"/>
<path d="M104.437 29.361H100.988V11.6768H104.334V13.2326C104.904 12.2473 106.33 11.3916 108.249 11.3916C111.983 11.3916 114.135 14.2439 114.135 18.0297C114.135 21.8932 111.723 24.7455 108.119 24.7455C106.356 24.7455 105.059 24.0454 104.437 23.1897V29.361ZM110.738 18.0556C110.738 15.7997 109.338 14.4773 107.575 14.4773C105.811 14.4773 104.385 15.7997 104.385 18.0556C104.385 20.3115 105.811 21.6598 107.575 21.6598C109.338 21.6598 110.738 20.3374 110.738 18.0556Z" fill="#13182B"/>
<path d="M99.08 11.6248V15.0995C98.6912 15.0217 98.3536 14.9957 98.0424 14.9957C96.2792 14.9957 94.7496 15.8515 94.7496 18.6V24.4342H91.3008V11.6768H94.6456V13.5696C95.424 11.8842 97.1872 11.573 98.276 11.573C98.5608 11.573 98.8208 11.5989 99.08 11.6248Z" fill="#13182B"/>
<path d="M80.0016 16.6036H85.7064C85.6544 15.333 84.8248 14.0884 82.8544 14.0884C81.0648 14.0884 80.08 15.4367 80.0016 16.6036ZM86.0432 19.9226L88.9216 20.7783C88.2736 22.9823 86.2512 24.8233 83.1136 24.8233C79.6129 24.8233 76.5273 22.3081 76.5273 18.0038C76.5273 13.9328 79.5352 11.288 82.8024 11.288C86.744 11.288 89.1032 13.8032 89.1032 17.9C89.1032 18.3928 89.0512 18.9113 89.0512 18.9632H79.9241C80.0016 20.6486 81.428 21.8673 83.1392 21.8673C84.7472 21.8673 85.6288 21.0635 86.0432 19.9226Z" fill="#13182B"/>
<path d="M72.6348 7.86523V11.677H75.2018V14.7366H72.6348V20.0782C72.6348 21.1932 73.1533 21.5562 74.1387 21.5562C74.5536 21.5562 75.0203 21.5044 75.2018 21.4525V24.3048C74.8907 24.4345 74.2684 24.6159 73.2571 24.6159C70.7678 24.6159 69.2121 23.1379 69.2121 20.6746V14.7366H66.9043V11.677H67.5525C68.9009 11.677 69.5232 10.7953 69.5232 9.6544V7.86523H72.6348Z" fill="#13182B"/>
<path d="M57.2085 17.0963V24.4345H53.7598V11.677H57.1047V13.2586C57.8826 11.9362 59.4125 11.3398 60.7868 11.3398C63.9502 11.3398 65.4023 13.5958 65.4023 16.3962V24.4345H61.9536V16.9926C61.9536 15.5664 61.2535 14.4514 59.594 14.4514C58.0901 14.4514 57.2085 15.6182 57.2085 17.0963Z" fill="#13182B"/>
<path d="M42.461 16.6036H48.1655C48.1137 15.333 47.2839 14.0884 45.3132 14.0884C43.5241 14.0884 42.5387 15.4367 42.461 16.6036ZM48.5026 19.9226L51.3808 20.7783C50.7326 22.9823 48.7101 24.8233 45.5726 24.8233C42.072 24.8233 38.9863 22.3081 38.9863 18.0038C38.9863 13.9328 41.9942 11.288 45.2614 11.288C49.2027 11.288 51.5623 13.8032 51.5623 17.9C51.5623 18.3928 51.5105 18.9113 51.5105 18.9632H42.3831C42.461 20.6486 43.8871 21.8673 45.5985 21.8673C47.2061 21.8673 48.0878 21.0635 48.5026 19.9226Z" fill="#13182B"/>
<mask id="mask0_754_2212" style="mask-type:luminance" maskUnits="userSpaceOnUse" x="0" y="1" width="30" height="31">
<path d="M29.7539 1.82031H0.222656V31.3516H29.7539V1.82031Z" fill="white"/>
</mask>
<g mask="url(#mask0_754_2212)">
<path fill-rule="evenodd" clip-rule="evenodd" d="M0.753906 21.7448C0.753906 22.4541 1.47235 22.9376 2.12946 22.6704L10.9099 19.1012C11.2865 18.948 11.5328 18.582 11.5328 18.1755V14.1449C11.5328 13.7384 11.7792 13.3723 12.1558 13.2192L20.9684 9.63683C21.3451 9.48371 21.5914 9.11771 21.5914 8.71115V3.98558C21.5914 3.4337 21.144 2.98633 20.5921 2.98633H11.8117C11.2598 2.98633 10.8124 3.4337 10.8124 3.98558V11.4514C10.8124 12.0033 10.3651 12.4507 9.81315 12.4507H1.75316C1.20129 12.4507 0.753907 12.898 0.753907 13.4499L0.753906 21.7448Z" fill="#13182B"/>
<path fill-rule="evenodd" clip-rule="evenodd" d="M29.2163 9.82454C29.2163 9.11518 28.4979 8.63166 27.8408 8.89878L19.0603 12.4681C18.6837 12.6212 18.4374 12.9873 18.4374 13.3938V17.4242C18.4374 17.8308 18.1911 18.1968 17.8144 18.3499L9.00179 21.9322C8.62523 22.0853 8.37891 22.4514 8.37891 22.858V27.5835C8.37891 28.1353 8.82627 28.5828 9.37811 28.5828H18.1586C18.7104 28.5828 19.1578 28.1353 19.1578 27.5835V20.1178C19.1578 19.566 19.6052 19.1186 20.1571 19.1186H28.2171C28.769 19.1186 29.2163 18.6712 29.2163 18.1193V9.82454Z" fill="#13182B"/>
</g>
</svg>
