<svg width="32" height="32" viewBox="0 0 32 32" fill="none" xmlns="http://www.w3.org/2000/svg">
<path d="M24.1593 21.4189L22.7882 20.0479C22.7679 20.0783 22.7476 20.1088 22.7222 20.1393C22.3718 20.6217 21.9605 21.099 21.5035 21.5565C21.082 21.9826 20.6605 22.3482 20.2289 22.6732C20.1984 22.6991 20.173 22.7189 20.1426 22.7392L21.4883 24.0955L24.1593 21.4189Z" fill="#FFEC40"/>
<path d="M30.9884 26.275L25.9617 21.2336C25.6722 20.9436 25.168 20.9436 24.8791 21.2336L21.3037 24.8192C21.0056 25.1183 21.0056 25.6042 21.3037 25.9028L26.4182 31.0321C27.0418 31.6572 27.8675 31.9999 28.7485 31.9999C28.7637 31.9999 28.779 31.9999 28.7947 31.9994C29.6915 31.9878 30.5258 31.6206 31.1438 30.9661C32.3569 29.6818 32.2874 27.577 30.9884 26.275Z" fill="#FFEC40"/>
<path d="M22.42 19.9094C22.5911 19.683 22.7485 19.4494 22.9034 19.2117C23.2462 18.6811 23.5514 18.1088 23.8114 17.5116C25.8715 12.847 24.8366 7.27792 21.2363 3.65376C18.7313 1.14166 15.2534 -0.18318 11.6968 0.0204481C8.66117 0.194617 5.79971 1.48392 3.63902 3.65019C-1.21301 8.51593 -1.21301 16.433 3.63902 21.2983C5.78499 23.4498 8.64136 24.7391 11.6826 24.928C11.9288 24.9428 12.1746 24.9499 12.4204 24.9499C14.1571 24.9499 15.8866 24.5858 17.4634 23.884C18.0839 23.6057 18.6374 23.3066 19.1549 22.9705C19.5017 22.7455 19.7642 22.5586 20.0014 22.3682C20.4193 22.0554 20.8235 21.7025 21.2363 21.2881C21.6776 20.8458 22.0762 20.3812 22.42 19.9094ZM6.55024 17.0211C6.55024 17.3435 6.28974 17.6051 5.9683 17.6051H4.31948C3.99803 17.6051 3.73753 17.3435 3.73753 17.0211V14.0967C3.73753 13.7742 3.99803 13.5127 4.31948 13.5127H5.9683C6.28974 13.5127 6.55024 13.7742 6.55024 14.0967V17.0211ZM10.7381 17.0211C10.7381 17.3435 10.4776 17.6051 10.1561 17.6051H8.5073C8.18587 17.6051 7.92536 17.3435 7.92536 17.0211V9.96825C7.92536 9.64579 8.18587 9.38428 8.5073 9.38428H10.1561C10.4776 9.38428 10.7381 9.64579 10.7381 9.96825V17.0211ZM14.9909 17.0211C14.9909 17.3435 14.7299 17.6051 14.4084 17.6051H12.7068C12.3854 17.6051 12.1249 17.3435 12.1249 17.0211V11.6567C12.1249 11.3337 12.3854 11.0727 12.7068 11.0727H14.4084C14.7299 11.0727 14.9909 11.3337 14.9909 11.6567V17.0211ZM19.1071 17.0211C19.1071 17.3435 18.8461 17.6051 18.5252 17.6051H16.8764C16.5549 17.6051 16.2939 17.3435 16.2939 17.0211V6.52739C16.2939 6.20494 16.5549 5.94343 16.8764 5.94343H18.5252C18.8461 5.94343 19.1071 6.20494 19.1071 6.52739V17.0211Z" fill="#FFEC40"/>
</svg>
