<svg width="32" height="32" viewBox="0 0 32 32" fill="none" xmlns="http://www.w3.org/2000/svg">
<path d="M8.70776 7.38207L6.05638 4.7307C5.6902 4.36451 5.09688 4.36451 4.7307 4.7307C4.36451 5.09688 4.36451 5.6902 4.7307 6.05638L7.38207 8.70776C7.74826 9.07395 8.34157 9.07395 8.70776 8.70776C9.07395 8.34157 9.07395 7.74826 8.70776 7.38207Z" fill="#FFEC40"/>
<path d="M4.75 15.0625H0.9375C0.419312 15.0625 0 15.4818 0 16C0 16.5182 0.419312 16.9375 0.9375 16.9375H4.75C5.26819 16.9375 5.6875 16.5182 5.6875 16C5.6875 15.4818 5.26819 15.0625 4.75 15.0625Z" fill="#FFEC40"/>
<path d="M31.0625 15.0625H27.25C26.7318 15.0625 26.3125 15.4818 26.3125 16C26.3125 16.5182 26.7318 16.9375 27.25 16.9375H31.0625C31.5807 16.9375 32 16.5182 32 16C32 15.4818 31.5807 15.0625 31.0625 15.0625Z" fill="#FFEC40"/>
<path d="M27.2693 4.7307C26.9031 4.36451 26.3098 4.36451 25.9436 4.7307L23.2922 7.38207C22.926 7.74826 22.926 8.34157 23.2922 8.70776C23.6584 9.07395 24.2517 9.07395 24.6179 8.70776L27.2693 6.05638C27.6355 5.6902 27.6355 5.09695 27.2693 4.7307Z" fill="#FFEC40"/>
<path d="M16 0C15.4818 0 15.0625 0.419312 15.0625 0.9375V4.75C15.0625 5.26819 15.4818 5.6875 16 5.6875C16.5182 5.6875 16.9375 5.26819 16.9375 4.75V0.9375C16.9375 0.419312 16.5182 0 16 0Z" fill="#FFEC40"/>
<path d="M21.2504 9.38117C19.2067 7.76867 16.5629 7.18748 13.9754 7.80623C10.9754 8.49998 8.55671 10.8812 7.8254 13.8625C7.09415 16.8624 7.9379 19.8999 10.0941 22.0187C10.8629 22.7875 11.3129 23.9937 11.3129 25.2312V25.4375C11.3129 25.9624 11.7253 26.375 12.2504 26.375H19.7504C20.2755 26.375 20.6879 25.9624 20.6879 25.4375V25.2312C20.6879 24.0124 21.1566 22.7687 21.9816 21.9624C23.5567 20.3687 24.4379 18.25 24.4379 16C24.4379 13.4125 23.2754 10.9937 21.2504 9.38117ZM16.0004 13.1875C14.586 13.1875 13.5564 14.1257 13.2868 15.2117C13.1641 15.7057 12.6671 16.0209 12.1506 15.8965C11.6489 15.772 11.3421 15.263 11.4667 14.7613C11.9312 12.8863 13.6923 11.3125 16.0004 11.3125C16.5186 11.3125 16.9379 11.7318 16.9379 12.25C16.9379 12.7682 16.5186 13.1875 16.0004 13.1875Z" fill="#FFEC40"/>
<path d="M12.25 28.25V29.1875C12.25 30.7384 13.5116 32 15.0625 32H16.9375C18.4884 32 19.75 30.7384 19.75 29.1875V28.25H12.25Z" fill="#FFEC40"/>
</svg>
