<svg width="34" height="32" viewBox="0 0 34 32" fill="none" xmlns="http://www.w3.org/2000/svg">
<path d="M29.6 0H4C2.93913 0 1.92172 0.421427 1.17157 1.17157C0.421427 1.92172 0 2.93913 0 4V22.4C0 23.4609 0.421427 24.4783 1.17157 25.2284C1.92172 25.9786 2.93913 26.4 4 26.4H12.8V28H6.1336C5.35556 28 4.60939 28.3091 4.05923 28.8592C3.50907 29.4094 3.2 30.1556 3.2 30.9336C3.2 31.0736 3.22758 31.2123 3.28117 31.3417C3.33477 31.4711 3.41332 31.5886 3.51234 31.6877C3.61137 31.7867 3.72892 31.8652 3.85831 31.9188C3.98769 31.9724 4.12636 32 4.2664 32H29.3336C29.6164 32 29.8877 31.8876 30.0877 31.6877C30.2876 31.4877 30.4 31.2164 30.4 30.9336C30.4 30.1556 30.0909 29.4094 29.5408 28.8592C28.9906 28.3091 28.2444 28 27.4664 28H20.8V26.4H29.6C30.6609 26.4 31.6783 25.9786 32.4284 25.2284C33.1786 24.4783 33.6 23.4609 33.6 22.4V4C33.6 2.93913 33.1786 1.92172 32.4284 1.17157C31.6783 0.421427 30.6609 0 29.6 0ZM16.8 25.2C16.5627 25.2 16.3307 25.1296 16.1333 24.9978C15.936 24.8659 15.7822 24.6785 15.6913 24.4592C15.6005 24.2399 15.5768 23.9987 15.6231 23.7659C15.6694 23.5331 15.7836 23.3193 15.9515 23.1515C16.1193 22.9836 16.3331 22.8694 16.5659 22.8231C16.7987 22.7768 17.0399 22.8005 17.2592 22.8913C17.4785 22.9822 17.6659 23.136 17.7978 23.3333C17.9296 23.5307 18 23.7627 18 24C18 24.3183 17.8736 24.6235 17.6485 24.8485C17.4235 25.0736 17.1183 25.2 16.8 25.2ZM31.2 20C31.2 20.4243 31.0314 20.8313 30.7314 21.1314C30.4313 21.4314 30.0243 21.6 29.6 21.6H4C3.57565 21.6 3.16869 21.4314 2.86863 21.1314C2.56857 20.8313 2.4 20.4243 2.4 20V4C2.4 3.57565 2.56857 3.16869 2.86863 2.86863C3.16869 2.56857 3.57565 2.4 4 2.4H29.6C30.0243 2.4 30.4313 2.56857 30.7314 2.86863C31.0314 3.16869 31.2 3.57565 31.2 4V20Z" fill="#FFEC40"/>
<path d="M24.0273 9.90788C23.8983 9.83997 23.7904 9.73813 23.7151 9.61336C23.6398 9.48858 23.6001 9.34561 23.6001 9.19988V4.87988C22.8988 5.00725 22.2389 5.30309 21.6772 5.74196C21.1156 6.18082 20.6689 6.74956 20.3758 7.39926C20.0826 8.04896 19.9516 8.76016 19.9942 9.47167C20.0367 10.1832 20.2515 10.8737 20.62 11.4839C20.9885 12.094 21.4997 12.6055 22.1097 12.9743C22.7196 13.3431 23.41 13.5582 24.1215 13.6011C24.833 13.644 25.5443 13.5134 26.1941 13.2205C26.844 12.9277 27.4129 12.4813 27.8521 11.9199L24.0273 9.90788Z" fill="#FFEC40"/>
<path d="M25.2002 8.71988L28.6018 10.5127C28.7864 9.91897 28.843 9.29289 28.768 8.67569C28.693 8.05849 28.488 7.4642 28.1666 6.93198C27.8452 6.39976 27.4147 5.9417 26.9034 5.58799C26.392 5.23427 25.8116 4.99293 25.2002 4.87988V8.71988Z" fill="#FFEC40"/>
<path d="M7.1998 8.7998H5.5998C5.15798 8.7998 4.7998 9.15798 4.7998 9.5998V12.7998C4.7998 13.2416 5.15798 13.5998 5.5998 13.5998H7.1998C7.64163 13.5998 7.9998 13.2416 7.9998 12.7998V9.5998C7.9998 9.15798 7.64163 8.7998 7.1998 8.7998Z" fill="#FFEC40"/>
<path d="M11.9996 4.7998H10.3996C9.95778 4.7998 9.59961 5.15798 9.59961 5.5998V12.7998C9.59961 13.2416 9.95778 13.5998 10.3996 13.5998H11.9996C12.4414 13.5998 12.7996 13.2416 12.7996 12.7998V5.5998C12.7996 5.15798 12.4414 4.7998 11.9996 4.7998Z" fill="#FFEC40"/>
<path d="M16.8004 7.2002H15.2004C14.7586 7.2002 14.4004 7.55837 14.4004 8.0002V12.8002C14.4004 13.242 14.7586 13.6002 15.2004 13.6002H16.8004C17.2422 13.6002 17.6004 13.242 17.6004 12.8002V8.0002C17.6004 7.55837 17.2422 7.2002 16.8004 7.2002Z" fill="#FFEC40"/>
<path d="M28 16.8002H20.8C20.5878 16.8002 20.3843 16.7159 20.2343 16.5659C20.0843 16.4159 20 16.2124 20 16.0002C20 15.788 20.0843 15.5845 20.2343 15.4345C20.3843 15.2845 20.5878 15.2002 20.8 15.2002H28C28.2122 15.2002 28.4157 15.2845 28.5657 15.4345C28.7157 15.5845 28.8 15.788 28.8 16.0002C28.8 16.2124 28.7157 16.4159 28.5657 16.5659C28.4157 16.7159 28.2122 16.8002 28 16.8002Z" fill="#FFEC40"/>
<path d="M25.6 19.2001H20.8C20.5878 19.2001 20.3843 19.1158 20.2343 18.9658C20.0843 18.8158 20 18.6123 20 18.4001C20 18.1879 20.0843 17.9844 20.2343 17.8344C20.3843 17.6844 20.5878 17.6001 20.8 17.6001H25.6C25.8122 17.6001 26.0157 17.6844 26.1657 17.8344C26.3157 17.9844 26.4 18.1879 26.4 18.4001C26.4 18.6123 26.3157 18.8158 26.1657 18.9658C26.0157 19.1158 25.8122 19.2001 25.6 19.2001Z" fill="#FFEC40"/>
<path d="M16.7998 16.8002H5.5998C5.38763 16.8002 5.18415 16.7159 5.03412 16.5659C4.88409 16.4159 4.7998 16.2124 4.7998 16.0002C4.7998 15.788 4.88409 15.5845 5.03412 15.4345C5.18415 15.2845 5.38763 15.2002 5.5998 15.2002H16.7998C17.012 15.2002 17.2155 15.2845 17.3655 15.4345C17.5155 15.5845 17.5998 15.788 17.5998 16.0002C17.5998 16.2124 17.5155 16.4159 17.3655 16.5659C17.2155 16.7159 17.012 16.8002 16.7998 16.8002Z" fill="#FFEC40"/>
<path d="M13.5998 19.2001H5.5998C5.38763 19.2001 5.18415 19.1158 5.03412 18.9658C4.88409 18.8158 4.7998 18.6123 4.7998 18.4001C4.7998 18.1879 4.88409 17.9844 5.03412 17.8344C5.18415 17.6844 5.38763 17.6001 5.5998 17.6001H13.5998C13.812 17.6001 14.0155 17.6844 14.1655 17.8344C14.3155 17.9844 14.3998 18.1879 14.3998 18.4001C14.3998 18.6123 14.3155 18.8158 14.1655 18.9658C14.0155 19.1158 13.812 19.2001 13.5998 19.2001Z" fill="#FFEC40"/>
</svg>
