<svg width="32" height="32" viewBox="0 0 32 32" fill="none" xmlns="http://www.w3.org/2000/svg">
<path d="M8.1399 8.6416L5.36754 8.85579C4.59611 8.91541 3.90905 9.31972 3.48243 9.96503L0.285139 14.8008C-0.0384217 15.2901 -0.0898588 15.9026 0.147452 16.4391C0.384826 16.9756 0.872635 17.3494 1.45232 17.4392L3.99074 17.8324C4.58455 14.6811 6.00604 11.5376 8.1399 8.6416Z" fill="#FFEC40"/>
<path d="M14.168 28.0095L14.5612 30.5479C14.651 31.1276 15.0248 31.6154 15.5613 31.8527C15.7845 31.9515 16.0207 32.0002 16.2558 32.0002C16.586 32.0002 16.9138 31.9041 17.1996 31.7151L22.0355 28.5178C22.6808 28.0911 23.0851 27.404 23.1446 26.6327L23.3588 23.8604C20.4627 25.9943 17.3193 27.4158 14.168 28.0095Z" fill="#FFEC40"/>
<path d="M13.2126 26.2498C13.3008 26.2498 13.3894 26.2425 13.4778 26.2278C14.7981 26.007 16.0706 25.6351 17.2844 25.1484L6.85137 14.7153C6.36462 15.9291 5.99275 17.2016 5.772 18.5219C5.685 19.0424 5.85956 19.5726 6.23262 19.9457L12.0541 25.7671C12.3638 26.0768 12.7819 26.2498 13.2126 26.2498Z" fill="#FFEC40"/>
<path d="M29.4481 14.1876C32.0011 9.25175 32.0957 4.03579 31.9622 1.58955C31.9166 0.75137 31.2483 0.0831245 30.4101 0.0374373C30.0118 0.0156874 29.5397 0 29.0076 0C26.2723 0 21.9441 0.41431 17.812 2.55161C14.5282 4.25016 10.2221 7.9902 7.68164 12.9053C7.71164 12.9287 7.74095 12.9536 7.76858 12.9812L19.0185 24.2312C19.0461 24.2588 19.0709 24.288 19.0944 24.318C24.0095 21.7775 27.7495 17.4715 29.4481 14.1876ZM18.6056 6.76496C20.4332 4.93741 23.407 4.93722 25.2347 6.76496C26.12 7.65026 26.6076 8.82744 26.6076 10.0795C26.6076 11.3316 26.12 12.5087 25.2347 13.394C24.321 14.3077 23.1204 14.7647 21.9202 14.7648C20.7196 14.7648 19.5196 14.308 18.6056 13.394C17.7203 12.5087 17.2326 11.3316 17.2326 10.0795C17.2326 8.82744 17.7203 7.65026 18.6056 6.76496Z" fill="#FFEC40"/>
<path d="M19.9322 12.0684C21.0287 13.165 22.8131 13.1651 23.9097 12.0684C24.4408 11.5372 24.7334 10.8309 24.7334 10.0797C24.7334 9.32843 24.4408 8.62218 23.9097 8.09099C23.3614 7.54268 22.6412 7.26855 21.9209 7.26855C21.2007 7.26855 20.4805 7.54268 19.9322 8.09099C19.401 8.62218 19.1084 9.32843 19.1084 10.0797C19.1084 10.8309 19.401 11.5372 19.9322 12.0684Z" fill="#FFEC40"/>
<path d="M0.957064 26.3709C1.197 26.3709 1.43694 26.2794 1.61994 26.0963L4.68076 23.0355C5.04688 22.6693 5.04688 22.0758 4.68076 21.7097C4.31469 21.3435 3.72107 21.3435 3.35494 21.7097L0.294125 24.7705C-0.0720001 25.1366 -0.0720001 25.7302 0.294125 26.0963C0.477188 26.2793 0.717126 26.3709 0.957064 26.3709Z" fill="#FFEC40"/>
<path d="M7.48511 24.5148C7.11904 24.1487 6.52542 24.1487 6.15929 24.5148L0.274594 30.3995C-0.0915314 30.7657 -0.0915314 31.3592 0.274594 31.7253C0.457657 31.9084 0.697595 31.9999 0.937533 31.9999C1.17747 31.9999 1.41741 31.9084 1.60041 31.7253L7.48504 25.8406C7.85123 25.4745 7.85123 24.881 7.48511 24.5148Z" fill="#FFEC40"/>
<path d="M8.96426 27.32L5.9035 30.3808C5.53737 30.7469 5.53737 31.3405 5.9035 31.7066C6.08656 31.8897 6.3265 31.9813 6.56638 31.9813C6.80625 31.9813 7.04625 31.8898 7.22925 31.7066L10.2901 28.6458C10.6562 28.2797 10.6562 27.6861 10.2901 27.32C9.92401 26.9539 9.33038 26.9539 8.96426 27.32Z" fill="#FFEC40"/>
</svg>
