<svg width="61" height="61" viewBox="0 0 61 61" fill="none" xmlns="http://www.w3.org/2000/svg">
<g clip-path="url(#clip0_618_15355)">
<path d="M30.5 60.5C47.0685 60.5 60.5 47.0685 60.5 30.5C60.5 13.9315 47.0685 0.5 30.5 0.5C13.9315 0.5 0.5 13.9315 0.5 30.5C0.5 47.0685 13.9315 60.5 30.5 60.5Z" fill="#F2B406"/>
<path fill-rule="evenodd" clip-rule="evenodd" d="M36.5285 23.087L27.598 33.7877L23.6334 29.8523C22.8364 29.0611 21.5428 29.0611 20.7458 29.8523C19.9467 30.6454 19.9467 31.9295 20.7458 32.7227L27.598 39.5244L39.4182 25.9534C40.2172 25.1623 40.2172 23.8782 39.4182 23.087C38.6212 22.2939 37.3276 22.2939 36.5285 23.087Z" fill="white"/>
<path fill-rule="evenodd" clip-rule="evenodd" d="M37.3389 13H22.9405C17.1833 13 12.5 17.6856 12.5 23.4427V37.8367C12.5 43.5939 17.1833 48.2794 22.9405 48.2794H37.3389C43.0961 48.2794 47.7794 43.5939 47.7794 37.8367V23.4427C47.7794 17.6856 43.0961 13 37.3389 13ZM44.3774 38.3851C44.3774 41.9659 41.4634 44.8775 37.8874 44.8775H22.3919C18.8159 44.8775 15.9019 41.9659 15.9019 38.3851V22.8944C15.9019 19.3136 18.8159 16.402 22.3919 16.402H37.8874C41.4634 16.402 44.3774 19.3136 44.3774 22.8944V38.3851Z" fill="white"/>
</g>
<defs>
<clipPath id="clip0_618_15355">
<rect width="60" height="61" fill="white" transform="translate(0.5)"/>
</clipPath>
</defs>
</svg>
