<svg width="32" height="32" viewBox="0 0 32 32" fill="none" xmlns="http://www.w3.org/2000/svg">
<mask id="mask0_618_15324" style="mask-type:luminance" maskUnits="userSpaceOnUse" x="0" y="0" width="32" height="32">
<path d="M31.9489 0.263184H0.261719V31.9504H31.9489V0.263184Z" fill="white"/>
</mask>
<g mask="url(#mask0_618_15324)">
<path d="M26.4511 13.0486H26.3467V10.4974C26.3467 7.77394 25.2785 5.20664 23.3389 3.26846C21.3994 1.33046 18.8304 0.263184 16.1052 0.263184C13.3807 0.263184 10.8123 1.33052 8.87304 3.26858C6.93356 5.20675 5.86547 7.77406 5.86547 10.4975V13.0486H5.7611C4.62308 13.0486 3.69727 13.9739 3.69727 15.1113V29.8861C3.69732 31.0243 4.62312 31.9504 5.76114 31.9504H10.2274C10.5692 31.9504 10.8463 31.6733 10.8463 31.3316C10.8463 30.9898 10.5692 30.7127 10.2274 30.7127H5.76114C5.30571 30.7127 4.9351 30.3418 4.9351 29.886V26.7384H7.91173C8.2535 26.7384 8.53064 26.4613 8.53064 26.1195C8.53064 25.7778 8.2535 25.5006 7.91173 25.5006H4.9351V23.1175H7.91173C8.2535 23.1175 8.53064 22.8404 8.53064 22.4986C8.53064 22.1569 8.2535 21.8798 7.91173 21.8798H4.9351V19.4984H7.91173C8.2535 19.4984 8.53064 19.2213 8.53064 18.8795C8.53064 18.5378 8.2535 18.2606 7.91173 18.2606H4.9351V15.1113C4.9351 14.6564 5.30563 14.2863 5.76114 14.2863H26.4511C26.9066 14.2863 27.2771 14.6564 27.2771 15.1113V18.2606H24.2988C23.957 18.2606 23.6799 18.5378 23.6799 18.8795C23.6799 19.2213 23.957 19.4984 24.2988 19.4984H27.2771V21.8798H24.2987C23.957 21.8798 23.6798 22.1569 23.6798 22.4986C23.6798 22.8404 23.957 23.1175 24.2987 23.1175H27.2771V25.5006H24.2987C23.957 25.5006 23.6798 25.7778 23.6798 26.1195C23.6798 26.4613 23.957 26.7384 24.2987 26.7384H27.2771V29.886C27.2771 30.3418 26.9066 30.7127 26.4511 30.7127H15.791C15.4492 30.7127 15.1721 30.9898 15.1721 31.3316C15.1721 31.6733 15.4492 31.9504 15.791 31.9504H26.4511C27.5891 31.9504 28.5149 31.0243 28.5149 29.886V15.1113C28.5149 13.9738 27.5891 13.0486 26.4511 13.0486ZM7.10328 10.4974C7.10328 5.53675 11.1415 1.50097 16.1052 1.50097C21.0699 1.50097 25.1088 5.53675 25.1088 10.4974V13.0486H22.2595V10.4974C22.2595 8.86416 21.6167 7.32227 20.4494 6.15585C19.2822 4.98955 17.7394 4.34718 16.1052 4.34718C14.4717 4.34718 12.9295 4.98955 11.7625 6.15589C10.5953 7.32251 9.95258 8.86435 9.95258 10.4974V13.0486H7.10328V10.4974ZM21.0218 13.0486H11.1904V10.4974C11.1904 7.78864 13.3952 5.58499 16.1052 5.58499C18.8162 5.58499 21.0218 7.78864 21.0218 10.4974L21.0218 13.0486Z" fill="#FFEC40"/>
<path d="M17.0456 29.1315C18.7234 28.1314 21.3021 25.255 21.9203 23.3217C22.0196 23.0075 22.0172 22.8108 22.0148 22.6026C22.0144 22.5689 22.0118 19.0868 22.0117 19.0221C22.0113 18.4247 21.8819 18.2102 21.3523 17.9295C21.2953 17.8993 16.3613 15.6423 16.3613 15.6423C16.1987 15.5685 16.0119 15.5684 15.8493 15.6424C15.8493 15.6424 10.9171 17.8994 10.8601 17.9296C10.3313 18.2098 10.2016 18.424 10.1997 19.021C10.1995 19.0856 10.1969 19.2638 10.1969 19.2688C10.1969 19.2688 10.1964 22.5679 10.196 22.6011C10.1936 22.8108 10.1914 23.0089 10.2929 23.3238C10.9104 25.2551 13.4891 28.1315 15.1662 29.1311C15.4821 29.32 15.7893 29.4118 16.1053 29.4118C16.4182 29.4118 16.7347 29.3173 17.0456 29.1315ZM11.4715 22.9453C11.4314 22.8211 11.4317 22.7856 11.4337 22.6152C11.4342 22.5777 11.4372 19.0951 11.4375 19.025V19.0244C11.4382 19.024 11.439 19.0236 11.4397 19.0232C11.4976 18.9926 16.1054 16.8855 16.1054 16.8855C16.1054 16.8855 20.7148 18.9924 20.7726 19.0231L20.7739 19.0238C20.774 19.094 20.7767 22.5788 20.7771 22.617C20.779 22.784 20.7795 22.8237 20.7406 22.9468C20.2236 24.5639 17.8637 27.2029 16.4111 28.0687C16.2926 28.1396 16.1926 28.174 16.1054 28.174C16.0194 28.174 15.92 28.1395 15.8008 28.0683C14.3488 27.2029 11.989 24.5639 11.4715 22.9453Z" fill="#FFEC40"/>
<path d="M13.0095 30.7129C12.6678 30.7129 12.3906 30.99 12.3906 31.3318C12.3906 31.6735 12.6678 31.9507 13.0095 31.9507H13.013C13.3548 31.9507 13.6302 31.6735 13.6302 31.3318C13.6302 30.99 13.3513 30.7129 13.0095 30.7129Z" fill="#FFEC40"/>
<path d="M18.8645 20.2838C18.6198 20.045 18.2279 20.05 17.9893 20.2948L15.3552 22.996L14.5027 22.1477C14.2605 21.9065 13.8687 21.9073 13.6275 22.1497C13.3864 22.392 13.3873 22.7839 13.6296 23.025L14.9252 24.3145C15.0412 24.43 15.1982 24.4947 15.3618 24.4947H15.3665C15.5317 24.4934 15.6896 24.4262 15.8049 24.3079L18.8755 21.1589C19.1142 20.9142 19.1092 20.5224 18.8645 20.2838Z" fill="#FFEC40"/>
</g>
</svg>
