<svg width="32" height="32" viewBox="0 0 32 32" fill="none" xmlns="http://www.w3.org/2000/svg">
<g clip-path="url(#clip0_618_15338)">
<mask id="mask0_618_15338" style="mask-type:luminance" maskUnits="userSpaceOnUse" x="0" y="0" width="32" height="32">
<path d="M31.8587 0.260254H0.259766V31.8592H31.8587V0.260254Z" fill="white"/>
</mask>
<g mask="url(#mask0_618_15338)">
<path d="M9.87583 7.55999C9.65948 7.29751 9.26955 7.26142 9.00645 7.47687C9.00547 7.47773 9.00017 7.48206 8.99915 7.48292C8.73741 7.70009 8.70288 8.08628 8.91923 8.34868C9.04091 8.49623 9.21741 8.57221 9.39533 8.57221C9.53394 8.57221 9.67341 8.52612 9.78865 8.4318C9.78963 8.43094 9.79494 8.42661 9.79591 8.42575C10.0577 8.20858 10.0922 7.82243 9.87583 7.55999Z" fill="#FFEC40"/>
<path d="M16.0599 4.95068C14.3828 4.95068 12.7707 5.31525 11.2688 6.03435C10.9614 6.18155 10.8315 6.55006 10.9786 6.85753C11.1258 7.16489 11.4943 7.29484 11.8017 7.14764C13.136 6.50889 14.5687 6.18499 16.0599 6.18499C21.5048 6.18499 25.9346 10.6147 25.9346 16.0596C25.9346 17.2257 25.7335 18.3668 25.3369 19.4512C25.2199 19.7713 25.3844 20.1258 25.7045 20.2428C25.7745 20.2683 25.8461 20.2805 25.9165 20.2805C26.1682 20.2805 26.4047 20.1253 26.4962 19.8751C26.9426 18.6544 27.1689 17.3708 27.1689 16.0596C27.1689 9.93418 22.1855 4.95068 16.0599 4.95068Z" fill="#FFEC40"/>
<path d="M31.655 19.56L30.9428 18.917C30.1357 18.1884 29.6729 17.1469 29.6729 16.0597C29.6729 14.9724 30.1358 13.931 30.9428 13.2023L31.655 12.5593C31.8489 12.3842 31.9116 12.106 31.8116 11.8647L30.1616 7.88694C30.0616 7.64581 29.8213 7.4933 29.5601 7.507L28.6008 7.55602C27.5161 7.61209 26.4528 7.20253 25.6846 6.4343C24.9163 5.6661 24.5075 4.60316 24.563 3.51808L24.6119 2.55882C24.6252 2.29813 24.4731 2.05731 24.2321 1.95726L20.2542 0.307336C20.0129 0.207479 19.7347 0.269936 19.5596 0.463848L18.9166 1.17612C18.188 1.98313 17.1465 2.446 16.0592 2.446C14.9719 2.446 13.9305 1.98313 13.2019 1.17612L12.5588 0.463848C12.3838 0.269874 12.1055 0.207356 11.8643 0.307336L7.88649 1.95726C7.6454 2.05731 7.49328 2.29813 7.50663 2.55882L7.55556 3.51808C7.61098 4.60316 7.20212 5.6661 6.43393 6.4343C5.66569 7.20253 4.60247 7.61205 3.51769 7.55602L2.55843 7.507C2.29706 7.49416 2.05686 7.64581 1.95688 7.88694L0.30689 11.8648C0.206786 12.1061 0.26949 12.3843 0.463404 12.5594L1.17567 13.2025C1.98274 13.931 2.44555 14.9725 2.44555 16.0597C2.44555 17.147 1.98268 18.1884 1.17567 18.9171L0.463404 19.56C0.26949 19.7351 0.206847 20.0133 0.30689 20.2546L1.95682 24.2324C2.0568 24.4735 2.29737 24.6257 2.55837 24.6123L3.51763 24.5634C4.60255 24.5073 5.66569 24.9167 6.43385 25.685C7.20212 26.4532 7.6109 27.5162 7.55549 28.6013L7.50655 29.5605C7.4932 29.8212 7.64536 30.062 7.88641 30.1621L11.8642 31.812C12.1056 31.9119 12.3837 31.8494 12.5588 31.6555L13.2018 30.9432C13.9304 30.1362 14.9718 29.6734 16.0592 29.6734C17.1465 29.6734 18.1879 30.1362 18.9165 30.9432L19.5595 31.6555C19.6791 31.7879 19.8466 31.8591 20.0178 31.8591C20.0973 31.8591 20.1776 31.8437 20.2541 31.812L24.2319 30.1621C24.473 30.062 24.6251 29.8212 24.6118 29.5605L24.5628 28.6013C24.5074 27.5162 24.9163 26.4532 25.6845 25.685C26.4527 24.9168 27.5155 24.5074 28.6007 24.5634L29.56 24.6123C29.8213 24.6264 30.0616 24.4736 30.1615 24.2324L31.8114 20.2546C31.9117 20.0133 31.849 19.7351 31.655 19.56ZM29.1883 23.3574L28.6638 23.3306C27.2306 23.2579 25.8265 23.7973 24.8118 24.8122C23.797 25.8269 23.257 27.2309 23.3302 28.6642L23.357 29.1887L20.1838 30.5049L19.8328 30.1161C18.8706 29.0502 17.4952 28.4389 16.0592 28.4389C14.6233 28.4389 13.2479 29.0502 12.2857 30.1161L11.9346 30.5049L8.76142 29.1887L8.78823 28.6642C8.86148 27.2309 8.32146 25.8269 7.30667 24.8122C6.29184 23.7975 4.88786 23.2567 3.45462 23.3306L2.93009 23.3574L1.61398 20.1842L2.0028 19.8331C3.06864 18.8709 3.67988 17.4955 3.67988 16.0596C3.67988 14.6237 3.06864 13.2483 2.0028 12.2861L1.61398 11.935L2.93021 8.76183L3.45474 8.78868C4.88848 8.86173 6.29195 8.32191 7.30678 7.30704C8.32154 6.29229 8.86155 4.88831 8.78827 3.45506L8.7615 2.93053L11.9347 1.61437L12.2857 2.00318C13.2479 3.06903 14.6234 3.68027 16.0593 3.68027C17.4952 3.68027 18.8706 3.06903 19.8328 2.00318L20.1839 1.61437L23.3571 2.93053L23.3303 3.45506C23.257 4.88831 23.797 6.29229 24.8118 7.30704C25.8266 8.32179 27.2306 8.86205 28.6639 8.78868L29.1884 8.76183L30.5046 11.935L30.1158 12.2861C29.0499 13.2483 28.4387 14.6237 28.4387 16.0596C28.4387 17.4955 29.0499 18.8709 30.1158 19.8331L30.5046 20.1842L29.1883 23.3574Z" fill="#FFEC40"/>
<path d="M21.9569 21.989L19.6936 19.7258C18.9315 18.9635 17.758 18.8259 16.8401 19.3911L15.6938 20.0969L12.0229 16.426L12.7288 15.2798C13.294 14.3619 13.1564 13.1884 12.3941 12.4262L10.1308 10.1629C9.22738 9.25957 7.75725 9.25938 6.85364 10.163C4.65556 12.3611 4.65556 15.9377 6.85364 18.1358L13.9841 25.2662C15.0488 26.331 16.4646 26.9174 17.9704 26.9174C19.4763 26.9174 20.892 26.331 21.9569 25.2662C22.8604 24.3627 22.8604 22.8925 21.9569 21.989ZM21.084 24.3933C20.8986 24.5787 20.699 24.7444 20.4886 24.8917L18.3019 22.705C18.0609 22.4642 17.6701 22.4641 17.4291 22.705C17.1881 22.946 17.1881 23.3368 17.4291 23.5779L19.3226 25.4714C18.8913 25.6101 18.4366 25.6831 17.9704 25.6831C16.7942 25.6831 15.6885 25.2251 14.8568 24.3934L7.72642 17.2629C6.52092 16.0574 6.16315 14.3212 6.65068 12.7994L8.75803 14.9068C8.87858 15.0273 9.03651 15.0876 9.19444 15.0876C9.35238 15.0876 9.51035 15.0273 9.63082 14.9068C9.87183 14.6658 9.87183 14.275 9.63082 14.0339L7.22859 11.6317C7.37466 11.4223 7.53973 11.2223 7.72639 11.0357C7.93751 10.8246 8.21485 10.719 8.4922 10.719C8.76951 10.719 9.04685 10.8246 9.25801 11.0357L11.5213 13.2989C11.8775 13.6551 11.9418 14.2035 11.6776 14.6325L10.7162 16.194C10.5663 16.4373 10.6032 16.7518 10.8053 16.9539L15.1658 21.3144C15.3679 21.5165 15.6824 21.5533 15.9258 21.4035L17.4872 20.4421C17.9163 20.1779 18.4646 20.2423 18.8209 20.5985L21.084 22.8617C21.5063 23.284 21.5063 23.971 21.084 24.3933Z" fill="#FFEC40"/>
<path d="M18.5417 15.4424H16.6864C16.7064 15.0091 17.0652 14.6626 17.5034 14.6626C18.4162 14.6626 19.1589 13.92 19.1589 13.0071C19.1589 12.0943 18.4162 11.3516 17.5034 11.3516H16.0683C15.7275 11.3516 15.4512 11.6279 15.4512 11.9687C15.4512 12.3095 15.7275 12.5859 16.0683 12.5859H17.5034C17.7356 12.5859 17.9246 12.7749 17.9246 13.0071C17.9246 13.2393 17.7356 13.4283 17.5034 13.4283C16.3718 13.4283 15.4512 14.3489 15.4512 15.4805V16.0595C15.4512 16.4003 15.7275 16.6767 16.0683 16.6767H18.5417C18.8826 16.6767 19.1589 16.4003 19.1589 16.0595C19.1589 15.7187 18.8826 15.4424 18.5417 15.4424Z" fill="#FFEC40"/>
<path d="M23.1101 11.3667C22.7692 11.3667 22.4929 11.6431 22.4929 11.9838V13.4249H21.2539V12.0003C21.2539 11.6595 20.9775 11.3831 20.6367 11.3831C20.2958 11.3831 20.0195 11.6595 20.0195 12.0003V14.042C20.0195 14.3828 20.2958 14.6592 20.6367 14.6592H22.4929V16.0673C22.4929 16.4081 22.7692 16.6844 23.1101 16.6844C23.4509 16.6844 23.7273 16.4081 23.7273 16.0673V11.9838C23.7273 11.6431 23.4509 11.3667 23.1101 11.3667Z" fill="#FFEC40"/>
</g>
</g>
<defs>
<clipPath id="clip0_618_15338">
<rect width="32" height="32" fill="white"/>
</clipPath>
</defs>
</svg>
