<svg width="61" height="61" viewBox="0 0 61 61" fill="none" xmlns="http://www.w3.org/2000/svg">
<g clip-path="url(#clip0_618_15359)">
<path d="M30.5 60.5C47.0685 60.5 60.5 47.0685 60.5 30.5C60.5 13.9315 47.0685 0.5 30.5 0.5C13.9315 0.5 0.5 13.9315 0.5 30.5C0.5 47.0685 13.9315 60.5 30.5 60.5Z" fill="#0099FB"/>
<path d="M33.3123 12H28.0625C26.9579 12 26.0625 12.8954 26.0625 14V46.9992C26.0625 48.1038 26.9579 48.9992 28.0625 48.9992H33.3123C34.4169 48.9992 35.3123 48.1038 35.3123 46.9992V14C35.3123 12.8954 34.4169 12 33.3123 12Z" fill="white"/>
<path d="M44.8748 23.563H39.625C38.5204 23.563 37.625 24.4584 37.625 25.563V47C37.625 48.1046 38.5204 49 39.625 49H44.8748C45.9794 49 46.8748 48.1046 46.8748 47V25.563C46.8748 24.4584 45.9794 23.563 44.8748 23.563Z" fill="white"/>
<path d="M21.7498 30.5005H16.5C15.3954 30.5005 14.5 31.3959 14.5 32.5005V47.0001C14.5 48.1047 15.3954 49.0001 16.5 49.0001H21.7498C22.8544 49.0001 23.7498 48.1047 23.7498 47.0001V32.5005C23.7498 31.3959 22.8544 30.5005 21.7498 30.5005Z" fill="white"/>
</g>
<defs>
<clipPath id="clip0_618_15359">
<rect width="60" height="61" fill="white" transform="translate(0.5)"/>
</clipPath>
</defs>
</svg>
