<svg width="61" height="61" viewBox="0 0 61 61" fill="none" xmlns="http://www.w3.org/2000/svg">
<g clip-path="url(#clip0_618_15364)">
<path d="M30.5 60.5C47.0685 60.5 60.5 47.0685 60.5 30.5C60.5 13.9315 47.0685 0.5 30.5 0.5C13.9315 0.5 0.5 13.9315 0.5 30.5C0.5 47.0685 13.9315 60.5 30.5 60.5Z" fill="#0ABF9E"/>
<path fill-rule="evenodd" clip-rule="evenodd" d="M14.8145 30.3963C14.8145 38.5854 21.4645 45.5338 29.9491 45.5338C38.4337 45.5338 45.3131 38.8336 45.0838 30.3963C45.0838 22.2072 38.4337 15.2588 29.9491 15.2588C21.6939 15.2588 14.8145 21.959 14.8145 30.3963Z" fill="white"/>
<path d="M46.4533 21.7099C46.2224 21.7099 45.7606 21.7099 45.5296 21.4618L38.8329 15.7542C38.602 15.5061 38.3711 15.0097 38.3711 14.5134C38.3711 14.2653 38.3711 13.769 38.602 13.5208C39.0639 12.7763 39.9875 12.7763 40.4494 13.2727L47.1461 18.9802C47.377 19.2284 47.6079 19.7247 47.6079 20.221C47.6079 20.4692 47.6079 20.9655 47.377 21.2136C47.377 21.4618 46.9152 21.7099 46.4533 21.7099Z" fill="white"/>
<path d="M13.6546 20.7832C13.4237 20.7832 12.9618 20.535 12.7309 20.2869C12.5 20.0387 12.5 19.7906 12.5 19.2942C12.5 18.7979 12.7309 18.5498 12.9618 18.0535L19.6585 12.3459C20.3513 11.8496 21.0441 11.8496 21.5059 12.5941C21.7368 12.8422 21.7368 13.3385 21.7368 13.5867C21.7368 14.083 21.5059 14.3311 21.275 14.8275L14.5783 20.535C14.3474 20.7832 14.1164 20.7832 13.6546 20.7832Z" fill="white"/>
<path d="M29.1297 31.8851C28.4369 31.8851 27.7441 31.1406 27.7441 30.3962V20.2218C27.7441 19.4773 28.206 18.981 28.8987 18.981C29.5915 18.981 30.2843 19.4773 30.2843 20.2218V30.3962C30.2843 31.1406 29.8224 31.8851 29.1297 31.8851Z" fill="#0ABF9E"/>
<path d="M37.2121 35.6063C36.9812 35.6063 36.9812 35.6063 36.7503 35.6063L28.668 31.884C27.9753 31.3877 27.7443 30.6432 27.9753 30.1469C28.2062 29.6506 28.8989 28.9061 29.5917 29.4024L37.6739 33.1248C38.3667 33.3729 38.5976 34.1174 38.3667 34.8618C38.1358 35.11 37.6739 35.6063 37.2121 35.6063Z" fill="#0ABF9E"/>
<path d="M44.1398 49.9993C43.9089 49.9993 43.447 49.7511 43.2161 49.503L37.4431 43.7954C36.9812 43.2991 36.7503 42.3065 37.4431 41.8102C37.9049 41.3139 38.8286 41.0657 39.2904 41.8102L45.2944 47.5177C45.7562 48.014 45.9871 49.0067 45.2944 49.503C44.8325 49.7511 44.6016 49.9993 44.1398 49.9993Z" fill="white"/>
<path d="M17.5826 49.9998C17.1207 49.9998 16.8898 49.7517 16.6589 49.5035C16.197 49.0072 16.197 48.0146 16.6589 47.5183L22.6628 41.8107C23.1247 41.3144 24.0483 41.3144 24.5102 41.8107C24.972 42.307 24.972 43.2996 24.5102 43.7959L18.5062 49.5035C18.2753 49.7517 18.0444 49.9998 17.5826 49.9998Z" fill="white"/>
</g>
<defs>
<clipPath id="clip0_618_15364">
<rect width="60" height="61" fill="white" transform="translate(0.5)"/>
</clipPath>
</defs>
</svg>
