<svg width="61" height="60" viewBox="0 0 61 60" fill="none" xmlns="http://www.w3.org/2000/svg">
<g clip-path="url(#clip0_618_15373)">
<path d="M30.5 60C47.0685 60 60.5 46.5685 60.5 30C60.5 13.4315 47.0685 0 30.5 0C13.9315 0 0.5 13.4315 0.5 30C0.5 46.5685 13.9315 60 30.5 60Z" fill="#E26464"/>
<path d="M15.5719 13C14.9799 13 14.5 13.4861 14.5 14.0669V46.32C14.5 46.9092 14.9951 47.3869 15.585 47.3869H44.9363C45.5355 47.3869 46.0213 46.8947 46.0213 46.3115V22.6721C46.0213 22.0782 45.5435 21.5967 44.9611 21.5967H37.1748C36.5893 21.5967 36.1146 21.1345 36.1146 20.5426V14.0541C36.1146 13.472 35.6225 13 35.0427 13H15.5719ZM42.4189 42.8772C42.4189 43.4687 41.9548 43.9482 41.3426 43.9482H19.1787C18.5843 43.9482 18.1024 43.4707 18.1024 42.8698V17.5171C18.1024 16.9215 18.5718 16.4387 19.1906 16.4387H32.1445C32.7455 16.4387 33.2327 16.9009 33.2327 17.4928V23.9813C33.2327 24.5635 33.7266 25.0354 34.2864 25.0354H41.3651C41.9471 25.0354 42.4189 25.5029 42.4189 26.1064V42.8772Z" fill="white"/>
<path d="M41.5171 15.1491L39.2656 13V19.4475H46.0202L41.5171 15.1491Z" fill="white"/>
<path d="M21.7051 22.6857C21.7051 22.0848 22.1695 21.5977 22.7808 21.5977H30.0173C30.6114 21.5977 31.093 22.0759 31.093 22.6857V23.9484C31.093 24.5493 30.6287 25.0364 30.0173 25.0364H22.7808C22.1867 25.0364 21.7051 24.5583 21.7051 23.9484V22.6857Z" fill="white"/>
<path d="M21.7051 29.5631C21.7051 28.9622 22.1869 28.4751 22.7779 28.4751H38.6445C39.2369 28.4751 39.7173 28.9532 39.7173 29.5631V30.8258C39.7173 31.4267 39.2355 31.9138 38.6445 31.9138H22.7779C22.1854 31.9138 21.7051 31.4357 21.7051 30.8258V29.5631Z" fill="white"/>
<path d="M21.7051 36.4401C21.7051 35.8392 22.1869 35.3521 22.7779 35.3521H38.6445C39.2369 35.3521 39.7173 35.8302 39.7173 36.4401V37.7027C39.7173 38.3036 39.2355 38.7908 38.6445 38.7908H22.7779C22.1854 38.7908 21.7051 38.3126 21.7051 37.7027V36.4401Z" fill="white"/>
</g>
<defs>
<clipPath id="clip0_618_15373">
<rect width="60" height="60" fill="white" transform="translate(0.5)"/>
</clipPath>
</defs>
</svg>
