<svg width="32" height="32" viewBox="0 0 32 32" fill="none" xmlns="http://www.w3.org/2000/svg">
<mask id="mask0_618_15311" style="mask-type:luminance" maskUnits="userSpaceOnUse" x="0" y="0" width="32" height="32">
<path d="M31.7137 0.285645H0.285156V31.7142H31.7137V0.285645Z" fill="white"/>
</mask>
<g mask="url(#mask0_618_15311)">
<path d="M25.6978 16.6139C26.0366 16.6139 26.3116 16.3389 26.3116 16.0001C26.3116 15.6613 26.0366 15.3862 25.6978 15.3862C25.359 15.3862 25.084 15.6613 25.084 16.0001C25.084 16.3389 25.359 16.6139 25.6978 16.6139Z" fill="#FFEC40"/>
<path d="M15.938 23.9799C15.599 23.9799 15.3242 24.2547 15.3242 24.5938C15.3242 24.9328 15.599 25.2076 15.938 25.2076C20.0074 25.2076 23.7326 22.8165 25.4286 19.1162C25.5698 18.8081 25.4346 18.4436 25.1262 18.3024C24.8181 18.1614 24.4539 18.2967 24.3124 18.6048C22.8159 21.8701 19.5288 23.9799 15.938 23.9799Z" fill="#FFEC40"/>
<path d="M31.712 13.5117C31.7115 13.5009 31.7113 13.4899 31.7101 13.479V13.4774C31.453 11.1515 29.7508 9.25124 27.6223 8.44438C28.4687 7.76891 29.0128 6.72949 29.0128 5.56488C29.0128 3.53416 27.3607 1.88184 25.3297 1.88184C23.2988 1.88184 21.6467 3.53416 21.6467 5.56488C21.6467 6.72853 22.1898 7.76701 23.0351 8.44248C22.0778 8.80118 21.2122 9.37451 20.5473 10.1046C19.9045 9.37329 19.1041 8.81196 18.2145 8.4571C19.07 7.7821 19.621 6.73691 19.621 5.56488C19.621 3.53416 17.969 1.88184 15.938 1.88184C13.9071 1.88184 12.255 3.53416 12.255 5.56488C12.255 6.73691 12.806 7.7821 13.6618 8.4571C12.772 8.81196 11.9716 9.37329 11.329 10.1046C10.6638 9.37451 9.79845 8.80118 8.841 8.44248C9.68622 7.76701 10.2293 6.72853 10.2293 5.56488C10.2293 3.53416 8.57723 1.88184 6.5463 1.88184C4.51537 1.88184 2.86327 3.53416 2.86327 5.56488C2.86327 6.73474 3.41213 7.77802 4.26504 8.45326C2.22402 9.25318 0.724432 11.0621 0.386585 13.2072C0.322562 13.304 0.285156 13.4201 0.285156 13.5448V16.5526C0.285156 16.8408 0.485613 17.0901 0.767114 17.152L3.43803 17.7395C3.75862 19.06 4.2794 20.3046 4.99038 21.4491L3.75358 23.51C3.60875 23.7517 3.64688 24.0608 3.84588 24.2601L6.45038 26.8646C6.64965 27.0638 6.95895 27.1017 7.20043 26.9569L9.29419 25.7007C10.4394 26.3958 11.6714 26.9013 12.9664 27.2077C13.1427 27.9131 13.51 29.383 13.5592 29.5791C13.5616 29.5901 13.5642 29.6012 13.5673 29.6122C13.6378 29.8731 13.8764 30.0651 14.1598 30.0651C14.1934 30.0651 14.2267 30.0623 14.2588 30.057H17.8409C18.1227 30.057 18.3682 29.8654 18.4363 29.5921L19.0324 27.2077C20.3274 26.9013 21.5594 26.3958 22.7046 25.7007L24.7984 26.9569C25.0399 27.1019 25.3492 27.0638 25.5484 26.8646L28.1529 24.2601C28.3519 24.0608 28.3901 23.7517 28.2452 23.5103L27.0084 21.4491C27.7196 20.3037 28.2404 19.0592 28.5608 17.7395L31.2317 17.152C31.5132 17.0901 31.7137 16.8408 31.7137 16.5526V13.5448V13.5429C31.7134 13.5325 31.7125 13.5222 31.712 13.5117ZM22.8744 5.56488C22.8744 4.21105 23.9759 3.10951 25.3297 3.10951C26.6836 3.10951 27.7851 4.21105 27.7851 5.56488C27.7851 6.91867 26.6836 8.02023 25.3297 8.02023C23.9759 8.02023 22.8744 6.91867 22.8744 5.56488ZM25.3297 9.24789C27.6609 9.24789 29.7753 10.847 30.357 12.9309H21.9529C21.8246 12.3024 21.5964 11.6941 21.2799 11.1345C22.2076 9.97851 23.7546 9.24789 25.3297 9.24789ZM22.6902 14.7724C22.6902 18.4957 19.6611 21.5246 15.938 21.5246C12.2149 21.5246 9.1858 18.4957 9.1858 14.7724C9.1858 14.566 9.19563 14.3612 9.21384 14.1586H22.6622C22.6804 14.3612 22.6902 14.566 22.6902 14.7724ZM13.4827 5.56488C13.4827 4.21105 14.5842 3.10951 15.938 3.10951C17.2918 3.10951 18.3934 4.21105 18.3934 5.56488C18.3934 6.91867 17.2918 8.02023 15.938 8.02023C14.5842 8.02023 13.4827 6.91867 13.4827 5.56488ZM15.938 9.24789C18.1737 9.24789 20.1308 10.7566 20.6931 12.9309H11.1829C11.745 10.7568 13.7016 9.24789 15.938 9.24789ZM4.09095 5.56488C4.09095 4.21105 5.19251 3.10951 6.5463 3.10951C7.90009 3.10951 9.00165 4.21105 9.00165 5.56488C9.00165 6.91867 7.90009 8.02023 6.5463 8.02023C5.19251 8.02023 4.09095 6.91867 4.09095 5.56488ZM6.5463 9.24789C8.12142 9.24789 9.66847 9.97851 10.5962 11.1345C10.2797 11.6941 10.0514 12.3024 9.92314 12.9309H1.69794C2.25879 10.8184 4.2655 9.24789 6.5463 9.24789ZM30.486 16.0591L27.9167 16.624C27.681 16.6758 27.4976 16.8609 27.4477 17.0969C27.1442 18.5375 26.5814 19.8838 25.7748 21.0986C25.6436 21.2959 25.6378 21.5508 25.7597 21.7539L26.9459 23.7309L25.019 25.6575L23.0135 24.4541C22.8125 24.3337 22.5605 24.338 22.3637 24.4653C21.1465 25.2542 19.8148 25.8004 18.4058 26.0886C18.1745 26.1361 17.9908 26.3121 17.9335 26.5411L17.3616 28.8293H14.637C14.4924 28.2502 14.2516 27.2875 14.1334 26.8144C14.0891 26.7171 14.0886 26.1901 13.5927 26.0886C12.1838 25.8004 10.8523 25.2542 9.63491 24.4653C9.4383 24.338 9.18603 24.3337 8.98535 24.4541L6.97959 25.6575L5.05297 23.7309L6.23891 21.7539C6.3607 21.5508 6.35495 21.2957 6.22378 21.0983C5.41765 19.885 4.85464 18.5389 4.55083 17.0969C4.50123 16.8609 4.31777 16.6758 4.08207 16.624L1.51283 16.0591V14.1581H7.98161C7.9663 14.3612 7.95815 14.566 7.95815 14.772C7.95815 19.1719 11.5378 22.7523 15.938 22.7523C20.3382 22.7523 23.9179 19.1726 23.9179 14.7724C23.9179 14.5667 23.9098 14.3617 23.8944 14.1586H30.486V16.0591Z" fill="#FFEC40"/>
</g>
</svg>
