<svg width="40" height="40" viewBox="0 0 40 40" fill="none" xmlns="http://www.w3.org/2000/svg">
<g clip-path="url(#clip0_2592_5648)">
<path d="M38.572 18.5715C37.7824 18.5715 37.1434 19.2112 37.1434 20.0001C37.1434 29.4525 29.4537 37.143 20.0006 37.143C16.628 37.143 13.3371 36.1317 10.546 34.2858H11.4291C12.2188 34.2858 12.8577 33.6462 12.8577 32.8572C12.8577 32.0683 12.2188 31.4287 11.4291 31.4287H7.14341C6.35379 31.4287 5.71484 32.0683 5.71484 32.8572V37.143C5.71484 37.9319 6.35379 38.5715 7.14341 38.5715C7.93303 38.5715 8.57198 37.9319 8.57198 37.143V36.412C11.9099 38.7347 15.9079 40.0001 20.0006 40.0001C31.0287 40.0001 40.0006 31.0283 40.0006 20.0001C40.0006 19.2112 39.3616 18.5715 38.572 18.5715Z" fill="#FF4F38"/>
<path d="M20 2.85714C23.4192 2.85714 26.6668 3.84338 29.4739 5.71429H28.5714C27.7818 5.71429 27.1429 6.35393 27.1429 7.14286C27.1429 7.93178 27.7818 8.57143 28.5714 8.57143H32.8571C33.6468 8.57143 34.2857 7.93178 34.2857 7.14286V2.85714C34.2857 2.06822 33.6468 1.42857 32.8571 1.42857C32.0675 1.42857 31.4286 2.06822 31.4286 2.85714V3.60378C28.0681 1.25192 24.1439 0 20 0C8.97182 0 0 8.97182 0 20C0 20.7889 0.638951 21.4286 1.42857 21.4286C2.21819 21.4286 2.85714 20.7889 2.85714 20C2.85714 10.5476 10.5469 2.85714 20 2.85714Z" fill="#FF4F38"/>
<path d="M31.429 25.7145V14.286C31.429 14.2821 31.4274 14.2787 31.4274 14.2749L20.7148 19.0361V31.4288L30.5627 27.0273C31.0886 26.8027 31.429 26.2858 31.429 25.7145Z" fill="#FF4F38"/>
<path d="M30.6776 13.0444C30.6376 13.0225 20.5622 8.68767 20.5622 8.68767C20.205 8.53282 19.7949 8.53282 19.4377 8.68767C19.4377 8.68767 9.36229 13.0225 9.32227 13.0444L19.9999 17.7899L30.6776 13.0444Z" fill="#FF4F38"/>
<path d="M8.57129 14.286V25.7145C8.57129 26.2858 8.91169 26.8027 9.43764 27.0273L19.2856 31.4288V19.0361L8.57295 14.2749C8.57295 14.2787 8.57129 14.2821 8.57129 14.286Z" fill="#FF4F38"/>
</g>
<defs>
<clipPath id="clip0_2592_5648">
<rect width="40" height="40" fill="white"/>
</clipPath>
</defs>
</svg>
