<svg width="36" height="40" viewBox="0 0 36 40" fill="none" xmlns="http://www.w3.org/2000/svg">
<path d="M20.6562 40C21.7746 39.9983 22.8467 39.5533 23.6375 38.7625C24.4283 37.9717 24.8733 36.8996 24.875 35.7812V4.21875C24.8733 3.10038 24.4283 2.02828 23.6375 1.23747C22.8467 0.446658 21.7746 0.00165318 20.6562 0L4.71875 0C3.60038 0.00165318 2.52828 0.446658 1.73747 1.23747C0.946658 2.02828 0.501653 3.10038 0.5 4.21875V35.7812C0.501653 36.8996 0.946658 37.9717 1.73747 38.7625C2.52828 39.5533 3.60038 39.9983 4.71875 40H20.6562ZM15.9688 35.9375H9.40625C9.28193 35.9375 9.1627 35.8881 9.07479 35.8002C8.98689 35.7123 8.9375 35.5931 8.9375 35.4688C8.9375 35.3444 8.98689 35.2252 9.07479 35.1373C9.1627 35.0494 9.28193 35 9.40625 35H15.9688C16.0931 35 16.2123 35.0494 16.3002 35.1373C16.3881 35.2252 16.4375 35.3444 16.4375 35.4688C16.4375 35.5931 16.3881 35.7123 16.3002 35.8002C16.2123 35.8881 16.0931 35.9375 15.9688 35.9375ZM14.4219 22.0312H21.2656L17.8438 25.7188L14.4219 22.0312ZM17.2031 26.4062L13.7812 30.0938V22.7188L17.2031 26.4062ZM20.9688 19.8438H4.40625C4.38438 19.8438 4.36375 19.8388 4.34375 19.8372L12.6875 14.4637L21.0328 19.8388C21.0113 19.8388 20.9906 19.8438 20.9688 19.8438ZM10.9531 22.0312L7.53125 25.7188L4.10937 22.0312H10.9531ZM11.5938 22.7188V30.0938L8.17094 26.4062L11.5938 22.7188ZM14.4219 30.7812L17.8438 27.0938L21.2656 30.7812H14.4219ZM21.9062 30.0938L18.4834 26.4062L21.9062 22.7188V30.0938ZM21.9062 8.90625V18.9062C21.9057 19.0215 21.8837 19.1356 21.8412 19.2428L13.5534 13.9062L21.8412 8.56969C21.8837 8.67686 21.9057 8.791 21.9062 8.90625ZM18.0906 0.9375L17.3406 2.3375C17.1807 2.65877 16.9368 2.9307 16.6347 3.12439C16.3326 3.31808 15.9837 3.42629 15.625 3.4375H9.75C9.39132 3.42629 9.04239 3.31808 8.7403 3.12439C8.43821 2.9307 8.19425 2.65877 8.03438 2.3375L7.28437 0.9375H18.0906ZM4.40625 7.96875H20.9688C20.9906 7.96875 21.0112 7.97375 21.0312 7.97531L12.6875 13.3488L4.34375 7.97531C4.36375 7.97375 4.38438 7.96875 4.40625 7.96875ZM3.46875 8.90625C3.4693 8.791 3.49135 8.67686 3.53375 8.56969L11.8216 13.9062L3.53375 19.2428C3.49135 19.1356 3.4693 19.0215 3.46875 18.9062V8.90625ZM3.46875 22.7188L6.89156 26.4062L3.46875 30.0938V22.7188ZM7.53125 27.0938L10.9531 30.7812H4.10937L7.53125 27.0938Z" fill="#FF4F38"/>
<path d="M32.1594 39.5156L34.7969 36.625C35.2487 36.157 35.5008 35.5317 35.5 34.8813V4.375C35.5 3.21468 35.0391 2.10188 34.2186 1.28141C33.3981 0.460936 32.2853 0 31.125 0C29.9647 0 28.8519 0.460936 28.0314 1.28141C27.2109 2.10188 26.75 3.21468 26.75 4.375V34.9313C26.7493 35.549 26.9763 36.1453 27.3875 36.6063L30.0906 39.5219C30.2233 39.6635 30.3838 39.7762 30.562 39.8531C30.7402 39.93 30.9323 39.9694 31.1264 39.9688C31.3204 39.9682 31.5123 39.9277 31.69 39.8497C31.8677 39.7717 32.0275 39.658 32.1594 39.5156ZM27.6875 5.3125H34.5625V6.875H27.6875V5.3125ZM33.4688 7.8125V34.1906C33.4106 34.1231 33.3386 34.0689 33.2575 34.0319C33.1765 33.9949 33.0884 33.9759 32.9993 33.9762C32.9102 33.9764 32.8222 33.9961 32.7414 34.0336C32.6606 34.0712 32.5889 34.1258 32.5313 34.1937V7.8125H33.4688ZM29.7188 7.8125V34.1937C29.6611 34.1256 29.5893 34.0709 29.5084 34.0333C29.4274 33.9958 29.3392 33.9764 29.25 33.9764C29.1608 33.9764 29.0726 33.9958 28.9916 34.0333C28.9107 34.0709 28.8389 34.1256 28.7813 34.1937V7.8125H29.7188ZM28.0813 35.9781C28.0594 35.9531 28.0438 35.9219 28.0219 35.8969L29.2469 35.0125L30.8469 36.1875C30.9274 36.2469 31.0249 36.2789 31.125 36.2789C31.2251 36.2789 31.3226 36.2469 31.4031 36.1875L33.0063 35.0094L34.2094 35.8656C34.1781 35.9031 34.15 35.9469 34.1125 35.9844L32.5563 37.6875C32.3674 37.4981 32.1427 37.3481 31.8954 37.2463C31.6481 37.1444 31.383 37.0927 31.1155 37.0942C30.848 37.0956 30.5835 37.1502 30.3373 37.2548C30.0911 37.3593 29.8681 37.5117 29.6813 37.7031L28.0813 35.9781Z" fill="#FF4F38"/>
</svg>
