<svg width="57" height="41" viewBox="0 0 57 41" fill="none" xmlns="http://www.w3.org/2000/svg">
<path d="M46.1063 23.9881C46.7926 24.6744 47.2193 25.6247 47.2193 26.6728C47.2193 27.7232 46.7926 28.6712 46.1063 29.3597C45.4178 30.046 44.4697 30.4695 43.4216 30.4695C42.3713 30.4695 41.4232 30.046 40.7347 29.3597C40.0484 28.6712 39.625 27.7232 39.625 26.6728C39.625 25.6258 40.0495 24.6744 40.7347 23.9881C41.4232 23.3018 42.3713 22.8751 43.4216 22.8751C44.4697 22.8751 45.4178 23.3018 46.1063 23.9881ZM56.3139 25.8744V27.4735C56.3139 27.9509 56.018 28.3589 55.5627 28.5052L54.4277 28.8725C54.0724 28.988 53.8195 29.2498 53.7205 29.6083C53.4928 30.4068 53.175 31.1668 52.779 31.8784C52.5986 32.2028 52.592 32.5669 52.7603 32.8979L53.3025 33.9637C53.5203 34.3871 53.44 34.8831 53.1035 35.223L51.9717 36.3547C51.6352 36.6913 51.1392 36.7694 50.7124 36.5538L49.6467 36.0116C49.3167 35.84 48.9516 35.8466 48.6271 36.0303C47.9166 36.4262 47.1555 36.7441 46.3571 36.9684C45.9985 37.0718 45.7368 37.3237 45.6246 37.6789L45.2539 38.8139C45.1077 39.2693 44.7018 39.5618 44.2223 39.5618H42.6231C42.1458 39.5618 41.7377 39.2682 41.5915 38.8139L41.2241 37.6789C41.1086 37.3237 40.8469 37.0707 40.4883 36.9684C39.6898 36.7441 38.9299 36.4262 38.2183 36.0303C37.8938 35.8499 37.5298 35.84 37.1987 36.0116L36.133 36.5538C35.7084 36.7694 35.2135 36.6913 34.8737 36.3547L33.7419 35.223C33.4054 34.8831 33.3273 34.3871 33.5429 33.9637L34.0851 32.8979C34.2566 32.568 34.25 32.2028 34.0664 31.8784C33.6704 31.1679 33.3526 30.4068 33.1282 29.6083C33.0248 29.2498 32.773 28.988 32.4177 28.8725L31.2827 28.5052C30.8274 28.3589 30.5348 27.9498 30.5348 27.4735V25.8744C30.5348 25.3937 30.8274 24.989 31.2827 24.8427L32.421 24.4721C32.773 24.3566 33.0259 24.0981 33.1282 23.7396C33.3559 22.9411 33.6704 22.1811 34.0664 21.4695C34.25 21.1451 34.2566 20.781 34.0851 20.45L33.5429 19.3842C33.3273 18.9575 33.4054 18.4615 33.7419 18.1249L34.8737 16.9932C35.2135 16.6566 35.7095 16.5752 36.133 16.7941L37.1987 17.3363C37.5287 17.5046 37.8938 17.498 38.2183 17.3176C38.9288 16.9217 39.6898 16.6038 40.4883 16.3762C40.8469 16.2761 41.1086 16.0242 41.2241 15.669L41.5915 14.5339C41.7377 14.0786 42.1469 13.7827 42.6231 13.7827H44.2223C44.7029 13.7827 45.1077 14.0786 45.2539 14.5339L45.6246 15.669C45.7368 16.0242 45.9985 16.2772 46.3571 16.3762C47.1555 16.6038 47.9155 16.9217 48.6271 17.3176C48.9516 17.498 49.3156 17.5046 49.6467 17.3363L50.7124 16.7941C51.1392 16.5763 51.6352 16.6566 51.9717 16.9932L53.1035 18.1249C53.44 18.4615 53.5214 18.9575 53.3025 19.3842L52.7603 20.45C52.592 20.7799 52.5986 21.1451 52.779 21.4695C53.175 22.18 53.4928 22.9411 53.7205 23.7396C53.8206 24.0981 54.0724 24.3599 54.4277 24.4721L55.5627 24.8427C56.018 24.989 56.3139 25.3937 56.3139 25.8744ZM49.0341 26.6728C49.0341 25.1232 48.4072 23.7209 47.3909 22.7046C46.3747 21.6884 44.9713 21.0582 43.4216 21.0582C41.8686 21.0582 40.4663 21.6884 39.4501 22.7046C38.4338 23.7209 37.8069 25.1243 37.8069 26.6728C37.8069 28.2258 38.4338 29.6281 39.4501 30.6444C40.4663 31.6606 41.8697 32.2875 43.4216 32.2875C44.9713 32.2875 46.3736 31.6606 47.3909 30.6444C48.4072 29.6281 49.0341 28.2247 49.0341 26.6728ZM31.2167 38.682H27.2474L26.0376 35.3088H17.3796L16.1731 38.682H12.2038C11.7023 38.682 11.2931 39.0878 11.2931 39.5893C11.2931 40.0909 11.7012 40.5 12.2038 40.5H31.2156C31.7171 40.5 32.1263 40.092 32.1263 39.5893C32.1274 39.0867 31.7193 38.682 31.2167 38.682ZM28.7542 25.375H0V3.34308C0 1.77801 1.28131 0.5 2.84638 0.5H40.5763C42.1414 0.5 43.4227 1.77801 43.4227 3.34308V11.9636H42.622C41.3561 11.9636 40.253 12.7676 39.8625 13.9719L39.6096 14.7418C38.9453 14.9541 38.2997 15.2224 37.6793 15.5436L36.9557 15.1751C35.8305 14.601 34.4799 14.8133 33.5857 15.7086L32.454 16.8403C31.5587 17.7323 31.3476 19.0818 31.9206 20.2102L32.2879 20.9339C31.9701 21.5542 31.7017 22.1998 31.4895 22.8641L30.7163 23.1138C29.6769 23.4514 28.9345 24.3247 28.7542 25.375ZM11.435 13.3912L17.4522 10.0301C17.8889 9.78703 18.0472 9.23491 17.8042 8.79828C17.5611 8.36164 17.009 8.20326 16.5724 8.44633L9.14625 12.5927C8.99997 12.6741 8.87239 12.7951 8.7844 12.9513C8.54134 13.3879 8.69972 13.94 9.13635 14.1831L16.5724 18.3361C17.009 18.5791 17.5611 18.423 17.8042 17.9841C18.0472 17.5475 17.8889 16.9954 17.4522 16.7523L11.435 13.3912ZM23.4661 5.73743C22.9767 5.62524 22.4906 5.931 22.3784 6.42043L19.2769 19.9605C19.1647 20.4467 19.4704 20.9328 19.9566 21.045C20.446 21.1572 20.9321 20.8514 21.0443 20.362L24.1458 6.82517C24.258 6.33574 23.9523 5.84961 23.4661 5.73743ZM26.8492 18.3361L34.2852 14.1831C34.7219 13.94 34.8803 13.3879 34.6372 12.9513C34.5503 12.7951 34.4216 12.6741 34.2753 12.5927L26.8492 8.44633C26.4126 8.20326 25.8605 8.36164 25.6174 8.79828C25.3744 9.23491 25.5327 9.78703 25.9694 10.0301L31.9866 13.3912L25.9694 16.7523C25.5327 16.9954 25.3744 17.5475 25.6174 17.9841C25.8605 18.423 26.4126 18.5791 26.8492 18.3361ZM30.7185 30.233C29.5152 29.8437 28.7135 28.7394 28.7135 27.4735V27.1931H0V30.6477C0 32.2094 1.28131 33.4907 2.84638 33.4907H31.7688C31.8128 33.372 31.8623 33.2543 31.9217 33.1388L32.289 32.4151C31.9712 31.7948 31.7028 31.1492 31.4873 30.4849L30.7185 30.233Z" fill="#FF4F38"/>
</svg>
