<svg width="41" height="41" viewBox="0 0 41 41" fill="none" xmlns="http://www.w3.org/2000/svg">
<path fill-rule="evenodd" clip-rule="evenodd" d="M14.3993 12.4961L20.2236 13.4579C21.8144 13.7206 22.959 15.0698 22.959 16.682V22.5954C22.4291 22.4152 21.8611 22.3174 21.2704 22.3174C21.2354 22.3174 21.2005 22.318 21.1656 22.3187L21.3918 18.9945C21.4543 18.0743 20.7195 17.2879 19.7974 17.2879H14.5098L14.0475 12.6651C14.1673 12.6132 14.2845 12.5567 14.3993 12.4959V12.4961ZM3.26824 25.1226L3.77751 25.2836L3.34967 18.9946C3.28709 18.0744 4.02179 17.288 4.94405 17.288H10.2318L10.6936 12.6702C10.5713 12.6178 10.4508 12.5603 10.3324 12.4977L4.51784 13.458C2.92704 13.7207 1.78253 15.0699 1.78253 16.6821V23.0948C1.78253 24.0378 2.36906 24.8385 3.26824 25.1226ZM12.4377 13.0515L12.3638 13.0563L12.2899 13.0515C12.1279 13.0409 11.9675 13.0226 11.809 12.9963L11.3797 17.288H13.3619L12.9323 12.9934C12.7708 13.0204 12.606 13.0405 12.4377 13.0515ZM16.2706 29.142H0.705078V30.3278H16.8172C16.5884 29.9604 16.4037 29.5626 16.2706 29.142ZM38.7946 29.0311C37.5301 30.2956 35.8353 30.868 34.1815 30.7479C33.9105 31.4534 32.6547 33.1108 31.3661 33.3895C31.9504 32.2508 32.2721 31.1777 32.1671 30.236C31.5373 29.9503 30.9472 29.5489 30.4293 29.0311C28.1193 26.7211 28.1194 22.9758 30.4293 20.6658C32.7393 18.3558 36.4845 18.3558 38.7945 20.6658C41.1045 22.9758 41.1045 26.721 38.7945 29.031L38.7946 29.0311ZM34.3313 22.6386C34.3313 22.954 34.587 23.2097 34.9024 23.2097H37.8334C38.1488 23.2097 38.4045 22.954 38.4045 22.6386C38.4045 22.3232 38.1488 22.0675 37.8334 22.0675H34.9024C34.587 22.0675 34.3313 22.3232 34.3313 22.6386ZM30.8194 22.6386C30.8194 22.954 31.0751 23.2097 31.3905 23.2097H32.5567C32.8721 23.2097 33.1278 22.954 33.1278 22.6386C33.1278 22.3232 32.8721 22.0675 32.5567 22.0675H31.3905C31.0751 22.0675 30.8194 22.3232 30.8194 22.6386ZM38.2962 27.1233C38.2962 26.8079 38.0405 26.5522 37.7251 26.5522H31.4988C31.1833 26.5522 30.9277 26.8079 30.9277 27.1233C30.9277 27.4387 31.1833 27.6944 31.4988 27.6944H37.7251C38.0405 27.6944 38.2962 27.4387 38.2962 27.1233ZM38.7509 24.881C38.7509 24.5655 38.4953 24.3098 38.1798 24.3098H31.0441C30.7287 24.3098 30.473 24.5655 30.473 24.881C30.473 25.1964 30.7287 25.4521 31.0441 25.4521H38.1798C38.4953 25.4521 38.7509 25.1964 38.7509 24.881ZM23.1473 9.98751C21.0603 7.90057 21.0603 4.51688 23.1473 2.42995C25.2342 0.343012 28.6179 0.343012 30.7048 2.42995C32.7918 4.51688 32.7918 7.90057 30.7048 9.98751C29.5624 11.13 28.0313 11.6471 26.5372 11.5386C26.2923 12.1759 25.1578 13.6732 23.9936 13.9251C24.5215 12.8963 24.8122 11.9269 24.7173 11.0761C24.1483 10.8179 23.6151 10.4553 23.1473 9.98751ZM27.4936 9.00699C27.4936 8.69157 27.2379 8.43587 26.9225 8.43587C26.6071 8.43587 26.3514 8.69157 26.3514 9.00699V9.135C26.3514 9.45042 26.6071 9.70611 26.9225 9.70611C27.2379 9.70611 27.4936 9.45042 27.4936 9.135V9.00699ZM25.5047 5.31416C25.8164 5.35479 26.1021 5.13507 26.1427 4.82333C26.1686 4.62768 26.2651 4.45651 26.4044 4.33437C26.543 4.21297 26.7257 4.14019 26.9252 4.14019C27.1561 4.14019 27.3811 4.21974 27.5393 4.39222C27.7201 4.58925 27.7442 4.89888 27.6507 5.14136C27.59 5.29882 27.3926 5.5041 27.2095 5.6946C27.1253 5.78223 27.0434 5.86741 26.9619 5.96131C26.8014 6.14611 26.6532 6.34812 26.5414 6.59607C26.4244 6.85535 26.3515 7.1516 26.3515 7.50724C26.3515 7.82266 26.6072 8.07835 26.9226 8.07835C27.238 8.07835 27.4937 7.82266 27.4937 7.50724C27.4937 7.32644 27.5272 7.18374 27.581 7.06454C27.6399 6.93384 27.7267 6.81733 27.8231 6.70645C27.8789 6.64224 27.9537 6.56433 28.0306 6.48437C28.2898 6.21464 28.569 5.92419 28.7127 5.55182C28.9631 4.90271 28.8541 4.13889 28.3783 3.6204C28.0112 3.22037 27.4656 2.99804 26.9254 2.99804C26.4433 2.99804 25.9972 3.17778 25.655 3.4777C25.3136 3.77688 25.0774 4.19616 25.0139 4.67606C24.9733 4.98781 25.193 5.27345 25.5048 5.31408L25.5047 5.31416ZM16.0277 27.5601C16.0277 27.7081 16.034 27.8548 16.046 27.9997H5.60402C5.32376 27.9997 5.09246 27.7836 5.07345 27.504L4.48928 18.9171C4.47125 18.6521 4.67849 18.4302 4.94414 18.4302H19.7974C20.0629 18.4302 20.2702 18.6521 20.2522 18.9171L20.0105 22.4703C17.7238 23.0346 16.0277 25.0994 16.0277 27.5602V27.5601ZM13.3779 23.7404C13.3779 23.1857 12.9254 22.7333 12.3707 22.7333C11.8161 22.7333 11.3636 23.1857 11.3636 23.7404C11.3636 24.2952 11.816 24.7476 12.3707 24.7476C12.9255 24.7476 13.3779 24.2952 13.3779 23.7404ZM12.3638 11.9115C17.3439 11.5885 18.6591 1.70871 12.3638 1.70871C6.0685 1.70871 7.38369 11.5885 12.3638 11.9115ZM21.2704 32.4808C17.004 32.4808 13.5012 35.7478 13.1257 39.9164V40.8647H29.4152V39.9164C29.0396 35.7478 25.5368 32.4808 21.2704 32.4808ZM21.2704 31.6607C23.5289 31.6607 25.371 29.8186 25.371 27.5601C25.371 25.3015 23.5289 23.4595 21.2704 23.4595C19.0119 23.4595 17.1698 25.3015 17.1698 27.5601C17.1698 29.8186 19.0118 31.6607 21.2704 31.6607Z" fill="#FF4F38"/>
</svg>
