<svg width="36" height="40" viewBox="0 0 36 40" fill="none" xmlns="http://www.w3.org/2000/svg">
<path fill-rule="evenodd" clip-rule="evenodd" d="M9.46535 23.9754H6.43253C6.20683 23.9754 6.02269 23.7914 6.02269 23.5656V20.5328C6.02269 20.3071 6.20675 20.1229 6.43253 20.1229H9.46535C9.69105 20.1229 9.87512 20.307 9.87512 20.5328V23.5656C9.87519 23.7914 9.69105 23.9754 9.46535 23.9754ZM9.04621 6.39345H20.909C21.1183 6.39345 21.2891 6.22267 21.2891 6.01337V2.51118C21.2891 2.30188 21.1184 2.1311 20.909 2.1311H17.6867C17.3918 0.908361 16.2909 0 14.9777 0C13.6644 0 12.5635 0.908361 12.2686 2.1311H9.04629C8.83691 2.1311 8.66621 2.30188 8.66621 2.51118V6.01337C8.66613 6.22267 8.83691 6.39345 9.04621 6.39345ZM29.24 27.9098C25.9014 27.9098 23.1949 30.6163 23.1949 33.9549C23.1949 37.2935 25.9014 40 29.24 40C32.5786 40 35.2851 37.2935 35.2851 33.9549C35.2851 30.6163 32.5786 27.9098 29.24 27.9098ZM25.3013 33.263C25.5573 33.007 25.9726 33.007 26.2286 33.263L28.2477 35.2822L32.2514 31.2385C32.506 30.9825 32.9201 30.9813 33.1761 31.2359C33.4321 31.4905 33.4333 31.9046 33.1787 32.1606L28.7477 36.6358C28.7366 36.6489 28.7248 36.6617 28.7123 36.6741C28.4563 36.9301 28.0412 36.9301 27.7851 36.6741L25.3013 34.1903C25.0452 33.9342 25.0452 33.5191 25.3013 33.263ZM20.909 7.6097H9.04621C8.16558 7.6097 7.44988 6.894 7.44988 6.01337V4.26227H2.35463C1.45174 4.26227 0.715332 4.99868 0.715332 5.90157V36.0657C0.715332 36.9686 1.45174 37.7051 2.35463 37.7051H22.9102C22.2582 36.6069 21.8833 35.3248 21.8833 33.955C21.8833 29.8921 25.177 26.5984 29.2399 26.5984V5.90157C29.2399 4.99868 28.5035 4.26227 27.6006 4.26227H22.5054V6.01337C22.5055 6.894 21.7897 7.6097 20.909 7.6097ZM6.02269 32.3361V29.3033C6.02269 29.0776 6.20675 28.8934 6.43253 28.8934H9.46535C9.69105 28.8934 9.87512 29.0775 9.87512 29.3033V32.3361C9.87512 32.5618 9.69105 32.7459 9.46535 32.7459H6.43253C6.20683 32.7459 6.02269 32.5619 6.02269 32.3361ZM14.1375 30.2049C13.7754 30.2049 13.4818 29.9113 13.4818 29.5492C13.4818 29.1871 13.7754 28.8935 14.1375 28.8935H19.8382C20.2003 28.8935 20.4939 29.1871 20.4939 29.5492C20.4939 29.9113 20.2003 30.2049 19.8382 30.2049H14.1375ZM9.46535 15.2049H6.43253C6.20683 15.2049 6.02269 15.0208 6.02269 14.7951V11.7623C6.02269 11.5366 6.20675 11.3525 6.43253 11.3525H9.46535C9.69105 11.3525 9.87512 11.5366 9.87512 11.7623V14.7951C9.87519 15.0208 9.69105 15.2049 9.46535 15.2049ZM14.1375 23.9754C13.7754 23.9754 13.4818 23.6818 13.4818 23.3197C13.4818 22.9576 13.7754 22.664 14.1375 22.664H23.9326C24.2947 22.664 24.5883 22.9576 24.5883 23.3197C24.5883 23.6818 24.2947 23.9754 23.9326 23.9754H14.1375ZM14.1375 21.4344C13.7754 21.4344 13.4818 21.1408 13.4818 20.7787C13.4818 20.4166 13.7754 20.123 14.1375 20.123H23.9326C24.2947 20.123 24.5883 20.4166 24.5883 20.7787C24.5883 21.1408 24.2947 21.4344 23.9326 21.4344H14.1375ZM14.1375 15.2049C13.7754 15.2049 13.4818 14.9113 13.4818 14.5492C13.4818 14.1871 13.7754 13.8935 14.1375 13.8935H23.9326C24.2947 13.8935 24.5883 14.1871 24.5883 14.5492C24.5883 14.9113 24.2947 15.2049 23.9326 15.2049H14.1375ZM14.1375 12.6639C13.7754 12.6639 13.4818 12.3703 13.4818 12.0082C13.4818 11.6461 13.7754 11.3525 14.1375 11.3525H23.9326C24.2947 11.3525 24.5883 11.6461 24.5883 12.0082C24.5883 12.3703 24.2947 12.6639 23.9326 12.6639H14.1375ZM14.1375 32.7459C13.7754 32.7459 13.4818 32.4523 13.4818 32.0902C13.4818 31.728 13.7754 31.4345 14.1375 31.4345H19.8382C20.2003 31.4345 20.4939 31.7281 20.4939 32.0902C20.4939 32.4523 20.2003 32.7459 19.8382 32.7459H14.1375Z" fill="#13182B"/>
</svg>
