<svg width="46" height="41" viewBox="0 0 46 41" fill="none" xmlns="http://www.w3.org/2000/svg">
<path d="M24.0599 26.574C24.0599 25.4358 24.9847 24.511 26.1229 24.511H27.8071V24.0797C27.8071 23.008 28.2314 21.987 28.9899 21.2302C29.7467 20.4734 30.7677 20.0473 31.8395 20.0473H35.297V4.49964C35.297 2.24505 33.4519 0.399902 31.1973 0.399902H7.31015C8.16842 1.27304 8.69685 2.46552 8.69685 3.77786V38.9371C8.69685 39.217 8.9252 39.4428 9.20254 39.4428H24.8683V31.5338C24.3574 30.8094 24.0599 29.9266 24.0599 28.9765V26.574ZM12.6024 5.26079C12.6024 4.96858 12.843 4.72799 13.1352 4.72799H30.857C31.1492 4.72799 31.3898 4.96858 31.3898 5.26079V9.73499C31.3898 10.0272 31.1492 10.2678 30.857 10.2678H13.136C12.8438 10.2678 12.6032 10.0272 12.6032 9.73499V5.26079H12.6024ZM13.3268 13.6956H30.6697C31.0669 13.6956 31.3915 14.0184 31.3915 14.4174C31.3915 14.8163 31.0669 15.1392 30.6697 15.1392H13.3268C12.9278 15.1392 12.6024 14.8163 12.6024 14.4174C12.6024 14.0176 12.9278 13.6956 13.3268 13.6956ZM13.3268 18.6877H19.2437C19.6426 18.6877 19.9654 19.0123 19.9654 19.4122C19.9654 19.812 19.6426 20.1339 19.2437 20.1339H13.3268C12.9278 20.1339 12.6024 19.8111 12.6024 19.4122C12.6024 19.0132 12.9278 18.6877 13.3268 18.6877ZM13.3268 23.6825H22.8946C23.2935 23.6825 23.619 24.0071 23.619 24.4069C23.619 24.8041 23.2944 25.1287 22.8946 25.1287H13.3268C12.9278 25.1287 12.6024 24.8041 12.6024 24.4069C12.6024 24.0071 12.9278 23.6825 13.3268 23.6825ZM13.3268 28.6772H19.2437C19.6426 28.6772 19.9654 29.0018 19.9654 29.399C19.9654 29.798 19.6426 30.1234 19.2437 30.1234H13.3268C12.9278 30.1234 12.6024 29.7989 12.6024 29.399C12.6024 29.0018 12.9278 28.6772 13.3268 28.6772ZM23.2323 35.1173H13.3268C12.9278 35.1173 12.6024 34.7927 12.6024 34.3929C12.6024 33.994 12.9269 33.6711 13.3268 33.6711H23.2323C23.6312 33.6711 23.9541 33.994 23.9541 34.3929C23.9541 34.7927 23.6312 35.1173 23.2323 35.1173ZM7.25328 3.77786V14.2284H1.14479C0.790464 14.2284 0.5 13.938 0.5 13.5836V3.77786C0.5 1.92046 2.01794 0.399902 3.87533 0.399902C5.73272 0.399902 7.25328 1.92046 7.25328 3.77786ZM42.2708 33.4463C43.0739 33.4463 43.8333 33.2302 44.4851 32.8557V39.4821C44.4851 39.9878 44.0731 40.3999 43.5674 40.3999H27.2297C26.7266 40.3999 26.3119 39.9878 26.3119 39.4821V32.8557C26.9663 33.2302 27.7231 33.4463 28.5289 33.4463H32.9856C33.0678 34.4235 33.8911 35.1969 34.8876 35.1969H35.9095C36.9068 35.1969 37.7318 34.4235 37.8141 33.4463H42.2708ZM31.8403 21.4926H38.9602C39.6724 21.4926 40.3189 21.7831 40.7878 22.2512C41.2542 22.7201 41.5464 23.3649 41.5464 24.0788V24.5101H39.5149V24.0788C39.5149 23.9275 39.4501 23.7884 39.3513 23.6869C39.2498 23.5854 39.1107 23.5233 38.9593 23.5233H31.8395C31.6881 23.5233 31.549 23.5854 31.4475 23.6869C31.346 23.7884 31.2839 23.9275 31.2839 24.0788V24.5101H29.2524V24.0788C29.2524 23.3649 29.5429 22.7201 30.0109 22.2512C30.479 21.7822 31.1255 21.4926 31.8403 21.4926ZM45.2944 26.574V28.9773C45.2944 30.6414 43.9331 32.0027 42.2717 32.0027H37.8202V30.7157C37.8202 29.6641 36.9619 28.8059 35.9103 28.8059H34.8885C33.8368 28.8059 32.9786 29.6641 32.9786 30.7157V32.0027H28.5297C26.8657 32.0027 25.5044 30.6414 25.5044 28.9773V26.574C25.5044 26.2345 25.7843 25.9537 26.1247 25.9537H44.675C45.0162 25.9537 45.2944 26.2337 45.2944 26.574ZM34.8885 33.7534C34.633 33.7534 34.4248 33.5425 34.4248 33.287V30.7149C34.4248 30.4594 34.633 30.2512 34.8885 30.2512H35.9103C36.1658 30.2512 36.3766 30.4594 36.3766 30.7149V33.287C36.3766 33.5425 36.1658 33.7534 35.9103 33.7534H34.8885Z" fill="#FF4F38"/>
</svg>
