<svg width="39" height="41" viewBox="0 0 39 41" fill="none" xmlns="http://www.w3.org/2000/svg">
<path d="M36.5223 0.5H2.20393C1.61941 0.5 1.05884 0.7322 0.645518 1.14552C0.2322 1.55884 0 2.11942 0 2.70393C0 3.28846 0.2322 3.84903 0.645518 4.26235C1.05884 4.67567 1.61941 4.90787 2.20393 4.90787H36.5223C37.1069 4.90787 37.6674 4.67567 38.0808 4.26235C38.4941 3.84903 38.7263 3.28846 38.7263 2.70393C38.7263 2.11942 38.4941 1.55884 38.0808 1.14552C37.6674 0.7322 37.1069 0.5 36.5223 0.5Z" fill="#13182B"/>
<path d="M36.3653 29.466H35.5782V7.11182H3.14885V29.466H2.36173C2.06947 29.466 1.78918 29.5821 1.58252 29.7888C1.37587 29.9954 1.25977 30.2757 1.25977 30.568C1.25977 30.8602 1.37587 31.1405 1.58252 31.3472C1.78918 31.5539 2.06947 31.6699 2.36173 31.6699H18.2615V34.0773C17.5263 34.3372 16.9066 34.8487 16.512 35.5214C16.1174 36.194 15.9733 36.9845 16.1052 37.7531C16.2371 38.5218 16.6364 39.219 17.2327 39.7217C17.8289 40.2243 18.5837 40.5 19.3635 40.5C20.1434 40.5 20.8981 40.2243 21.4943 39.7217C22.0906 39.219 22.4899 38.5218 22.6218 37.7531C22.7537 36.9845 22.6096 36.194 22.215 35.5214C21.8204 34.8487 21.2007 34.3372 20.4655 34.0773V31.6699H36.3653C36.6576 31.6699 36.9378 31.5539 37.1445 31.3472C37.3512 31.1405 37.4673 30.8602 37.4673 30.568C37.4673 30.2757 37.3512 29.9954 37.1445 29.7888C36.9378 29.5821 36.6576 29.466 36.3653 29.466ZM19.3635 38.2818C19.1456 38.2818 18.9325 38.2171 18.7513 38.096C18.5701 37.975 18.4288 37.8029 18.3454 37.6015C18.262 37.4001 18.2402 37.1786 18.2827 36.9648C18.3252 36.751 18.4302 36.5547 18.5843 36.4006C18.7384 36.2465 18.9348 36.1415 19.1485 36.099C19.3623 36.0565 19.5839 36.0783 19.7852 36.1617C19.9866 36.2451 20.1587 36.3863 20.2798 36.5676C20.4009 36.7488 20.4655 36.9618 20.4655 37.1798C20.4651 37.4719 20.3489 37.752 20.1424 37.9586C19.9358 38.1652 19.6557 38.2814 19.3635 38.2818ZM8.65869 9.31575H19.9932C20.2855 9.31575 20.5658 9.43185 20.7724 9.63851C20.9791 9.84517 21.0952 10.1255 21.0952 10.4177C21.0952 10.71 20.9791 10.9903 20.7724 11.1969C20.5658 11.4036 20.2855 11.5197 19.9932 11.5197H8.65869C8.36643 11.5197 8.08614 11.4036 7.87948 11.1969C7.67282 10.9903 7.55672 10.71 7.55672 10.4177C7.55672 10.1255 7.67282 9.84517 7.87948 9.63851C8.08614 9.43185 8.36643 9.31575 8.65869 9.31575ZM8.65869 13.7236H19.9932C20.2855 13.7236 20.5658 13.8397 20.7724 14.0464C20.9791 14.253 21.0952 14.5333 21.0952 14.8256C21.0952 15.1178 20.9791 15.3981 20.7724 15.6048C20.5658 15.8115 20.2855 15.9276 19.9932 15.9276H8.65869C8.36643 15.9276 8.08614 15.8115 7.87948 15.6048C7.67282 15.3981 7.55672 15.1178 7.55672 14.8256C7.55672 14.5333 7.67282 14.253 7.87948 14.0464C8.08614 13.8397 8.36643 13.7236 8.65869 13.7236ZM7.55672 19.2335C7.55689 18.9412 7.67304 18.6611 7.87966 18.4544C8.08629 18.2478 8.36648 18.1317 8.65869 18.1315H14.9556C15.2479 18.1315 15.5282 18.2476 15.7349 18.4543C15.9415 18.6609 16.0576 18.9412 16.0576 19.2335C16.0576 19.5257 15.9415 19.806 15.7349 20.0127C15.5282 20.2193 15.2479 20.3354 14.9556 20.3354H8.65869C8.36648 20.3353 8.08629 20.2191 7.87966 20.0125C7.67304 19.8059 7.55689 19.5257 7.55672 19.2335ZM31.1703 22.3819C31.1703 22.6742 31.0542 22.9545 30.8476 23.1611C30.6409 23.3678 30.3606 23.4839 30.0683 23.4839C29.7761 23.4839 29.4958 23.3678 29.2891 23.1611C29.0825 22.9545 28.9664 22.6742 28.9664 22.3819V21.2642L23.2909 26.939C23.1828 27.0474 23.0532 27.132 22.9104 27.1875C22.7677 27.2429 22.615 27.268 22.462 27.261C22.3091 27.2541 22.1593 27.2153 22.0221 27.1472C21.885 27.0791 21.7636 26.9831 21.6657 26.8654L19.2325 23.9455L15.6729 26.997C15.4509 27.1872 15.1625 27.2815 14.871 27.259C14.5796 27.2366 14.309 27.0993 14.1188 26.8773C13.9286 26.6554 13.8343 26.367 13.8567 26.0755C13.8792 25.7841 14.0165 25.5135 14.2384 25.3232L18.6463 21.5451C18.7572 21.4501 18.8858 21.3781 19.0247 21.3333C19.1637 21.2884 19.3101 21.2717 19.4556 21.2839C19.601 21.2962 19.7426 21.3372 19.8721 21.4046C20.0016 21.472 20.1164 21.5645 20.2098 21.6767L22.5863 24.5279L27.4079 19.7057H26.2902C25.9979 19.7057 25.7176 19.5896 25.511 19.383C25.3043 19.1763 25.1882 18.896 25.1882 18.6038C25.1882 18.3115 25.3043 18.0312 25.511 17.8246C25.7176 17.6179 25.9979 17.5018 26.2902 17.5018H30.0683C30.3605 17.502 30.6407 17.6181 30.8474 17.8247C31.054 18.0314 31.1701 18.3116 31.1703 18.6038V22.3819Z" fill="#13182B"/>
</svg>
