<svg width="39" height="40" viewBox="0 0 39 40" fill="none" xmlns="http://www.w3.org/2000/svg">
<path d="M15.6419 3.48067C13.7516 3.48085 11.9039 4.04155 10.3323 5.09186C8.76065 6.14217 7.53578 7.63492 6.81253 9.38136C6.08928 11.1278 5.90014 13.0495 6.26902 14.9034C6.63791 16.7573 7.54825 18.4602 8.88494 19.7968C10.2216 21.1334 11.9246 22.0435 13.7786 22.4122C15.6326 22.7809 17.5542 22.5916 19.3006 21.8682C21.0469 21.1448 22.5396 19.9198 23.5897 18.3481C24.6399 16.7763 25.2004 14.9285 25.2004 13.0382C25.1974 10.5042 24.1893 8.07479 22.3974 6.28303C20.6055 4.49126 18.176 3.48344 15.6419 3.48067ZM15.6419 20.4431C14.1775 20.443 12.7459 20.0086 11.5283 19.1949C10.3107 18.3812 9.36171 17.2248 8.80135 15.8717C8.241 14.5187 8.09443 13.0299 8.3802 11.5936C8.66596 10.1573 9.37121 8.838 10.4068 7.8025C11.4423 6.76701 12.7617 6.06184 14.198 5.77617C15.6344 5.49051 17.1232 5.63717 18.4761 6.19762C19.8291 6.75807 20.9855 7.70713 21.7991 8.92479C22.6127 10.1425 23.047 11.574 23.047 13.0385C23.0447 15.0017 22.2638 16.8838 20.8755 18.272C19.4873 19.6601 17.6051 20.4409 15.6419 20.4431ZM24.9347 22.9621L22.9053 20.9328C23.1452 20.7119 23.3749 20.4806 23.5944 20.2389L25.6262 22.2706L24.9347 22.9621ZM32.1981 28.0612C32.8637 28.7268 32.7796 29.4067 32.401 29.7852C32.3061 29.8806 32.1929 29.9556 32.0681 30.0058C31.9433 30.056 31.8097 30.0803 31.6752 30.0772C31.3387 30.0702 30.9934 29.8991 30.6767 29.5821L25.3261 24.2319L26.8476 22.7106L32.1981 28.0612ZM14.4602 11.7571H16.3659V16.0282H14.4602V11.7571ZM38.4163 3.15694V15.4045C38.4161 15.6603 38.3143 15.9057 38.1334 16.0866C37.9525 16.2675 37.7072 16.3692 37.4513 16.3695H32.219V3.1008C32.22 2.27872 32.5471 1.49062 33.1284 0.909326C33.7097 0.328037 34.4978 0.00102138 35.3199 0C37.6054 0 38.4163 1.70064 38.4163 3.15694ZM24.3369 24.9043C24.1998 24.7668 24.1081 24.5907 24.0741 24.3996C24.04 24.2085 24.0653 24.0116 24.1464 23.8352L21.9947 21.6836C19.8152 23.2858 17.1115 24.0069 14.4235 23.7028C11.7356 23.3988 9.26128 22.0921 7.49467 20.0435C5.72806 17.995 4.79919 15.3554 4.89355 12.652C4.98792 9.94859 6.09858 7.38025 8.00373 5.45988C9.90889 3.53952 12.4683 2.40847 15.1709 2.2926C17.8735 2.17674 20.5203 3.08459 22.5829 4.83485C24.6454 6.58512 25.9718 9.04898 26.2972 11.7344C26.6226 14.4198 25.923 17.1292 24.3382 19.3214L26.5199 21.5031C26.6901 21.4405 26.8747 21.4278 27.0519 21.4666C27.2291 21.5053 27.3915 21.594 27.52 21.722L31.0443 25.2463V3.1008C31.044 2.52032 31.1622 1.9459 31.3917 1.41271C31.6212 0.879523 31.9571 0.398803 32.3789 0H3.6008C2.7787 0.000932789 1.99054 0.327923 1.40923 0.909233C0.827923 1.49054 0.500933 2.2787 0.5 3.1008V38.3354C0.500555 38.7768 0.67613 39.1999 0.988211 39.5119C1.30029 39.824 1.7234 39.9995 2.16473 40H29.3795C29.8208 39.9995 30.244 39.824 30.556 39.5119C30.8681 39.1998 31.0437 38.7767 31.0442 38.3354V31.1555C30.5888 31.013 30.1769 30.7577 29.8464 30.4135L24.3369 24.9043ZM25.0886 35.5546H6.64135C6.48557 35.5546 6.33616 35.4927 6.22601 35.3826C6.11585 35.2724 6.05397 35.123 6.05397 34.9672C6.05397 34.8114 6.11585 34.662 6.22601 34.5519C6.33616 34.4417 6.48557 34.3798 6.64135 34.3798H25.0886C25.2444 34.3798 25.3938 34.4417 25.504 34.5519C25.6141 34.662 25.676 34.8114 25.676 34.9672C25.676 35.123 25.6141 35.2724 25.504 35.3826C25.3938 35.4927 25.2444 35.5546 25.0886 35.5546ZM25.0886 32.6261H6.64135C6.48557 32.6261 6.33616 32.5642 6.22601 32.454C6.11585 32.3439 6.05397 32.1945 6.05397 32.0387C6.05397 31.8829 6.11585 31.7335 6.22601 31.6233C6.33616 31.5132 6.48557 31.4513 6.64135 31.4513H25.0886C25.2444 31.4513 25.3938 31.5132 25.504 31.6233C25.6141 31.7335 25.676 31.8829 25.676 32.0387C25.676 32.1945 25.6141 32.3439 25.504 32.454C25.3938 32.5642 25.2444 32.6261 25.0886 32.6261ZM25.0886 29.6975H6.64135C6.48557 29.6975 6.33616 29.6357 6.22601 29.5255C6.11585 29.4153 6.05397 29.2659 6.05397 29.1102C6.05397 28.9544 6.11585 28.805 6.22601 28.6948C6.33616 28.5847 6.48557 28.5228 6.64135 28.5228H25.0886C25.2444 28.5228 25.3938 28.5847 25.504 28.6948C25.6141 28.805 25.676 28.9544 25.676 29.1102C25.676 29.2659 25.6141 29.4153 25.504 29.5255C25.3938 29.6357 25.2444 29.6975 25.0886 29.6975ZM17.5407 9.46611H19.4465V16.028H17.5407V9.46611ZM11.3796 13.5853H13.2854V16.0278H11.3796V13.5853Z" fill="#FF4F38"/>
</svg>
