<svg width="32" height="40" viewBox="0 0 32 40" fill="none" xmlns="http://www.w3.org/2000/svg">
<path d="M9.81038 30.869C9.04523 30.869 8.33273 30.5258 7.85578 29.9276L6.18141 27.8281L4.70828 27.1187L0.862118 34.8545C0.669306 35.2424 0.691024 35.7025 0.919618 36.0705C1.14766 36.4377 1.5493 36.661 1.98141 36.661H1.98423L5.55187 36.6529L7.69882 39.5022C7.93624 39.8173 8.30679 40 8.69695 40C8.73523 40 8.77367 39.9982 8.81218 39.9946C9.24359 39.9547 9.62359 39.6943 9.8164 39.3064L13.7186 31.4579L12.4958 30.869H9.81038Z" fill="#13182B"/>
<path d="M31.1383 34.8545L27.2921 27.1187L25.819 27.8281L24.1446 29.9277C23.6677 30.5258 22.9552 30.869 22.19 30.869H19.5045L18.2817 31.4579L22.1839 39.3064C22.3768 39.6943 22.7568 39.9547 23.1881 39.9946C23.2267 39.9982 23.2651 40 23.3034 40C23.6934 40 24.0641 39.8173 24.3015 39.5022L26.4484 36.6529L30.0161 36.661H30.0189C30.451 36.661 30.8527 36.4378 31.0807 36.0705C31.3093 35.7025 31.3311 35.2424 31.1383 34.8545Z" fill="#13182B"/>
<path d="M22.1898 29.619C22.5702 29.619 22.9299 29.4458 23.167 29.1484L25.0193 26.8257L27.6959 25.5367C28.0386 25.3717 28.2875 25.0596 28.3722 24.6887L29.0333 21.7924L30.8855 19.4697C31.1227 19.1723 31.2116 18.7831 31.1269 18.4122L30.4658 15.516L31.1269 12.6197C31.2115 12.2487 31.1227 11.8596 30.8855 11.5621L29.0333 9.23951L28.3722 6.34319C28.2876 5.97233 28.0386 5.66022 27.6959 5.49515L25.0193 4.20616L23.167 1.88351C22.9298 1.58609 22.5702 1.41289 22.1898 1.41289H19.219L16.5424 0.12375C16.1995 -0.0412499 15.8004 -0.0412499 15.4576 0.12375L12.781 1.41273H9.81026C9.42987 1.41273 9.07011 1.58593 8.833 1.88336L6.98074 4.20601L4.30418 5.49499C3.96145 5.66007 3.71254 5.97218 3.62785 6.34303L2.96676 9.23936L1.1145 11.5619C0.877313 11.8594 0.788485 12.2486 0.873172 12.6195L1.53419 15.5158L0.873172 18.4121C0.788563 18.7829 0.877313 19.1722 1.1145 19.4696L2.96676 21.7922L3.62785 24.6885C3.71246 25.0594 3.96145 25.3715 4.30418 25.5366L6.98074 26.8256L8.833 29.1482C9.07019 29.4456 9.42987 29.6189 9.81026 29.6189H12.781L15.4576 30.9078C15.629 30.9903 15.8145 31.0316 15.9999 31.0316C16.1854 31.0316 16.371 30.9903 16.5423 30.9078L19.2188 29.6189H22.1896L22.1898 29.619ZM16 26.4534C9.96909 26.4534 5.06254 21.5468 5.06254 15.5159C5.06254 9.48498 9.96909 4.57843 16 4.57843C22.0309 4.57843 26.9375 9.48498 26.9375 15.5159C26.9375 21.5468 22.0309 26.4534 16 26.4534Z" fill="#13182B"/>
<path d="M16 5.82837C10.6583 5.82837 6.3125 10.1741 6.3125 15.5159C6.3125 20.8576 10.6583 25.2033 16 25.2033C21.3417 25.2033 25.6875 20.8576 25.6875 15.5159C25.6875 10.1741 21.3417 5.82837 16 5.82837ZM16.2588 18.3838C16.0162 18.6265 15.6961 18.75 15.3747 18.75C15.0996 18.75 14.8235 18.6596 14.5941 18.4761L11.4691 15.9761L13.0308 14.024L15.2822 15.8251L18.8661 12.2412L20.6338 14.0089L16.2588 18.3839V18.3838Z" fill="#13182B"/>
</svg>
