<svg width="40" height="40" viewBox="0 0 40 40" fill="none" xmlns="http://www.w3.org/2000/svg">
<path fill-rule="evenodd" clip-rule="evenodd" d="M33.3867 40H6.61287V37.9358C6.61287 36.8006 7.77537 35.8717 9.19629 35.8717H13.8075V31.0588H3.32621C1.66004 31.0588 0.296875 29.6955 0.296875 28.0293V7.18875C0.296875 5.52258 1.66004 4.15933 3.32621 4.15933H14.5215V6.69258H3.25021C3.01913 6.69258 2.83004 6.88167 2.83004 7.11267V25.9558H37.1695V7.11275C37.1695 6.88167 36.9804 6.69267 36.7494 6.69267H35.8815V4.8715L34.5308 4.35158C34.5082 4.28717 34.4846 4.22308 34.4602 4.15942H36.6734C38.3395 4.15942 39.7028 5.52258 39.7028 7.18883V28.0294C39.7028 29.6956 38.3395 31.0588 36.6734 31.0588H26.1921V35.8718H30.8033C32.2242 35.8718 33.3867 36.8007 33.3867 37.9359V40ZM17.6329 20.2603L19.411 17.1804H15.8546L17.6329 20.2603ZM15.8547 15.8472H19.4111V2.12508C19.4111 1.30892 18.7455 0.64325 17.9293 0.64325H17.3365C16.5204 0.64325 15.8547 1.30892 15.8547 2.12508V15.8472ZM31.2281 22.7753L34.0255 20.418C34.3444 20.1497 34.3377 19.6582 34.0185 19.3965L31.2281 17.0451C30.9477 16.8092 30.5291 16.8453 30.2932 17.1258C30.0574 17.4062 30.0935 17.8248 30.374 18.0608L32.5687 19.9103L30.374 21.7598C30.0935 21.9956 30.0574 22.4142 30.2932 22.6947C30.5291 22.9751 30.9477 23.0112 31.2281 22.7753ZM26.1504 21.7598L23.9556 19.9103L26.1504 18.0608C26.4308 17.8249 26.467 17.4063 26.2311 17.1258C25.9953 16.8454 25.5767 16.8092 25.2962 17.0451L22.5059 19.3965C22.1866 19.6582 22.18 20.1497 22.4989 20.418L25.2962 22.7753C25.5766 23.0112 25.9952 22.9751 26.2311 22.6946C26.467 22.4142 26.4308 21.9956 26.1504 21.7598ZM28.047 23.2857L29.7638 16.8785C29.8587 16.5233 29.6477 16.1583 29.2925 16.0634C28.9372 15.9685 28.5723 16.1795 28.4774 16.5348L26.7605 22.9419C26.6656 23.2972 26.8766 23.6621 27.2319 23.757C27.5871 23.8519 27.952 23.6409 28.047 23.2857ZM33.4392 5.36C33.2985 4.76908 33.0643 4.20458 32.7458 3.68733L33.2285 2.60058L31.9475 1.31967L30.8607 1.80233C30.3435 1.48383 29.7791 1.24958 29.1882 1.10892L28.7612 0H26.9498L26.5229 1.10908C25.932 1.24975 25.3676 1.484 24.8504 1.8025L23.7635 1.31983L22.4826 2.60075L22.9652 3.68725C22.6466 4.20458 22.4123 4.76908 22.2717 5.36025L21.1629 5.787V7.5985L22.272 8.02533C22.4125 8.61625 22.6469 9.18067 22.9653 9.69783L22.4826 10.7847L23.7635 12.0656L24.85 11.583C25.3674 11.9016 25.932 12.1359 26.523 12.2765L26.9498 13.3853H28.7613L29.1882 12.2763C29.7791 12.1356 30.3435 11.9013 30.8607 11.5829L31.9475 12.0656L33.2285 10.7847L32.7459 9.69817C33.0645 9.18083 33.2987 8.61625 33.4395 8.02525L34.5482 7.59842V5.78692L33.4392 5.36ZM27.8555 9.85175C26.1106 9.85175 24.6964 8.4375 24.6964 6.69258C24.6964 4.94767 26.1106 3.53342 27.8555 3.53342C29.6005 3.53342 31.0147 4.94767 31.0147 6.69258C31.0147 8.43758 29.6005 9.85175 27.8555 9.85175ZM5.71229 18.2606H12.925C13.2932 18.2606 13.5917 17.9621 13.5917 17.5939C13.5917 17.2257 13.2932 16.9272 12.925 16.9272H5.71229C5.34413 16.9272 5.04563 17.2257 5.04563 17.5939C5.04563 17.9621 5.34413 18.2606 5.71229 18.2606ZM5.71229 15.5722H12.925C13.2932 15.5722 13.5917 15.2737 13.5917 14.9055C13.5917 14.5373 13.2932 14.2388 12.925 14.2388H5.71229C5.34413 14.2388 5.04563 14.5373 5.04563 14.9055C5.04563 15.2737 5.34413 15.5722 5.71229 15.5722ZM5.75971 10.1953H12.9725C13.3406 10.1953 13.6391 9.89675 13.6391 9.52858C13.6391 9.16042 13.3406 8.86192 12.9725 8.86192H5.75971C5.39154 8.86192 5.09304 9.16042 5.09304 9.52858C5.09304 9.89675 5.39154 10.1953 5.75971 10.1953ZM5.73596 12.8837H12.9488C13.317 12.8837 13.6155 12.5852 13.6155 12.2171C13.6155 11.8489 13.317 11.5504 12.9488 11.5504H5.73596C5.36779 11.5504 5.06929 11.8489 5.06929 12.2171C5.06929 12.5852 5.36779 12.8837 5.73596 12.8837ZM5.75971 23.6375H19.6394C20.0075 23.6375 20.306 23.339 20.306 22.9708C20.306 22.6027 20.0075 22.3042 19.6394 22.3042H5.75971C5.39154 22.3042 5.09304 22.6027 5.09304 22.9708C5.09304 23.339 5.39154 23.6375 5.75971 23.6375ZM5.73596 20.949H12.9488C13.317 20.949 13.6155 20.6505 13.6155 20.2823C13.6155 19.9142 13.317 19.6157 12.9488 19.6157H5.73596C5.36779 19.6157 5.06929 19.9142 5.06929 20.2823C5.06929 20.6505 5.36779 20.949 5.73596 20.949Z" fill="#FF4F38"/>
</svg>
