<svg width="48" height="48" viewBox="0 0 48 48" fill="none" xmlns="http://www.w3.org/2000/svg">
<g clip-path="url(#clip0_618_15457)">
<path d="M12.7017 29.8822C13.145 29.6265 13.2968 29.0589 13.0411 28.6154C12.785 28.1724 12.2178 28.0202 11.7744 28.276C11.331 28.5322 11.1788 29.0998 11.4349 29.5428C11.6907 29.9861 12.2583 30.1383 12.7017 29.8822Z" fill="#FF4F38"/>
<path d="M8.901 36.2829L13.5711 44.3721C14.5788 46.1196 16.8457 46.7666 18.6385 45.7301C20.4124 44.705 21.0221 42.4384 19.9958 40.6631L17.2138 35.8439L19.6231 34.4528C20.0665 34.1963 20.2186 33.6294 19.9625 33.186L18.7566 31.0974C18.9004 31.0694 19.8458 30.884 36.5188 27.6133C38.58 27.5014 39.8149 25.2471 38.7738 23.4449L35.6918 18.1069L37.6614 15.1238C37.8548 14.8304 37.8664 14.4533 37.6907 14.1491L35.836 10.9366C35.6603 10.6324 35.3267 10.4542 34.9772 10.4748L31.4094 10.6889L27.988 4.7626C27.4925 3.90408 26.6046 3.38426 25.6135 3.37194C25.6015 3.37158 25.59 3.37158 25.578 3.37158C24.6202 3.37158 23.7508 3.84829 23.2358 4.65429L11.1216 20.0866L3.24605 24.6334C0.148504 26.4211 -0.92446 30.395 0.870094 33.5008C2.50961 36.3408 5.96614 37.458 8.901 36.2829ZM18.39 41.5908C18.9022 42.4769 18.599 43.6107 17.7104 44.124C16.819 44.6394 15.6837 44.3228 15.1773 43.4452L10.5406 35.4131L13.7529 33.5584C19.1192 42.8544 18.3038 41.4419 18.39 41.5908ZM16.2864 34.2373L15.3591 32.6311L16.9653 31.7038L17.8927 33.3099L16.2864 34.2373ZM34.5164 12.3603L35.798 14.5801L34.6551 16.3109L32.4462 12.4846L34.5164 12.3603ZM24.7869 5.6711C25.0357 5.26394 25.4306 5.22192 25.5907 5.22627C25.749 5.22808 26.1434 5.27734 26.3815 5.68958L37.1677 24.3723C37.519 24.9805 37.0919 25.7452 36.3873 25.7626C36.261 25.7655 36.2026 25.7883 35.8787 25.8488L24.4692 6.0866C24.7086 5.77869 24.7395 5.74898 24.7869 5.6711ZM23.2351 7.65873L33.9549 26.2262L17.7764 29.3995L12.8571 20.8792L23.2351 7.65873ZM2.47628 32.5735C2.06912 31.8689 1.85395 31.0691 1.85395 30.2598C1.85395 28.6058 2.7429 27.0656 4.1734 26.2397L11.4012 22.0666L16.038 30.0976L8.81015 34.2709C6.59572 35.5489 3.75464 34.7875 2.47628 32.5735Z" fill="#FF4F38"/>
<path d="M9.82929 30.4702C9.57313 30.0268 9.0059 29.8746 8.56252 30.1307L6.95631 31.0581C6.51365 31.3138 5.94529 31.1613 5.68955 30.7187C5.43344 30.2753 4.86616 30.1231 4.42278 30.3793C3.9794 30.6353 3.82725 31.2026 4.08336 31.646C4.8466 32.9682 6.54915 33.4344 7.88365 32.6642L9.48981 31.7369C9.93327 31.4808 10.0854 30.9139 9.82929 30.4702Z" fill="#FF4F38"/>
<path d="M46.1011 5.35511L40.9337 8.23064C40.4862 8.47983 40.325 9.04453 40.5743 9.49195C40.8228 9.93897 41.3872 10.1009 41.8356 9.85129L47.0026 6.97579C47.4504 6.72657 47.6112 6.16183 47.362 5.71446C47.1132 5.26673 46.5484 5.10589 46.1011 5.35511Z" fill="#FF4F38"/>
<path d="M45.5594 14.9596L41.9764 13.9996C41.4816 13.8671 40.973 14.1605 40.8404 14.6553C40.7079 15.1501 41.0016 15.6583 41.4964 15.791L45.0797 16.7508C45.5775 16.8846 46.0835 16.5864 46.2154 16.0952C46.348 15.6004 46.0542 15.0918 45.5594 14.9596Z" fill="#FF4F38"/>
<path d="M36.5553 1.98585L35.5943 5.56916C35.4618 6.06398 35.7551 6.57221 36.25 6.70515C36.7445 6.83737 37.2531 6.54468 37.386 6.0495L38.3467 2.46618C38.4792 1.97136 38.1858 1.46277 37.691 1.33019C37.1966 1.19761 36.688 1.49102 36.5553 1.98585Z" fill="#FF4F38"/>
</g>
<defs>
<clipPath id="clip0_618_15457">
<rect width="47.48" height="47.48" fill="white"/>
</clipPath>
</defs>
</svg>
