<svg width="41" height="40" viewBox="0 0 41 40" fill="none" xmlns="http://www.w3.org/2000/svg">
<path d="M40.2503 29.1667V30.4167C40.2503 30.7501 40.117 31.0667 39.8837 31.3001L31.5503 39.6334C31.317 39.8667 31.0003 40.0001 30.667 40.0001H29.417V30.4167C29.417 29.7334 29.9837 29.1667 30.667 29.1667H40.2503Z" fill="#FF4F38"/>
<path d="M35.6667 8.33325H23.1667V12.0833C23.1667 13.6916 21.8583 14.9999 20.25 14.9999C18.6417 14.9999 17.3333 13.6916 17.3333 12.0833V8.33325H4.83333C2.3 8.33325 0.25 10.3833 0.25 12.9166V35.4166C0.25 37.9499 2.3 39.9999 4.83333 39.9999H27.75V30.4166C27.75 28.8082 29.0583 27.4999 30.6667 27.4999H40.25V12.9166C40.25 10.3833 38.2 8.33325 35.6667 8.33325ZM23.5833 32.4999H8.16666C7.47666 32.4999 6.91666 31.9399 6.91666 31.2499C6.91666 30.5599 7.47666 29.9999 8.16666 29.9999H23.5833C24.2733 29.9999 24.8333 30.5599 24.8333 31.2499C24.8333 31.9399 24.2733 32.4999 23.5833 32.4999ZM32.3333 25.8332H8.16666C7.47666 25.8332 6.91666 25.2732 6.91666 24.5833C6.91666 23.8932 7.47666 23.3332 8.16666 23.3332H32.3333C33.0233 23.3332 33.5833 23.8932 33.5833 24.5833C33.5833 25.2732 33.0233 25.8332 32.3333 25.8332ZM32.3333 19.1666H8.16666C7.47666 19.1666 6.91666 18.6066 6.91666 17.9166C6.91666 17.2266 7.47666 16.6666 8.16666 16.6666H32.3333C33.0233 16.6666 33.5833 17.2266 33.5833 17.9166C33.5833 18.6066 33.0233 19.1666 32.3333 19.1666Z" fill="#FF4F38"/>
<path d="M20.25 13.3333C19.56 13.3333 19 12.7732 19 12.0833V5.83325C19 5.14325 19.56 4.58325 20.25 4.58325C20.94 4.58325 21.5 5.14325 21.5 5.83325V12.0833C21.5 12.7732 20.94 13.3333 20.25 13.3333Z" fill="#FF4F38"/>
<path d="M20.2503 6.66667C18.412 6.66667 16.917 5.17167 16.917 3.33333C16.917 1.495 18.412 0 20.2503 0C22.0887 0 23.5837 1.495 23.5837 3.33333C23.5837 5.17167 22.0887 6.66667 20.2503 6.66667Z" fill="#FF4F38"/>
</svg>
