<svg width="40" height="40" viewBox="0 0 40 40" fill="none" xmlns="http://www.w3.org/2000/svg">
<path d="M32.0486 13.8021C33.2257 15.9292 33.8971 18.3734 33.8971 20.9717C33.8971 29.1628 27.2332 35.8268 19.042 35.8268C10.8508 35.8268 4.18691 29.1628 4.18691 20.9717C4.18691 12.7807 10.8508 6.11668 19.042 6.11668C21.575 6.11668 23.9616 6.7546 26.0506 7.87719L29.1096 4.81815C26.1187 2.94616 22.6575 1.9436 19.0419 1.9436C13.9593 1.9436 9.18087 3.92286 5.5869 7.51683C1.99293 11.1108 0.0136719 15.8892 0.0136719 20.9718C0.0136719 26.0544 1.99293 30.8328 5.5869 34.4267C9.18095 38.0208 13.9593 40 19.0419 40C24.1245 40 28.9029 38.0208 32.4968 34.4267C36.0909 30.8328 38.0701 26.0544 38.0701 20.9718C38.0701 17.2946 37.0335 13.7769 35.0993 10.7514L32.0486 13.8021Z" fill="#FF4F38"/>
<path d="M20.4979 17.4553C19.1281 16.894 17.4892 17.1637 16.3782 18.2747C14.8961 19.7569 14.8961 22.1478 16.3782 23.6185C17.8598 25.1001 20.2507 25.1001 21.7212 23.6185C22.8329 22.5067 23.102 20.8679 22.5407 19.4988L33.3957 8.64383L35.2035 8.87944L39.9852 4.09713L36.3709 3.61486L35.888 0L31.1056 4.79327L31.3419 6.60044L20.4979 17.4553Z" fill="#FF4F38"/>
<path d="M26.12 19.7302C26.1906 20.1336 26.2276 20.5483 26.2276 20.9716C26.2276 24.934 23.0041 28.1576 19.0417 28.1576C15.0794 28.1576 11.8557 24.934 11.8557 20.9716C11.8557 17.0093 15.0793 13.7857 19.0417 13.7857C19.3901 13.7857 19.7327 13.8111 20.068 13.8593L23.4318 10.4955C22.0805 9.9271 20.5972 9.61255 19.0417 9.61255C12.7783 9.61255 7.68262 14.7082 7.68262 20.9716C7.68262 27.235 12.7783 32.3307 19.0417 32.3307C25.305 32.3307 30.4008 27.235 30.4008 20.9716C30.4008 19.3491 30.0581 17.8054 29.4425 16.4078L26.12 19.7302Z" fill="#FF4F38"/>
</svg>
