<svg width="37" height="48" viewBox="0 0 37 48" fill="none" xmlns="http://www.w3.org/2000/svg">
<g clip-path="url(#clip0_618_15484)">
<path d="M9.70703 45.7935H26.8887" stroke="#FF4F38" stroke-width="3" stroke-linecap="round" stroke-linejoin="round"/>
<path d="M7.71091 31.8334C5.66838 30.2378 4.01398 28.2002 2.87201 25.8734C1.73002 23.5467 1.13015 20.9914 1.11745 18.3996C1.0659 9.08709 8.57428 1.33601 17.8846 1.12125C21.4927 1.03385 25.0368 2.08492 28.0139 4.12533C30.991 6.16574 33.2501 9.09185 34.4704 12.4885C35.6907 15.8851 35.8105 19.5799 34.8125 23.0484C33.8146 26.5169 31.7498 29.5831 28.911 31.812C28.2847 32.2975 27.7774 32.9191 27.4272 33.6298C27.077 34.3407 26.8933 35.1218 26.8899 35.9141V37.2027C26.8899 37.6584 26.7089 38.0954 26.3867 38.4177C26.0645 38.7398 25.6274 38.9209 25.1718 38.9209H11.4265C10.9708 38.9209 10.5337 38.7398 10.2115 38.4177C9.8893 38.0954 9.70827 37.6584 9.70827 37.2027V35.9141C9.70745 35.1268 9.52713 34.3501 9.18103 33.643C8.83491 32.936 8.33213 32.317 7.71091 31.8334Z" stroke="#FF4F38" stroke-width="3" stroke-linecap="round" stroke-linejoin="round"/>
<path d="M20.0176 7.99414C24.313 8.71791 27.8804 12.2896 28.6085 16.5849" stroke="#FF4F38" stroke-width="3" stroke-linecap="round" stroke-linejoin="round"/>
</g>
<defs>
<clipPath id="clip0_618_15484">
<rect width="36.8372" height="48" fill="white"/>
</clipPath>
</defs>
</svg>
