<svg width="40" height="40" viewBox="0 0 40 40" fill="none" xmlns="http://www.w3.org/2000/svg">
<path d="M4.6875 17.6562C4.6875 17.0087 4.1632 16.4844 3.51562 16.4844H1.17187C0.524292 16.4844 0 17.0087 0 17.6562C0 18.3041 0.524292 18.8281 1.17187 18.8281H3.51562C4.1632 18.8281 4.6875 18.3041 4.6875 17.6562Z" fill="#13182B"/>
<path d="M38.8281 16.4844H36.4844C35.8368 16.4844 35.3125 17.0087 35.3125 17.6562C35.3125 18.3041 35.8368 18.8281 36.4844 18.8281H38.8281C39.4757 18.8281 40 18.3041 40 17.6562C40 17.0087 39.4757 16.4844 38.8281 16.4844Z" fill="#13182B"/>
<path d="M6.37839 8.43823L4.34806 7.26636C3.78745 6.94226 3.0709 7.13452 2.74711 7.69543C2.42332 8.25635 2.61558 8.97259 3.17619 9.29638L5.20652 10.4683C5.76347 10.7899 6.48093 10.6025 6.80747 10.0392C7.13126 9.47827 6.939 8.76202 6.37839 8.43823Z" fill="#13182B"/>
<path d="M36.8242 26.0163L34.7939 24.8444C34.232 24.5216 33.5158 24.7126 33.1929 25.2735C32.8691 25.8344 33.0614 26.5507 33.622 26.8745L35.6523 28.0463C36.2093 28.368 36.9267 28.1806 37.2533 27.6173C37.5771 27.0563 37.3848 26.3401 36.8242 26.0163Z" fill="#13182B"/>
<path d="M10.782 3.78788C11.1082 4.35123 11.826 4.53861 12.3829 4.21696C12.9438 3.89286 13.1361 3.17661 12.812 2.616L11.6401 0.585672C11.3163 0.0262854 10.5964 -0.16628 10.0392 0.156595C9.47827 0.480386 9.28601 1.19694 9.61011 1.75755L10.782 3.78788Z" fill="#13182B"/>
<path d="M5.20652 24.8444L3.17619 26.0163C2.61558 26.3401 2.42332 27.0563 2.74711 27.6173C3.07365 28.1809 3.79112 28.3683 4.34806 28.0463L6.37839 26.8745C6.939 26.5507 7.13126 25.8344 6.80747 25.2735C6.48246 24.7126 5.76255 24.5216 5.20652 24.8444Z" fill="#13182B"/>
<path d="M34.7939 10.4683L36.8242 9.29638C37.3848 8.97259 37.5771 8.25635 37.2533 7.69543C36.9283 7.13452 36.2084 6.94226 35.6523 7.26636L33.622 8.43823C33.0614 8.76202 32.8691 9.47827 33.1929 10.0392C33.5195 10.6028 34.2369 10.7902 34.7939 10.4683Z" fill="#13182B"/>
<path d="M27.6173 4.21682C28.1743 4.53847 28.892 4.3511 29.2183 3.78774L30.3901 1.75741C30.7142 1.1968 30.522 0.480251 29.9611 0.15646C29.4014 -0.166111 28.6839 0.0261497 28.3601 0.585536L27.1882 2.61587C26.8641 3.17648 27.0564 3.89303 27.6173 4.21682Z" fill="#13182B"/>
<path d="M28.1264 7.64956C25.0994 5.18801 21.133 4.24166 17.2384 5.05404C12.1792 6.10812 8.18746 10.2564 7.30611 15.3745C6.56789 19.6613 7.98146 23.9951 11.086 26.9696C12.7376 28.5498 13.7416 30.6644 14.0187 32.8906H18.828V27.3862L14.4014 20.7462L12.1401 18.4848C11.6823 18.027 11.6823 17.2855 12.1401 16.8277C12.5979 16.3699 13.3394 16.3699 13.7972 16.8277L15.3124 18.3429L16.8276 16.8277C17.2853 16.3699 18.0269 16.3699 18.4847 16.8277L19.9999 18.3429L21.5151 16.8277C21.9728 16.3699 22.7144 16.3699 23.1722 16.8277L24.6874 18.3429L26.2026 16.8277C26.6603 16.3699 27.4019 16.3699 27.8597 16.8277C28.3174 17.2855 28.3174 18.027 27.8597 18.4848L25.5983 20.7462L21.1718 27.3862V32.8906H25.9139C26.0506 30.7852 27.05 28.7231 28.8347 27.0438C31.4119 24.6167 32.8905 21.1948 32.8905 17.6563C32.8905 13.7583 31.1544 10.1111 28.1264 7.64956Z" fill="#13182B"/>
<path d="M22.3437 19.3135L20.8285 20.8287C20.3707 21.2864 19.6291 21.2864 19.1714 20.8287L17.6562 19.3135L16.8203 20.1494L19.9999 24.9189L23.1796 20.1494L22.3437 19.3135Z" fill="#13182B"/>
<path d="M14.1406 36.4844C14.1406 38.4228 15.7178 40 17.6562 40H22.3437C24.2822 40 25.8594 38.4228 25.8594 36.4844V35.2344H14.1406V36.4844Z" fill="#13182B"/>
</svg>
