<svg width="40" height="40" viewBox="0 0 40 40" fill="none" xmlns="http://www.w3.org/2000/svg">
<path d="M20 6.23434C21.7215 6.23434 23.1172 4.83874 23.1172 3.11717C23.1172 1.39561 21.7215 0 20 0C18.2784 0 16.8828 1.39561 16.8828 3.11717C16.8828 4.83874 18.2784 6.23434 20 6.23434Z" fill="#FF4F38"/>
<path d="M24.6457 9.23578V14.7396C24.6458 15.0787 24.5182 15.4053 24.2883 15.6545L23.5235 16.4551V23.8317C23.5268 24.1867 23.3897 24.5287 23.142 24.783C22.8943 25.0374 22.5561 25.1836 22.2011 25.1898H17.7981C17.4431 25.1836 17.1049 25.0374 16.8572 24.783C16.6095 24.5287 16.4724 24.1867 16.4757 23.8317V16.4551L15.7109 15.6545C15.481 15.4053 15.3534 15.0787 15.3535 14.7396V9.23578C15.3545 8.94607 15.4128 8.65941 15.5251 8.39234C15.6754 8.02967 15.929 7.71914 16.2543 7.49931C16.5796 7.27948 16.9623 7.16002 17.3549 7.15576H22.6443C23.0369 7.16002 23.4196 7.27948 23.7449 7.49931C24.0702 7.71914 24.3238 8.02967 24.4742 8.39234C24.5864 8.65941 24.6448 8.94607 24.6457 9.23578Z" fill="#FF4F38"/>
<path d="M26.4333 7.6087C27.927 7.6087 29.138 6.39775 29.138 4.90396C29.138 3.41017 27.927 2.19922 26.4333 2.19922C24.9395 2.19922 23.7285 3.41017 23.7285 4.90396C23.7285 6.39775 24.9395 7.6087 26.4333 7.6087Z" fill="#FF4F38"/>
<path d="M13.567 7.6087C15.0608 7.6087 16.2718 6.39775 16.2718 4.90396C16.2718 3.41017 15.0608 2.19922 13.567 2.19922C12.0733 2.19922 10.8623 3.41017 10.8623 4.90396C10.8623 6.39775 12.0733 7.6087 13.567 7.6087Z" fill="#FF4F38"/>
<path d="M30.4069 10.2362V14.7965C30.4076 15.1083 30.2871 15.4082 30.071 15.6328L29.4706 16.269V22.3232C29.4731 22.4852 29.4437 22.6461 29.384 22.7967C29.3243 22.9473 29.2355 23.0846 29.1226 23.2008C29.0097 23.317 28.875 23.4098 28.7262 23.4739C28.5774 23.5379 28.4174 23.572 28.2554 23.5741H24.9531V17.0267L25.3248 16.6335C25.8111 16.1233 26.0802 15.4442 26.0753 14.7394V9.23554C26.0763 8.95093 26.0402 8.66741 25.9681 8.39209H28.62C29.1012 8.40046 29.5595 8.59926 29.8945 8.94493C30.2294 9.2906 30.4137 9.75495 30.4069 10.2362Z" fill="#FF4F38"/>
<path d="M14.6751 16.6335L15.0468 17.0267V23.5741H11.7445C11.5825 23.572 11.4225 23.5379 11.2737 23.4739C11.1249 23.4098 10.9902 23.317 10.8773 23.2008C10.7644 23.0846 10.6756 22.9473 10.6158 22.7967C10.5561 22.6461 10.5267 22.4852 10.5293 22.3232V16.269L9.9289 15.6328C9.71277 15.4082 9.59232 15.1083 9.59295 14.7965V10.2362C9.58617 9.75495 9.77044 9.2906 10.1054 8.94493C10.4403 8.59926 10.8987 8.40046 11.3799 8.39209H14.0318C13.9596 8.66741 13.9236 8.95093 13.9245 9.23553V14.7394C13.921 15.4439 14.1899 16.1226 14.6751 16.6335Z" fill="#FF4F38"/>
<path d="M17.2697 34.9966H8.3349C7.94014 34.9966 7.62012 35.3166 7.62012 35.7114V39.2853C7.62012 39.68 7.94014 40.0001 8.3349 40.0001H17.2697C17.6645 40.0001 17.9845 39.68 17.9845 39.2853V35.7114C17.9845 35.3166 17.6645 34.9966 17.2697 34.9966Z" fill="#FF4F38"/>
<path d="M17.0193 33.5669H8.33468C8.25605 33.5669 8.17743 33.5741 8.0988 33.5812C7.52697 32.9451 6.06881 31.5941 1.85159 27.4841C1.35406 26.992 1.03465 26.3481 0.943816 25.6543C0.343465 21.0168 0.471285 16.314 1.32265 11.716C1.33874 11.631 1.37441 11.5508 1.42683 11.482C1.47925 11.4131 1.54698 11.3574 1.62465 11.3193C1.70233 11.2811 1.78782 11.2616 1.87435 11.2622C1.96089 11.2628 2.04609 11.2836 2.12321 11.3228C3.25754 11.8547 4.15317 12.7899 4.6355 13.9462C5.11783 15.1025 5.15229 16.3969 4.73217 17.5772C4.57796 18.0342 4.59318 18.5314 4.77506 18.9782C4.84262 19.3167 4.93825 19.6491 5.06097 19.9717C3.50989 20.3077 3.05958 22.3948 4.28186 23.7744L7.84148 27.7915C7.96687 27.9326 8.14308 28.0184 8.33155 28.03C8.52002 28.0416 8.70541 27.9781 8.84717 27.8533C8.98892 27.7286 9.0755 27.5528 9.08796 27.3644C9.10042 27.176 9.03775 26.9903 8.91365 26.8479L5.34688 22.8237C4.40337 21.7587 5.6328 20.1361 7.2768 21.7658C8.27035 22.7451 9.30678 23.6815 10.3218 24.6393C10.7721 25.0896 11.444 24.9824 12.1016 25.111C13.2794 25.3305 14.3633 25.9011 15.2109 26.7479C17.1765 28.6992 17.055 30.9508 17.0193 33.5669Z" fill="#FF4F38"/>
<path d="M31.6652 34.9966H22.7304C22.3356 34.9966 22.0156 35.3166 22.0156 35.7114V39.2853C22.0156 39.68 22.3356 40.0001 22.7304 40.0001H31.6652C32.06 40.0001 32.38 39.68 32.38 39.2853V35.7114C32.38 35.3166 32.06 34.9966 31.6652 34.9966Z" fill="#FF4F38"/>
<path d="M39.0563 25.6543C38.9655 26.3481 38.6461 26.992 38.1485 27.4841C33.9313 31.5941 32.4731 32.9451 31.9085 33.5812H31.9013C31.8227 33.5741 31.7441 33.5669 31.6654 33.5669H22.9808C22.9451 30.9508 22.8236 28.6992 24.7892 26.7479C25.6368 25.9011 26.7207 25.3305 27.8985 25.111C28.5347 24.9895 29.2352 25.0824 29.6783 24.6393C30.6933 23.6815 31.7298 22.7451 32.7233 21.7658C34.3673 20.1361 35.5968 21.7587 34.6532 22.8237L31.0865 26.8479C30.9624 26.9903 30.8997 27.176 30.9122 27.3644C30.9246 27.5528 31.0112 27.7286 31.153 27.8533C31.2947 27.9781 31.4801 28.0416 31.6686 28.03C31.857 28.0184 32.0332 27.9326 32.1586 27.7915L35.7183 23.7744C36.9405 22.3948 36.4902 20.3077 34.9392 19.9717C35.0619 19.6491 35.1575 19.3167 35.2251 18.9782C35.4069 18.5314 35.4222 18.0342 35.268 17.5772C34.8478 16.3969 34.8823 15.1025 35.3646 13.9462C35.8469 12.7899 36.7426 11.8547 37.8769 11.3228C37.954 11.2836 38.0392 11.2628 38.1258 11.2622C38.2123 11.2616 38.2978 11.2811 38.3755 11.3193C38.4531 11.3574 38.5209 11.4131 38.5733 11.482C38.6257 11.5508 38.6614 11.631 38.6775 11.716C39.5288 16.314 39.6567 21.0168 39.0563 25.6543Z" fill="#FF4F38"/>
</svg>
