<svg width="40" height="40" viewBox="0 0 40 40" fill="none" xmlns="http://www.w3.org/2000/svg">
<path d="M7.03125 14.2188C4.44602 14.2188 2.34375 12.1165 2.34375 9.53125C2.34375 6.94602 4.44602 4.84375 7.03125 4.84375C9.61648 4.84375 11.7188 6.94602 11.7188 9.53125C11.7188 12.1165 9.61648 14.2188 7.03125 14.2188Z" fill="#13182B"/>
<path d="M32.9688 14.2188C30.3835 14.2188 28.2812 12.1165 28.2812 9.53125C28.2812 6.94602 30.3835 4.84375 32.9688 4.84375C35.554 4.84375 37.6562 6.94602 37.6562 9.53125C37.6562 12.1165 35.554 14.2188 32.9688 14.2188Z" fill="#13182B"/>
<path d="M20 11.7188C16.7693 11.7188 14.1406 9.09008 14.1406 5.85938C14.1406 2.62867 16.7693 0 20 0C23.2307 0 25.8594 2.62867 25.8594 5.85938C25.8594 9.09008 23.2307 11.7188 20 11.7188Z" fill="#13182B"/>
<path d="M21.1719 11.8372V19.9218C21.1719 20.5696 20.6477 21.0937 20 21.0937C19.3523 21.0937 18.8281 20.5696 18.8281 19.9218V11.8372C14.8633 12.4119 11.7969 15.8004 11.7969 19.9218V26.9531C11.7969 27.6008 12.321 28.125 12.9688 28.125H15.5941L16.489 38.9265C16.5393 39.533 17.0474 40 17.6562 40H22.3438C22.9526 40 23.4607 39.533 23.511 38.9265L24.4059 28.125H27.0312C27.679 28.125 28.2031 27.6008 28.2031 26.9531V19.9218C28.2031 15.8004 25.1367 12.4119 21.1719 11.8372Z" fill="#13182B"/>
<path d="M9.375 27.1094V20.0781C9.375 18.3216 9.84766 16.6892 10.6102 15.2311C9.55797 14.603 8.34328 14.2188 7.03125 14.2188C3.15398 14.2188 0 17.3727 0 21.25V27.1094C0 27.7571 0.524141 28.2812 1.17188 28.2812H2.45477L3.52133 38.9448C3.58086 39.5434 4.08555 40 4.6875 40H9.375C9.97695 40 10.4816 39.5434 10.5412 38.9448L11.4073 30.2852C10.2109 29.7238 9.375 28.5162 9.375 27.1094Z" fill="#13182B"/>
<path d="M40.0001 21.25C40.0001 17.3727 36.8461 14.2188 32.9689 14.2188C31.6568 14.2188 30.4421 14.603 29.3899 15.2311C30.1525 16.6892 30.6251 18.3216 30.6251 20.0781V27.1094C30.6251 28.5162 29.7893 29.7238 28.5928 30.2852L29.4589 38.9448C29.5185 39.5434 30.0232 40 30.6251 40H35.3126C35.9146 40 36.4193 39.5434 36.4788 38.9448L37.5454 28.2812H38.8282C39.476 28.2812 40.0001 27.7571 40.0001 27.1094V21.25Z" fill="#13182B"/>
</svg>
