<svg width="30" height="40" viewBox="0 0 30 40" fill="none" xmlns="http://www.w3.org/2000/svg">
<path fill-rule="evenodd" clip-rule="evenodd" d="M28.7445 40H7.63139V12.068H12.5757C12.7866 12.068 12.9507 11.8805 12.9507 11.693V3.7727C12.9507 3.5618 12.7866 3.39777 12.5757 3.39777H7.63139V0H28.7445C29.1194 0 29.4474 0.304628 29.4474 0.679555V39.297C29.4474 39.6954 29.1194 40 28.7445 40ZM12.2008 4.14763V11.3181C9.81066 11.3181 7.4205 11.3181 5.05377 11.3181V4.14763H12.2008ZM13.349 36.6022C13.5599 36.6022 13.724 36.4382 13.724 36.2273C13.724 36.0164 13.5599 35.8524 13.349 35.8524H10.2793C10.0684 35.8524 9.90439 36.0164 9.90439 36.2273C9.90439 36.4382 10.0684 36.6022 10.2793 36.6022H13.349ZM13.349 33.9074C13.5599 33.9074 13.724 33.7434 13.724 33.5325C13.724 33.3216 13.5599 33.1576 13.349 33.1576H10.2793C10.0684 33.1576 9.90439 33.3216 9.90439 33.5325C9.90439 33.7434 10.0684 33.9074 10.2793 33.9074H13.349ZM13.349 31.2127C13.5599 31.2127 13.724 31.0486 13.724 30.8377C13.724 30.6503 13.5599 30.4628 13.349 30.4628H10.2793C10.0684 30.4628 9.90439 30.6503 9.90439 30.8377C9.90439 31.0486 10.0684 31.2127 10.2793 31.2127H13.349ZM19.5353 27.932C19.7462 27.932 19.9102 27.768 19.9102 27.5571C19.9102 27.3462 19.7462 27.1822 19.5353 27.1822H10.2793C10.0684 27.1822 9.90439 27.3462 9.90439 27.5571C9.90439 27.768 10.0684 27.932 10.2793 27.932H19.5353ZM25.0186 36.6022C25.2295 36.6022 25.3936 36.4382 25.3936 36.2273C25.3936 36.0164 25.2295 35.8524 25.0186 35.8524H16.2781C16.0672 35.8524 15.9032 36.0164 15.9032 36.2273C15.9032 36.4382 16.0672 36.6022 16.2781 36.6022H25.0186ZM25.0186 33.9074C25.2295 33.9074 25.3936 33.7434 25.3936 33.5325C25.3936 33.3216 25.2295 33.1576 25.0186 33.1576H16.2781C16.0672 33.1576 15.9032 33.3216 15.9032 33.5325C15.9032 33.7434 16.0672 33.9074 16.2781 33.9074H25.0186ZM25.0186 31.2127C25.2295 31.2127 25.3936 31.0486 25.3936 30.8377C25.3936 30.6503 25.2295 30.4628 25.0186 30.4628H16.2781C16.0672 30.4628 15.9032 30.6503 15.9032 30.8377C15.9032 31.0486 16.0672 31.2127 16.2781 31.2127H25.0186ZM17.6607 23.1049C17.8482 23.1049 18.0356 22.9408 18.0356 22.7299C18.0356 22.5425 17.8482 22.355 17.6607 22.355H10.2793C10.0684 22.355 9.90439 22.5425 9.90439 22.7299C9.90439 22.9408 10.0684 23.1049 10.2793 23.1049H17.6607ZM25.0186 20.4335C25.2295 20.4335 25.3936 20.2695 25.3936 20.0586C25.3936 19.8477 25.2295 19.6837 25.0186 19.6837H10.2793C10.0684 19.6837 9.90439 19.8477 9.90439 20.0586C9.90439 20.2695 10.0684 20.4335 10.2793 20.4335H25.0186ZM25.0186 17.7387C25.2295 17.7387 25.3936 17.5747 25.3936 17.3638C25.3936 17.1529 25.2295 16.9889 25.0186 16.9889H10.2793C10.0684 16.9889 9.90439 17.1529 9.90439 17.3638C9.90439 17.5747 10.0684 17.7387 10.2793 17.7387H25.0186ZM22.277 15.0439C22.4879 15.0439 22.6519 14.8799 22.6519 14.669C22.6519 14.4581 22.4879 14.2941 22.277 14.2941H13.021C12.8101 14.2941 12.646 14.4581 12.646 14.669C12.646 14.8799 12.8101 15.0439 13.021 15.0439H22.277ZM6.88154 40H1.04674C0.671816 40 0.367188 39.6954 0.367188 39.297V0.679555C0.367188 0.304628 0.671816 0 1.04674 0H6.88154V3.39777H4.67885C4.46795 3.39777 4.30392 3.5618 4.30392 3.7727V11.693C4.30392 11.8805 4.46795 12.068 4.67885 12.068H6.88154V40Z" fill="#FF4F38"/>
</svg>
