<svg width="36" height="40" viewBox="0 0 36 40" fill="none" xmlns="http://www.w3.org/2000/svg">
<path fill-rule="evenodd" clip-rule="evenodd" d="M9.46486 23.9754H6.43204C6.20634 23.9754 6.0222 23.7914 6.0222 23.5656V20.5328C6.0222 20.3071 6.20626 20.1229 6.43204 20.1229H9.46486C9.69057 20.1229 9.87463 20.307 9.87463 20.5328V23.5656C9.87471 23.7914 9.69057 23.9754 9.46486 23.9754ZM9.04572 6.39345H20.9086C21.1179 6.39345 21.2886 6.22267 21.2886 6.01337V2.51118C21.2886 2.30188 21.1179 2.1311 20.9086 2.1311H17.6862C17.3914 0.908361 16.2904 0 14.9772 0C13.6639 0 12.563 0.908361 12.2681 2.1311H9.0458C8.83642 2.1311 8.66572 2.30188 8.66572 2.51118V6.01337C8.66564 6.22267 8.83642 6.39345 9.04572 6.39345ZM29.2395 27.9098C25.9009 27.9098 23.1944 30.6163 23.1944 33.9549C23.1944 37.2935 25.9009 40 29.2395 40C32.5781 40 35.2846 37.2935 35.2846 33.9549C35.2846 30.6163 32.5781 27.9098 29.2395 27.9098ZM25.3008 33.263C25.5568 33.007 25.9721 33.007 26.2281 33.263L28.2472 35.2822L32.2509 31.2385C32.5055 30.9825 32.9196 30.9813 33.1756 31.2359C33.4316 31.4905 33.4328 31.9046 33.1782 32.1606L28.7472 36.6358C28.7361 36.6489 28.7243 36.6617 28.7119 36.6741C28.4558 36.9301 28.0407 36.9301 27.7846 36.6741L25.3008 34.1903C25.0447 33.9342 25.0447 33.5191 25.3008 33.263ZM20.9086 7.6097H9.04572C8.16509 7.6097 7.44939 6.894 7.44939 6.01337V4.26227H2.35414C1.45125 4.26227 0.714844 4.99868 0.714844 5.90157V36.0657C0.714844 36.9686 1.45125 37.7051 2.35414 37.7051H22.9097C22.2577 36.6069 21.8829 35.3248 21.8829 33.955C21.8829 29.8921 25.1765 26.5984 29.2394 26.5984V5.90157C29.2394 4.99868 28.503 4.26227 27.6001 4.26227H22.5049V6.01337C22.505 6.894 21.7892 7.6097 20.9086 7.6097ZM6.0222 32.3361V29.3033C6.0222 29.0776 6.20626 28.8934 6.43204 28.8934H9.46486C9.69057 28.8934 9.87463 29.0775 9.87463 29.3033V32.3361C9.87463 32.5618 9.69057 32.7459 9.46486 32.7459H6.43204C6.20634 32.7459 6.0222 32.5619 6.0222 32.3361ZM14.137 30.2049C13.7749 30.2049 13.4813 29.9113 13.4813 29.5492C13.4813 29.1871 13.7749 28.8935 14.137 28.8935H19.8377C20.1998 28.8935 20.4934 29.1871 20.4934 29.5492C20.4934 29.9113 20.1998 30.2049 19.8377 30.2049H14.137ZM9.46486 15.2049H6.43204C6.20634 15.2049 6.0222 15.0208 6.0222 14.7951V11.7623C6.0222 11.5366 6.20626 11.3525 6.43204 11.3525H9.46486C9.69057 11.3525 9.87463 11.5366 9.87463 11.7623V14.7951C9.87471 15.0208 9.69057 15.2049 9.46486 15.2049ZM14.137 23.9754C13.7749 23.9754 13.4813 23.6818 13.4813 23.3197C13.4813 22.9576 13.7749 22.664 14.137 22.664H23.9321C24.2942 22.664 24.5878 22.9576 24.5878 23.3197C24.5878 23.6818 24.2942 23.9754 23.9321 23.9754H14.137ZM14.137 21.4344C13.7749 21.4344 13.4813 21.1408 13.4813 20.7787C13.4813 20.4166 13.7749 20.123 14.137 20.123H23.9321C24.2942 20.123 24.5878 20.4166 24.5878 20.7787C24.5878 21.1408 24.2942 21.4344 23.9321 21.4344H14.137ZM14.137 15.2049C13.7749 15.2049 13.4813 14.9113 13.4813 14.5492C13.4813 14.1871 13.7749 13.8935 14.137 13.8935H23.9321C24.2942 13.8935 24.5878 14.1871 24.5878 14.5492C24.5878 14.9113 24.2942 15.2049 23.9321 15.2049H14.137ZM14.137 12.6639C13.7749 12.6639 13.4813 12.3703 13.4813 12.0082C13.4813 11.6461 13.7749 11.3525 14.137 11.3525H23.9321C24.2942 11.3525 24.5878 11.6461 24.5878 12.0082C24.5878 12.3703 24.2942 12.6639 23.9321 12.6639H14.137ZM14.137 32.7459C13.7749 32.7459 13.4813 32.4523 13.4813 32.0902C13.4813 31.728 13.7749 31.4345 14.137 31.4345H19.8377C20.1998 31.4345 20.4934 31.7281 20.4934 32.0902C20.4934 32.4523 20.1998 32.7459 19.8377 32.7459H14.137Z" fill="#FF4F38"/>
</svg>
