<svg width="40" height="40" viewBox="0 0 40 40" fill="none" xmlns="http://www.w3.org/2000/svg">
<path d="M4.6875 17.6562C4.6875 17.0087 4.1632 16.4844 3.51562 16.4844H1.17187C0.524292 16.4844 0 17.0087 0 17.6562C0 18.3041 0.524292 18.8281 1.17187 18.8281H3.51562C4.1632 18.8281 4.6875 18.3041 4.6875 17.6562Z" fill="#FF4F38"/>
<path d="M38.8281 16.4844H36.4844C35.8368 16.4844 35.3125 17.0087 35.3125 17.6562C35.3125 18.3041 35.8368 18.8281 36.4844 18.8281H38.8281C39.4757 18.8281 40 18.3041 40 17.6562C40 17.0087 39.4757 16.4844 38.8281 16.4844Z" fill="#FF4F38"/>
<path d="M6.37839 8.43811L4.34806 7.26623C3.78745 6.94214 3.0709 7.1344 2.74711 7.69531C2.42332 8.25622 2.61558 8.97247 3.17619 9.29626L5.20652 10.4681C5.76347 10.7898 6.48093 10.6024 6.80747 10.0391C7.13126 9.47815 6.939 8.7619 6.37839 8.43811Z" fill="#FF4F38"/>
<path d="M36.8237 26.0162L34.7934 24.8443C34.2315 24.5214 33.5153 24.7125 33.1924 25.2734C32.8686 25.8343 33.0609 26.5505 33.6215 26.8743L35.6518 28.0462C36.2088 28.3679 36.9262 28.1805 37.2528 27.6171C37.5766 27.0562 37.3843 26.34 36.8237 26.0162Z" fill="#FF4F38"/>
<path d="M10.7815 3.78788C11.1077 4.35123 11.8255 4.53861 12.3824 4.21696C12.9434 3.89286 13.1356 3.17661 12.8115 2.616L11.6396 0.585672C11.3159 0.0262854 10.5959 -0.16628 10.0387 0.156595C9.47778 0.480386 9.28552 1.19694 9.60962 1.75755L10.7815 3.78788Z" fill="#FF4F38"/>
<path d="M5.20652 24.8443L3.17619 26.0162C2.61558 26.34 2.42332 27.0562 2.74711 27.6171C3.07365 28.1808 3.79112 28.3682 4.34806 28.0462L6.37839 26.8743C6.939 26.5505 7.13126 25.8343 6.80747 25.2734C6.48246 24.7125 5.76255 24.5214 5.20652 24.8443Z" fill="#FF4F38"/>
<path d="M34.7934 10.4681L36.8237 9.29626C37.3843 8.97247 37.5766 8.25622 37.2528 7.69531C36.9278 7.1344 36.2079 6.94214 35.6518 7.26623L33.6215 8.43811C33.0609 8.7619 32.8686 9.47815 33.1924 10.0391C33.519 10.6027 34.2364 10.7901 34.7934 10.4681Z" fill="#FF4F38"/>
<path d="M27.6168 4.21694C28.1738 4.5386 28.8915 4.35122 29.2178 3.78786L30.3896 1.75753C30.7137 1.19692 30.5215 0.480373 29.9606 0.156582C29.4009 -0.165989 28.6834 0.0262718 28.3596 0.585658L27.1877 2.61599C26.8636 3.1766 27.0559 3.89315 27.6168 4.21694Z" fill="#FF4F38"/>
<path d="M28.1269 7.64956C25.0999 5.18801 21.1335 4.24166 17.2388 5.05404C12.1796 6.10812 8.18794 10.2564 7.3066 15.3745C6.56838 19.6613 7.98195 23.9951 11.0865 26.9696C12.7381 28.5498 13.7421 30.6644 14.0192 32.8906H18.8285V27.3862L14.4019 20.7462L12.1406 18.4848C11.6828 18.027 11.6828 17.2855 12.1406 16.8277C12.5983 16.3699 13.3399 16.3699 13.7977 16.8277L15.3129 18.3429L16.8281 16.8277C17.2858 16.3699 18.0274 16.3699 18.4852 16.8277L20.0004 18.3429L21.5156 16.8277C21.9733 16.3699 22.7149 16.3699 23.1727 16.8277L24.6879 18.3429L26.2031 16.8277C26.6608 16.3699 27.4024 16.3699 27.8602 16.8277C28.3179 17.2855 28.3179 18.027 27.8602 18.4848L25.5988 20.7462L21.1722 27.3862V32.8906H25.9144C26.0511 30.7852 27.0505 28.7231 28.8352 27.0438C31.4124 24.6167 32.891 21.1948 32.891 17.6563C32.891 13.7583 31.1548 10.1111 28.1269 7.64956Z" fill="#FF4F38"/>
<path d="M22.3437 19.3134L20.8285 20.8286C20.3707 21.2863 19.6291 21.2863 19.1714 20.8286L17.6562 19.3134L16.8203 20.1492L19.9999 24.9188L23.1796 20.1492L22.3437 19.3134Z" fill="#FF4F38"/>
<path d="M14.1406 36.4844C14.1406 38.4228 15.7178 40 17.6562 40H22.3437C24.2822 40 25.8594 38.4228 25.8594 36.4844V35.2344H14.1406V36.4844Z" fill="#FF4F38"/>
</svg>
