<svg width="40" height="40" viewBox="0 0 40 40" fill="none" xmlns="http://www.w3.org/2000/svg">
<path d="M32.0491 13.8021C33.2262 15.9292 33.8976 18.3734 33.8976 20.9717C33.8976 29.1628 27.2336 35.8268 19.0425 35.8268C10.8513 35.8268 4.1874 29.1628 4.1874 20.9717C4.1874 12.7807 10.8513 6.11668 19.0425 6.11668C21.5755 6.11668 23.9621 6.7546 26.051 7.87719L29.1101 4.81815C26.1192 2.94616 22.658 1.9436 19.0424 1.9436C13.9598 1.9436 9.18136 3.92286 5.58739 7.51683C1.99342 11.1108 0.0141602 15.8892 0.0141602 20.9718C0.0141602 26.0544 1.99342 30.8328 5.58739 34.4267C9.18144 38.0208 13.9598 40 19.0424 40C24.1249 40 28.9034 38.0208 32.4973 34.4267C36.0913 30.8328 38.0706 26.0544 38.0706 20.9718C38.0706 17.2946 37.034 13.7769 35.0998 10.7514L32.0491 13.8021Z" fill="#13182B"/>
<path d="M20.4989 17.4553C19.1291 16.894 17.4902 17.1637 16.3792 18.2747C14.897 19.7569 14.897 22.1478 16.3792 23.6185C17.8608 25.1001 20.2517 25.1001 21.7222 23.6185C22.8338 22.5067 23.1029 20.8679 22.5416 19.4988L33.3967 8.64383L35.2044 8.87944L39.9861 4.09713L36.3719 3.61486L35.8889 0L31.1066 4.79327L31.3428 6.60044L20.4989 17.4553Z" fill="#13182B"/>
<path d="M26.121 19.7302C26.1915 20.1336 26.2286 20.5483 26.2286 20.9716C26.2286 24.934 23.0051 28.1576 19.0426 28.1576C15.0803 28.1576 11.8567 24.934 11.8567 20.9716C11.8567 17.0093 15.0803 13.7857 19.0426 13.7857C19.3911 13.7857 19.7336 13.8111 20.069 13.8593L23.4327 10.4955C22.0815 9.9271 20.5982 9.61255 19.0426 9.61255C12.7793 9.61255 7.68359 14.7082 7.68359 20.9716C7.68359 27.235 12.7793 32.3307 19.0426 32.3307C25.306 32.3307 30.4018 27.235 30.4018 20.9716C30.4018 19.3491 30.059 17.8054 29.4435 16.4078L26.121 19.7302Z" fill="#13182B"/>
</svg>
