<svg width="44" height="40" viewBox="0 0 44 40" fill="none" xmlns="http://www.w3.org/2000/svg">
<path fill-rule="evenodd" clip-rule="evenodd" d="M42.4438 38.681H39.5053V15.5538C39.5053 15.3789 39.4359 15.2112 39.3122 15.0875C39.1885 14.9638 39.0208 14.8944 38.8459 14.8944H32.7173C32.5424 14.8944 32.3747 14.9638 32.251 15.0875C32.1273 15.2112 32.0578 15.3789 32.0578 15.5538V38.681H30.3176V20.677C30.3176 20.5021 30.2481 20.3344 30.1245 20.2107C30.0008 20.087 29.833 20.0175 29.6581 20.0175H23.5294C23.3545 20.0175 23.1868 20.087 23.0631 20.2107C22.9394 20.3344 22.8699 20.5021 22.8699 20.677V38.6809H21.1297V25.7994C21.1297 25.6245 21.0602 25.4567 20.9366 25.3331C20.8129 25.2094 20.6451 25.1399 20.4702 25.1399H14.3417C14.1668 25.1399 13.999 25.2094 13.8753 25.3331C13.7517 25.4567 13.6822 25.6245 13.6822 25.7994V38.681H11.942V30.9222C11.942 30.7473 11.8725 30.5796 11.7488 30.4559C11.6251 30.3322 11.4574 30.2628 11.2825 30.2628H5.15402C4.97911 30.2628 4.81137 30.3322 4.68769 30.4559C4.56402 30.5796 4.49453 30.7473 4.49453 30.9222V38.681H1.55597C1.38106 38.681 1.21332 38.7505 1.08964 38.8742C0.965965 38.9979 0.896484 39.1656 0.896484 39.3405C0.896484 39.5154 0.965965 39.6832 1.08964 39.8068C1.21332 39.9305 1.38106 40 1.55597 40H42.4438C42.6187 40 42.7865 39.9305 42.9102 39.8068C43.0338 39.6832 43.1033 39.5154 43.1033 39.3405C43.1033 39.1656 43.0338 38.9979 42.9102 38.8742C42.7865 38.7505 42.6187 38.681 42.4438 38.681ZM7.20723 23.9924C7.04123 23.9919 6.88152 23.9289 6.75997 23.8158C6.63841 23.7028 6.56396 23.5481 6.55148 23.3825C6.53899 23.217 6.58938 23.0529 6.6926 22.9229C6.79581 22.7929 6.94426 22.7066 7.10831 22.6812C15.9764 21.3303 24.1341 15.3244 29.5665 6.17032L26.4175 3.78473C26.3193 3.71037 26.244 3.61001 26.1999 3.49501C26.1558 3.38001 26.1448 3.25497 26.1682 3.13404C26.1915 3.01312 26.2482 2.90115 26.3319 2.81081C26.4156 2.72047 26.5229 2.65537 26.6417 2.62288L36.1665 0.0232893C36.2639 -0.00331269 36.3661 -0.0071833 36.4653 0.0119759C36.5644 0.0311352 36.6579 0.0728123 36.7384 0.133794C36.8189 0.194775 36.8843 0.273431 36.9296 0.363696C36.9749 0.453961 36.9989 0.553423 36.9996 0.654413L37.0761 10.5271C37.077 10.6503 37.0435 10.7712 36.9792 10.8763C36.9149 10.9814 36.8225 11.0664 36.7124 11.1216C36.6023 11.1769 36.479 11.2002 36.3563 11.1889C36.2337 11.1777 36.1166 11.1323 36.0184 11.0579L33.6905 9.29445C30.5602 13.3487 26.6905 16.7736 22.2859 19.388C17.4074 22.2686 12.1994 23.861 7.22495 23.9924H7.20723Z" fill="#FF4F38"/>
</svg>
