<svg width="40" height="40" viewBox="0 0 40 40" fill="none" xmlns="http://www.w3.org/2000/svg">
<path d="M9.79493 15.5723C10.5591 15.5723 11.181 14.9473 11.181 14.1785C11.181 13.4101 10.5591 12.7842 9.79493 12.7842C9.03015 12.7842 8.4082 13.4101 8.4082 14.1785C8.4082 14.9473 9.03015 15.5723 9.79493 15.5723Z" fill="#FF4F38"/>
<path d="M2.07422 29.5606C2.07422 31.3166 3.49512 32.7454 5.24134 32.7454H17.7786L14.2682 38.1782C13.9154 38.7242 14.0692 39.4544 14.6118 39.8094C14.8092 39.9385 15.0305 39.9998 15.2493 39.9998C15.6329 39.9998 16.0086 39.8109 16.2332 39.4633L18.7662 35.543V38.7831C18.7662 39.4343 19.2908 39.962 19.938 39.962C20.5853 39.962 21.1099 39.4343 21.1099 38.7831V35.543L23.6429 39.4633C23.9957 40.0093 24.7217 40.1643 25.2643 39.8094C25.8069 39.4544 25.9607 38.7242 25.6079 38.1782L22.0975 32.7454H34.6344C36.3813 32.7454 37.8016 31.3163 37.8016 29.5606V6.65161H2.07422V29.5606ZM34.2163 24.195C34.6741 24.6555 34.6741 25.4023 34.2163 25.8619L33.1726 26.912L34.2163 27.9621C34.6741 28.4226 34.6741 29.1685 34.2163 29.629C33.9884 29.8594 33.6884 29.9747 33.3884 29.9747C33.0884 29.9747 32.7884 29.8594 32.5595 29.6299L31.5149 28.5789L30.4703 29.6299C30.2423 29.8594 29.9423 29.9747 29.6424 29.9747C29.3421 29.9747 29.0421 29.8594 28.8132 29.629C28.3554 29.1685 28.3563 28.4226 28.8132 27.9621L29.8578 26.912L28.8132 25.8619C28.3563 25.4023 28.3554 24.6555 28.8132 24.195C29.2713 23.7345 30.0134 23.7345 30.4703 24.195L31.5149 25.2451L32.5595 24.195C33.0173 23.7342 33.7595 23.7342 34.2163 24.195ZM16.2601 18.2624C16.9937 17.6456 18.0859 17.7051 18.7475 18.4L22.7374 22.5867L27.7344 16.3904C27.1314 16.3925 26.6181 15.9281 26.565 15.3134C26.5094 14.6649 26.9867 14.0927 27.6312 14.0372L30.015 13.8288C30.4047 13.7943 30.7978 13.9224 31.0929 14.18C31.3883 14.4379 31.5705 14.8105 31.593 15.2036L31.7163 17.4121C31.7533 18.0622 31.2586 18.6194 30.6125 18.6554C30.5899 18.657 30.568 18.6579 30.5454 18.6579C30.0766 18.6579 29.6665 18.378 29.4806 17.9685L24.2188 24.4929C23.8992 24.9134 23.4164 25.1734 22.8891 25.2082C22.3499 25.2436 21.8274 25.0391 21.4539 24.647L17.4148 20.4081L10.1376 27.3774C9.91085 27.5944 9.61941 27.7021 9.32979 27.7021C9.02035 27.7021 8.7109 27.5794 8.48049 27.3365C8.03432 26.8641 8.05294 26.1182 8.52169 25.6696L16.2314 18.2871L16.2601 18.2624ZM9.79519 10.4263C11.8524 10.4263 13.5251 12.11 13.5251 14.1785C13.5251 16.2473 11.8524 17.93 9.79519 17.93C7.7383 17.93 6.06471 16.2473 6.06471 14.1785C6.06471 12.11 7.7383 10.4263 9.79519 10.4263Z" fill="#FF4F38"/>
<path d="M37.8706 0H2.12952C0.953372 0 0 0.95917 0 2.14234V2.15119C0 3.33436 0.953372 4.29353 2.12952 4.29353H37.8706C39.0467 4.29353 40.0001 3.33436 40.0001 2.15119V2.14234C40.0001 0.95917 39.0467 0 37.8706 0Z" fill="#FF4F38"/>
</svg>
