<svg width="27" height="20" viewBox="0 0 27 20" fill="none" xmlns="http://www.w3.org/2000/svg">
<path d="M4.32462 3.31525C5.2401 3.31525 5.98225 2.57311 5.98225 1.65763C5.98225 0.742144 5.2401 0 4.32462 0C3.40914 0 2.66699 0.742144 2.66699 1.65763C2.66699 2.57311 3.40914 3.31525 4.32462 3.31525Z" fill="#FF4F38"/>
<path d="M22.474 3.31525C23.3895 3.31525 24.1317 2.57311 24.1317 1.65763C24.1317 0.742144 23.3895 0 22.474 0C21.5585 0 20.8164 0.742144 20.8164 1.65763C20.8164 2.57311 21.5585 3.31525 22.474 3.31525Z" fill="#FF4F38"/>
<path d="M10.9378 17.6551C10.7696 17.9298 10.4183 18.0809 9.89425 18.1039H9.86035C9.81256 18.1058 9.76349 18.1081 9.71635 18.1113C9.57783 18.1207 9.11548 18.1274 8.99214 17.8207L8.92757 17.6593C8.82457 17.401 8.71802 17.1362 8.60179 16.876L7.27253 13.9068C7.24706 13.85 7.20572 13.8018 7.15348 13.7679C7.10124 13.7341 7.04032 13.7161 6.97807 13.716H4.37378C4.15261 13.716 3.92854 13.716 3.71189 13.7193L3.4029 13.7215H3.39321C3.03806 13.7215 2.41879 13.6037 2.18664 12.8294C2.13685 12.6589 2.11216 12.4821 2.11335 12.3044V6.98479C2.10892 6.27415 2.32111 5.57904 2.72164 4.99202C3.48685 3.87908 4.21557 4.16062 4.69697 4.46929C4.84999 4.56827 4.9918 4.68356 5.11994 4.81315L5.62749 5.3207C6.32318 6.01904 7.26092 6.42287 8.24631 6.4485L8.92725 6.46722C9.15005 6.4715 9.36482 6.55117 9.53651 6.69323C9.64564 6.78557 9.96141 7.05324 9.66113 7.71803H6.27905L4.29467 5.7314C4.23378 5.67258 4.15222 5.64004 4.06757 5.64077C3.98291 5.64151 3.90193 5.67547 3.84207 5.73533C3.7822 5.79519 3.74825 5.87617 3.74751 5.96083C3.74678 6.04548 3.77932 6.12704 3.83813 6.18794L5.79119 8.14099L5.48155 9.47575L5.47962 9.4835C5.47642 9.49666 5.47415 9.51004 5.47284 9.52353C5.47284 9.53451 5.47122 9.54549 5.47122 9.55582C5.47122 10.0068 5.65035 10.4392 5.96921 10.7581C6.28807 11.0769 6.72053 11.2561 7.17147 11.2561H8.28441C8.33381 11.259 8.88656 11.3 9.04251 11.6874C9.18231 12.0348 9.32309 12.389 9.45934 12.7313C9.82677 13.6553 10.2068 14.6107 10.6091 15.5403L10.8454 16.0891L10.848 16.0956C10.9714 16.3684 11.2293 17.1795 10.9378 17.6551Z" fill="#FF4F38"/>
<path d="M24.6853 6.98476V12.3057C24.6863 12.4833 24.6616 12.6601 24.612 12.8307C24.3798 13.6056 23.7606 13.7228 23.4051 13.7228H23.3957L23.0871 13.7205C22.8701 13.7189 22.646 13.7173 22.4252 13.7173H19.8209C19.7586 13.7173 19.6976 13.7353 19.6453 13.7691C19.593 13.803 19.5516 13.8512 19.5261 13.9081L18.1975 16.8772C18.0819 17.1355 17.9763 17.3996 17.8746 17.6547C17.8531 17.7109 17.8306 17.7672 17.8071 17.8236C17.6838 18.1297 17.2214 18.1229 17.0826 18.1142C17.0348 18.1109 16.9857 18.1087 16.9392 18.1067H16.9047C16.3807 18.0838 16.0297 17.9327 15.8615 17.6579C15.5709 17.1824 15.8292 16.3713 15.9519 16.0994L15.9548 16.0927L16.1915 15.5438C16.5931 14.6139 16.9728 13.6592 17.3399 12.7348C17.4765 12.3919 17.6176 12.0371 17.7577 11.689C17.9146 11.2993 18.4726 11.2599 18.5152 11.2576H19.6284C20.0794 11.2576 20.5118 11.0784 20.8307 10.7596C21.1496 10.4408 21.3288 10.0083 21.329 9.5574C21.329 9.54643 21.329 9.53512 21.3274 9.52512C21.3274 9.51963 21.3274 9.51446 21.3251 9.50897C21.3229 9.50348 21.3251 9.50187 21.3235 9.49832C21.3219 9.49477 21.3235 9.49025 21.3209 9.48637L21.319 9.47862L21.0094 8.14419L22.9627 6.19081C22.9929 6.16069 23.0169 6.12491 23.0332 6.08554C23.0495 6.04616 23.058 6.00395 23.058 5.96132C23.058 5.91868 23.0497 5.87646 23.0334 5.83706C23.0171 5.79766 22.9932 5.76186 22.9631 5.73169C22.9329 5.70152 22.8972 5.67758 22.8578 5.66124C22.8184 5.6449 22.7762 5.63647 22.7336 5.63644C22.6909 5.63641 22.6487 5.64478 22.6093 5.66106C22.5699 5.67735 22.5341 5.70124 22.5039 5.73137L20.5186 7.71671H17.1375C16.8372 7.05191 17.153 6.78425 17.2618 6.69191C17.4336 6.5499 17.6485 6.47023 17.8714 6.4659L18.5523 6.44717C19.5376 6.42181 20.4753 6.01833 21.1711 5.32035L21.679 4.81247C21.807 4.68296 21.9487 4.56777 22.1016 4.46893C22.583 4.16027 23.3118 3.87905 24.077 4.99167C24.4774 5.57885 24.6896 6.27404 24.6853 6.98476Z" fill="#FF4F38"/>
<path d="M7.04327 14.9774H3.90269C2.78523 14.9328 1.99225 14.5141 1.54572 13.7327C1.33358 13.3542 1.20964 12.9327 1.18314 12.4997V12.4916L0.968749 3.16479C0.965752 3.03634 0.911852 2.91435 0.818908 2.82564C0.725963 2.73694 0.601587 2.68879 0.47314 2.69178C0.344693 2.69478 0.222698 2.74868 0.133992 2.84162C0.0452858 2.93457 -0.00286511 3.05894 0.000131981 3.18739L0.214196 12.5123C0.241458 13.0939 0.400904 13.6617 0.680424 14.1725C1.10726 14.9419 2.00775 15.8763 3.8746 15.9457H7.47689L7.04327 14.9774Z" fill="#FF4F38"/>
<path d="M3.78393 17.2126H4.5288H4.56109V15.4617C4.56109 15.3547 4.51857 15.252 4.44288 15.1763C4.36719 15.1006 4.26454 15.0581 4.1575 15.0581C4.05046 15.0581 3.9478 15.1006 3.87212 15.1763C3.79643 15.252 3.75391 15.3547 3.75391 15.4617V17.2133L3.78393 17.2126Z" fill="#FF4F38"/>
<path d="M3.78419 17.8584H4.52938C5.09737 17.8584 5.6421 18.084 6.04373 18.4857C6.44536 18.8873 6.67099 19.432 6.67099 20H1.64258C1.64258 19.432 1.86821 18.8873 2.26984 18.4857C2.67147 18.084 3.2162 17.8584 3.78419 17.8584Z" fill="#FF4F38"/>
<path d="M26.3247 2.69153C26.2611 2.69008 26.1978 2.70116 26.1385 2.72416C26.0792 2.74717 26.025 2.78163 25.979 2.82558C25.933 2.86954 25.8961 2.92213 25.8705 2.98034C25.8448 3.03856 25.8309 3.10126 25.8294 3.16486L25.6157 12.4917V12.4997C25.5906 12.9212 25.4727 13.3318 25.2705 13.7024C24.8266 14.5035 24.0275 14.9323 22.8955 14.9775H19.7549L19.3213 15.9461H22.9236C24.7907 15.8754 25.6912 14.9423 26.1181 14.1722C26.3976 13.6614 26.557 13.0937 26.5843 12.512L26.798 3.18746C26.7996 3.12381 26.7886 3.06047 26.7656 3.00108C26.7426 2.94168 26.7082 2.8874 26.6642 2.84134C26.6203 2.79528 26.5676 2.75833 26.5094 2.73263C26.4511 2.70692 26.3884 2.69296 26.3247 2.69153Z" fill="#FF4F38"/>
<path d="M22.2703 17.2126H23.0151H23.0474V15.4617C23.0474 15.3547 23.0049 15.252 22.9292 15.1763C22.8535 15.1006 22.7509 15.0581 22.6438 15.0581C22.5368 15.0581 22.4341 15.1006 22.3584 15.1763C22.2828 15.252 22.2402 15.3547 22.2402 15.4617V17.2133L22.2703 17.2126Z" fill="#FF4F38"/>
<path d="M25.1562 20H20.1278C20.1278 19.432 20.3535 18.8873 20.7551 18.4857C21.1567 18.084 21.7015 17.8584 22.2694 17.8584H23.0143C23.5823 17.8584 24.127 18.084 24.5287 18.4857C24.9303 18.8873 25.1559 19.432 25.1559 20H25.1562Z" fill="#FF4F38"/>
<path d="M12.7598 10.1055H14.0383V18.0785H12.7598V10.1055Z" fill="#FF4F38"/>
<path d="M7.04102 8.36206H19.6295V9.45983H7.04102V8.36206Z" fill="#FF4F38"/>
</svg>
